{"glyphs":{"0":{"ha":814,"x_min":51,"x_max":762,"o":"m 51 527 q 150 871 51 730 q 416 1011 250 1011 q 762 505 762 1011 q 669 127 762 269 q 406 -14 575 -14 q 138 117 224 -14 q 51 527 51 247 m 234 515 q 273 222 234 316 q 401 129 311 129 q 538 213 498 129 q 579 514 579 298 q 540 792 579 715 q 412 869 501 869 q 234 515 234 869 z "},"1":{"ha":814,"x_min":184,"x_max":562,"o":"m 386 0 l 386 716 l 184 595 l 184 764 q 492 998 378 859 l 562 998 l 562 0 l 386 0 z "},"2":{"ha":814,"x_min":94,"x_max":756,"o":"m 105 0 l 105 52 l 420 515 q 514 749 514 654 q 379 861 514 861 q 213 752 276 861 l 94 846 q 205 964 130 917 q 372 1011 281 1011 q 611 942 525 1011 q 697 749 697 872 q 587 467 697 635 l 383 157 l 756 157 l 756 0 l 105 0 z "},"3":{"ha":814,"x_min":97,"x_max":707,"o":"m 97 83 l 185 220 q 356 136 264 136 q 524 294 524 136 q 475 411 524 366 q 344 456 427 456 l 313 456 l 313 602 l 339 602 q 491 728 491 602 q 349 861 491 861 q 207 792 276 861 l 124 913 q 224 982 156 953 q 359 1011 292 1011 q 591 943 508 1011 q 674 753 674 876 q 549 532 674 608 q 707 284 707 456 q 613 64 707 142 q 354 -14 519 -14 q 97 83 203 -14 z "},"4":{"ha":814,"x_min":45,"x_max":768,"o":"m 667 260 l 667 0 l 498 0 l 498 260 l 45 260 l 45 361 l 590 998 l 667 998 l 667 399 l 768 399 l 768 260 l 667 260 m 498 698 l 243 399 l 498 399 l 498 698 z "},"5":{"ha":814,"x_min":112,"x_max":721,"o":"m 112 75 l 182 220 q 367 136 290 136 q 538 347 538 136 q 499 494 538 448 q 370 541 460 541 q 210 460 288 541 l 140 505 l 140 998 l 675 998 l 675 848 l 309 848 l 309 670 q 416 690 354 690 q 642 606 563 690 q 721 366 721 521 q 368 -14 721 -14 q 112 75 221 -14 z "},"6":{"ha":814,"x_min":90,"x_max":744,"o":"m 515 1013 l 609 914 q 425 775 508 861 q 311 605 342 689 q 433 637 382 637 q 659 550 574 637 q 744 314 744 463 q 657 77 744 168 q 437 -14 570 -14 q 90 420 90 -14 q 223 788 90 602 q 515 1013 357 974 m 273 317 q 427 136 273 136 q 527 181 490 136 q 564 307 564 227 q 525 438 564 390 q 425 487 486 487 q 273 317 273 487 z "},"7":{"ha":814,"x_min":96,"x_max":781,"o":"m 364 0 l 171 0 q 551 835 281 340 l 96 835 l 96 998 l 781 998 l 781 922 l 691 753 q 598 567 647 668 q 503 360 549 465 q 422 164 457 256 q 364 0 387 73 z "},"8":{"ha":814,"x_min":79,"x_max":731,"o":"m 239 544 q 150 641 184 581 q 115 762 115 701 q 196 944 115 876 q 404 1011 277 1011 q 617 944 541 1011 q 694 761 694 876 q 651 633 694 701 q 557 538 608 566 q 676 431 622 509 q 731 284 731 353 q 642 65 731 143 q 401 -14 553 -14 q 163 63 247 -14 q 79 284 79 140 q 124 431 79 359 q 239 544 168 503 m 420 612 q 488 677 458 629 q 517 764 517 725 q 486 835 517 808 q 404 861 455 861 q 292 763 292 861 q 333 674 292 720 q 420 612 374 629 m 385 473 q 256 284 256 399 q 296 178 256 220 q 401 136 336 136 q 512 173 469 136 q 555 271 555 210 q 385 473 555 374 z "},"9":{"ha":814,"x_min":79,"x_max":733,"o":"m 307 -19 l 214 80 q 505 378 420 194 q 389 357 460 357 q 164 444 250 357 q 79 680 79 531 q 166 920 79 828 q 386 1011 254 1011 q 733 574 733 1011 q 599 207 733 393 q 307 -19 465 20 m 258 687 q 298 555 258 604 q 398 507 337 507 q 550 677 550 507 q 396 861 550 861 q 296 815 333 861 q 258 687 258 768 z "}," ":{"ha":418,"x_min":0,"x_max":0,"o":""},"!":{"ha":510,"x_min":148,"x_max":370,"o":"m 289 259 l 218 259 q 165 733 165 598 l 165 1011 l 342 1011 l 342 734 q 289 259 342 598 m 259 209 q 337 176 305 209 q 370 98 370 144 q 337 19 370 52 q 259 -14 305 -14 q 180 19 213 -14 q 148 98 148 52 q 180 176 148 144 q 259 209 213 209 z "},"\"":{"ha":509,"x_min":47,"x_max":473,"o":"m 452 703 l 324 703 l 305 995 l 473 995 l 452 703 m 195 703 l 66 703 l 47 995 l 216 995 l 195 703 z "},"#":{"ha":814,"x_min":44,"x_max":796,"o":"m 796 617 l 650 617 l 593 400 l 698 400 l 698 277 l 561 277 l 479 -14 l 347 -14 l 427 277 l 271 277 l 191 -14 l 59 -14 l 139 277 l 44 277 l 44 400 l 172 400 l 229 617 l 122 617 l 122 740 l 261 740 l 334 1008 l 465 1008 l 394 740 l 549 740 l 623 1008 l 753 1008 l 683 740 l 796 740 l 796 617 m 522 617 l 361 617 l 304 400 l 463 400 l 522 617 z "},"$":{"ha":814,"x_min":105,"x_max":707,"o":"m 321 -16 q 105 55 203 -7 l 170 213 q 376 140 275 140 q 531 247 531 140 q 491 348 531 300 q 341 450 452 395 q 190 543 230 506 q 129 630 150 579 q 107 743 107 681 q 165 906 107 836 q 321 1000 223 977 l 321 1123 l 476 1123 l 475 1007 q 661 946 600 995 l 608 794 q 412 861 515 861 q 317 828 351 861 q 283 745 283 795 q 473 567 283 659 q 616 477 572 518 q 684 381 661 436 q 707 260 707 327 q 646 94 707 165 q 476 -3 585 23 l 476 -159 l 321 -159 l 321 -16 z "},"%":{"ha":950,"x_min":21,"x_max":914,"o":"m 21 777 q 81 946 21 880 q 236 1011 142 1011 q 384 946 329 1011 q 439 764 439 881 q 381 590 439 656 q 230 524 323 524 q 21 777 21 524 m 147 770 q 169 666 147 703 q 224 629 191 629 q 313 770 313 629 q 234 905 313 905 q 147 770 147 905 m 227 -14 l 94 -14 l 717 1011 l 849 1011 l 227 -14 m 496 239 q 556 408 496 342 q 711 473 616 473 q 859 408 804 473 q 914 227 914 343 q 856 53 914 119 q 705 -14 798 -14 q 496 239 496 -14 m 622 233 q 643 129 622 165 q 699 92 665 92 q 788 233 788 92 q 709 368 788 368 q 622 233 622 368 z "},"&":{"ha":981,"x_min":76,"x_max":904,"o":"m 627 30 q 393 -14 526 -14 q 158 74 241 -14 q 76 315 76 161 q 177 560 76 458 q 90 750 90 649 q 174 935 90 858 q 398 1011 258 1011 q 640 937 545 1011 l 568 814 q 419 874 483 874 q 301 837 342 874 q 259 737 259 800 q 324 613 259 665 l 549 613 l 549 726 l 719 789 l 719 611 l 888 611 l 888 468 l 719 468 l 719 272 q 740 165 719 194 q 810 136 761 136 q 904 157 857 136 l 904 9 q 752 -14 833 -14 q 627 30 687 -14 m 549 224 l 549 468 l 307 468 q 252 320 252 402 q 439 136 252 136 q 554 158 513 136 q 549 224 549 183 z "},"'":{"ha":319,"x_min":81,"x_max":250,"o":"m 229 703 l 100 703 l 81 995 l 250 995 l 229 703 z "},"(":{"ha":510,"x_min":111,"x_max":439,"o":"m 439 1013 l 439 920 q 305 377 305 732 q 439 -194 305 -45 l 439 -309 q 195 -21 279 -200 q 111 378 111 158 q 205 755 111 567 q 439 1013 300 943 z "},")":{"ha":510,"x_min":111,"x_max":439,"o":"m 111 -309 l 111 -194 q 245 377 245 -45 q 111 920 245 732 l 111 1013 q 345 755 250 943 q 439 378 439 567 q 355 -21 439 158 q 111 -309 271 -200 z "},"*":{"ha":600,"x_min":24,"x_max":557,"o":"m 455 747 l 364 740 l 457 687 l 515 612 l 385 514 l 328 597 l 292 684 l 258 606 l 183 514 l 66 618 l 146 696 l 221 735 l 130 743 l 24 785 l 90 924 l 197 879 l 245 827 l 209 932 l 209 1025 l 369 1024 l 369 935 l 338 825 l 406 886 l 502 928 l 557 791 l 455 747 z "},"+":{"ha":814,"x_min":111,"x_max":720,"o":"m 484 363 l 484 122 l 347 122 l 347 363 l 111 363 l 111 499 l 347 499 l 347 732 l 484 732 l 484 499 l 720 499 l 720 363 l 484 363 z "},",":{"ha":510,"x_min":90,"x_max":370,"o":"m 147 -254 l 90 -180 q 214 -34 214 -87 q 199 6 214 -14 q 135 94 135 37 q 169 161 135 134 q 253 188 203 188 q 335 152 300 188 q 370 70 370 117 q 329 -87 370 -16 q 147 -254 289 -158 z "},"-":{"ha":510,"x_min":74,"x_max":433,"o":"m 74 323 l 74 482 l 433 482 l 433 323 l 74 323 z "},".":{"ha":510,"x_min":118,"x_max":362,"o":"m 118 89 q 154 175 118 140 q 240 211 189 211 q 327 175 291 211 q 362 89 362 140 q 327 2 362 38 q 240 -34 291 -34 q 154 2 189 -34 q 118 89 118 38 z "},"/":{"ha":542,"x_min":11,"x_max":537,"o":"m 163 0 l 11 0 l 386 998 l 537 998 l 163 0 z "},":":{"ha":510,"x_min":118,"x_max":362,"o":"m 118 638 q 154 725 118 689 q 240 760 189 760 q 327 725 291 760 q 362 638 362 689 q 327 551 362 587 q 240 515 291 515 q 154 551 189 515 q 118 638 118 587 m 118 89 q 154 175 118 140 q 240 211 189 211 q 327 175 291 211 q 362 89 362 140 q 327 2 362 38 q 240 -34 291 -34 q 154 2 189 -34 q 118 89 118 38 z "},";":{"ha":510,"x_min":90,"x_max":370,"o":"m 118 638 q 154 725 118 689 q 240 760 189 760 q 327 725 291 760 q 362 638 362 689 q 327 551 362 587 q 240 515 291 515 q 154 551 189 515 q 118 638 118 587 m 147 -254 l 90 -180 q 214 -34 214 -87 q 199 6 214 -14 q 135 94 135 37 q 169 161 135 134 q 253 188 203 188 q 335 152 300 188 q 370 70 370 117 q 329 -87 370 -16 q 147 -254 289 -158 z "},"<":{"ha":814,"x_min":130,"x_max":672,"o":"m 130 378 l 130 487 l 672 747 l 672 592 l 314 432 l 672 270 l 672 115 l 130 378 z "},"=":{"ha":814,"x_min":121,"x_max":730,"o":"m 121 505 l 121 642 l 730 642 l 730 505 l 121 505 m 121 220 l 121 357 l 730 357 l 730 220 l 121 220 z "},">":{"ha":814,"x_min":180,"x_max":722,"o":"m 180 115 l 180 270 l 537 432 l 180 592 l 180 747 l 722 487 l 722 378 l 180 115 z "},"?":{"ha":608,"x_min":70,"x_max":557,"o":"m 337 301 l 208 301 q 195 336 206 306 q 184 388 184 366 q 196 470 184 431 q 231 544 208 509 q 322 653 254 578 q 390 777 390 728 q 266 872 390 872 q 140 812 205 872 l 70 943 q 300 1011 157 1011 q 483 950 410 1011 q 557 788 557 889 q 530 671 557 719 q 436 559 503 623 q 348 452 368 494 q 328 358 328 409 q 337 301 328 347 m 279 209 q 358 176 326 209 q 390 98 390 144 q 358 19 390 52 q 279 -14 326 -14 q 201 19 233 -14 q 168 98 168 52 q 201 176 168 144 q 279 209 233 209 z "},"@":{"ha":1070,"x_min":47,"x_max":1023,"o":"m 625 201 q 489 157 567 157 q 358 200 410 157 q 307 317 307 243 q 575 497 307 488 q 518 561 562 561 q 387 522 454 561 l 347 614 q 509 668 422 668 q 718 441 718 668 l 718 295 q 780 270 756 270 q 886 448 886 270 q 796 691 886 603 q 546 780 706 780 q 284 672 383 780 q 184 395 184 564 q 282 128 184 229 q 546 28 380 28 q 687 48 633 28 q 794 115 741 68 q 795 97 795 115 q 794 44 795 79 l 794 -24 q 546 -91 677 -91 q 184 43 320 -91 q 47 395 47 178 q 185 757 47 615 q 546 899 323 899 q 899 781 774 899 q 1023 446 1023 663 q 957 245 1023 328 q 781 162 891 162 q 625 201 681 162 m 578 405 l 564 405 q 452 320 452 405 q 471 276 452 294 q 522 259 491 259 q 578 280 554 259 l 578 405 z "},"A":{"ha":880,"x_min":3,"x_max":876,"o":"m 682 0 l 609 201 l 269 201 l 199 0 l 3 0 l 399 1007 l 477 1007 l 876 0 l 682 0 m 438 703 l 319 336 l 557 336 l 438 703 z "},"B":{"ha":827,"x_min":102,"x_max":772,"o":"m 406 0 l 102 0 l 102 993 q 383 1002 302 1002 q 625 936 538 1002 q 712 747 712 870 q 587 561 712 629 q 772 295 772 496 q 670 80 772 159 q 406 0 568 0 m 278 852 l 278 614 q 363 611 319 611 q 536 741 536 611 q 379 855 536 855 q 278 852 338 855 m 278 476 l 278 148 q 365 143 332 143 q 536 183 483 143 q 589 316 589 223 q 540 439 589 401 q 367 478 490 478 q 278 476 341 478 z "},"C":{"ha":850,"x_min":54,"x_max":809,"o":"m 783 941 l 710 795 q 520 854 651 854 q 317 750 396 854 q 237 486 237 646 q 311 233 237 327 q 507 140 385 140 q 727 240 648 140 l 809 98 q 493 -17 701 -17 q 170 120 285 -17 q 54 494 54 257 q 182 862 54 714 q 509 1010 310 1010 q 783 941 680 1010 z "},"D":{"ha":892,"x_min":102,"x_max":838,"o":"m 322 0 l 102 0 l 102 993 q 367 1000 313 1000 q 711 873 584 1000 q 838 536 838 746 q 322 0 838 0 m 278 839 l 278 161 q 370 157 321 157 q 579 254 504 157 q 655 525 655 351 q 359 844 655 844 q 278 839 330 844 z "},"E":{"ha":790,"x_min":102,"x_max":736,"o":"m 278 837 l 278 604 l 606 604 l 606 454 l 278 454 l 278 157 l 728 157 l 728 0 l 102 0 l 102 994 l 736 994 l 736 837 l 278 837 z "},"F":{"ha":810,"x_min":102,"x_max":756,"o":"m 278 837 l 278 604 l 627 604 l 627 454 l 278 454 l 278 0 l 102 0 l 102 994 l 756 994 l 756 837 l 278 837 z "},"G":{"ha":932,"x_min":54,"x_max":878,"o":"m 836 913 l 762 771 q 665 826 730 799 q 553 854 600 854 q 322 754 407 854 q 237 488 237 655 q 320 235 237 330 q 547 140 404 140 q 702 191 641 140 l 702 387 l 564 387 l 564 537 l 878 537 l 878 92 q 716 12 815 41 q 518 -17 616 -17 q 179 123 304 -17 q 54 493 54 263 q 191 867 54 723 q 557 1010 327 1010 q 836 913 721 1010 z "},"H":{"ha":949,"x_min":102,"x_max":848,"o":"m 673 0 l 673 448 l 278 448 l 278 0 l 102 0 l 102 994 l 278 994 l 278 604 l 673 604 l 673 994 l 848 994 l 848 0 l 673 0 z "},"I":{"ha":387,"x_min":105,"x_max":281,"o":"m 105 0 l 105 994 l 281 994 l 281 0 l 105 0 z "},"J":{"ha":740,"x_min":12,"x_max":648,"o":"m 12 230 l 169 230 q 314 143 191 143 q 436 199 401 143 q 472 370 472 256 l 472 994 l 648 994 l 648 376 q 564 82 648 178 q 294 -14 480 -14 q 95 51 171 -14 q 12 230 19 115 z "},"K":{"ha":857,"x_min":102,"x_max":876,"o":"m 665 0 l 389 423 l 278 272 l 278 0 l 102 0 l 102 994 l 278 994 l 278 518 l 616 994 l 817 994 l 505 559 l 876 0 l 665 0 z "},"L":{"ha":768,"x_min":102,"x_max":727,"o":"m 102 0 l 102 994 l 278 994 l 278 157 l 727 157 l 727 0 l 102 0 z "},"M":{"ha":1035,"x_min":14,"x_max":1028,"o":"m 1028 -1 l 857 -1 l 754 535 l 554 -14 l 491 -14 l 291 535 l 184 -1 l 14 -1 l 214 994 l 307 994 l 522 324 l 732 994 l 825 994 l 1028 -1 z "},"N":{"ha":927,"x_min":102,"x_max":825,"o":"m 753 -14 l 271 615 l 271 -1 l 102 -1 l 102 994 l 186 994 l 656 394 l 656 994 l 825 994 l 825 -14 l 753 -14 z "},"O":{"ha":977,"x_min":54,"x_max":922,"o":"m 54 505 q 171 864 54 718 q 481 1011 287 1011 q 809 878 696 1011 q 922 505 922 745 q 804 124 922 265 q 468 -17 686 -17 q 161 123 268 -17 q 54 505 54 262 m 237 505 q 296 235 237 331 q 468 140 355 140 q 670 233 600 140 q 739 505 739 327 q 481 854 739 854 q 300 760 363 854 q 237 505 237 665 z "},"P":{"ha":815,"x_min":102,"x_max":761,"o":"m 278 366 l 278 0 l 102 0 l 102 993 q 308 1000 278 1000 q 652 928 543 1000 q 761 703 761 856 q 358 361 761 361 q 278 366 328 361 m 278 840 l 278 522 q 349 517 323 517 q 525 558 469 517 q 581 689 581 598 q 332 844 581 844 q 278 840 304 844 z "},"Q":{"ha":985,"x_min":54,"x_max":1044,"o":"m 1044 -205 q 953 -212 999 -212 q 721 -160 827 -212 q 555 -17 614 -109 q 475 -22 530 -22 q 166 125 279 -22 q 54 502 54 271 q 169 866 54 720 q 475 1011 283 1011 q 806 877 690 1011 q 922 502 922 742 q 689 26 922 146 q 935 -55 763 -55 q 1044 -41 998 -55 l 1044 -205 m 237 502 q 300 241 237 346 q 475 136 362 136 q 672 232 605 136 q 739 502 739 328 q 475 854 739 854 q 298 760 358 854 q 237 502 237 665 z "},"R":{"ha":848,"x_min":102,"x_max":865,"o":"m 662 0 l 397 410 q 285 415 357 411 l 285 0 l 102 0 l 102 994 q 216 999 117 994 q 377 1004 316 1004 q 755 711 755 1004 q 703 550 755 623 q 572 448 651 477 l 865 0 l 662 0 m 285 840 l 285 564 q 359 560 334 560 q 521 591 470 560 q 572 713 572 623 q 517 815 572 786 q 345 844 463 844 q 285 840 316 844 z "},"S":{"ha":710,"x_min":54,"x_max":656,"o":"m 54 55 l 119 213 q 325 140 224 140 q 480 248 480 140 q 444 345 480 299 q 293 449 407 391 q 139 543 178 506 q 78 631 99 580 q 56 743 56 682 q 141 935 56 859 q 357 1010 225 1010 q 610 946 530 1010 l 557 794 q 361 861 464 861 q 266 828 300 861 q 233 745 233 796 q 422 567 233 659 q 566 477 522 518 q 633 381 610 436 q 656 260 656 327 q 561 61 656 139 q 305 -17 465 -17 q 54 55 166 -17 z "},"T":{"ha":850,"x_min":14,"x_max":836,"o":"m 506 837 l 506 0 l 330 0 l 330 837 l 14 837 l 14 994 l 836 994 l 836 837 l 506 837 z "},"U":{"ha":941,"x_min":102,"x_max":840,"o":"m 102 994 l 278 994 l 278 320 q 327 190 278 240 q 461 140 376 140 q 610 189 557 140 q 663 323 663 238 l 663 994 l 840 994 l 840 310 q 737 70 840 157 q 463 -17 634 -17 q 196 68 290 -17 q 102 311 102 153 l 102 994 z "},"V":{"ha":863,"x_min":3,"x_max":860,"o":"m 472 -14 l 375 -14 l 3 994 l 197 994 l 427 322 l 670 994 l 860 994 l 472 -14 z "},"W":{"ha":1227,"x_min":3,"x_max":1224,"o":"m 903 -14 l 830 -14 l 613 613 l 402 -14 l 330 -14 l 3 994 l 187 994 l 374 394 l 575 994 l 652 994 l 854 394 l 1040 994 l 1224 994 l 903 -14 z "},"X":{"ha":834,"x_min":3,"x_max":831,"o":"m 639 0 l 404 357 l 187 0 l 3 0 l 301 515 l 27 994 l 208 994 l 409 658 l 631 994 l 815 994 l 500 512 l 831 0 l 639 0 z "},"Y":{"ha":852,"x_min":3,"x_max":848,"o":"m 515 408 l 515 0 l 338 0 l 338 408 l 3 994 l 191 994 l 426 570 l 662 994 l 848 994 l 515 408 z "},"Z":{"ha":778,"x_min":54,"x_max":724,"o":"m 54 0 l 54 57 l 469 837 l 61 837 l 61 994 l 709 994 l 709 937 l 293 157 l 724 157 l 724 0 l 54 0 z "},"[":{"ha":558,"x_min":102,"x_max":456,"o":"m 102 -285 l 102 1024 l 456 1024 l 456 873 l 278 873 l 278 -134 l 456 -134 l 456 -285 l 102 -285 z "},"\\":{"ha":494,"x_min":-5,"x_max":498,"o":"m 358 0 l -5 998 l 134 998 l 498 0 l 358 0 z "},"]":{"ha":558,"x_min":102,"x_max":456,"o":"m 456 -285 l 102 -285 l 102 -134 l 280 -134 l 280 873 l 102 873 l 102 1024 l 456 1024 l 456 -285 z "},"^":{"ha":814,"x_min":127,"x_max":684,"o":"m 551 615 l 406 858 l 258 612 l 127 612 l 370 998 l 443 998 l 684 615 l 551 615 z "},"_":{"ha":814,"x_min":-5,"x_max":819,"o":"m -5 -227 l -5 -85 l 819 -85 l 819 -227 l -5 -227 z "},"`":{"ha":814,"x_min":251,"x_max":547,"o":"m 404 824 l 251 1023 l 432 1023 l 547 824 l 404 824 z "},"a":{"ha":740,"x_min":44,"x_max":707,"o":"m 496 73 q 415 11 473 35 q 296 -14 358 -14 q 111 45 178 -14 q 44 212 44 104 q 139 409 44 338 q 408 480 233 480 q 478 470 437 480 q 316 598 478 598 q 156 566 220 598 l 119 698 q 328 740 207 740 q 571 664 494 740 q 648 378 648 589 l 648 222 q 707 40 648 77 q 660 -5 686 3 q 601 -14 634 -14 q 535 14 564 -14 q 496 73 506 41 m 479 342 q 414 351 436 351 q 214 219 214 351 q 327 121 214 121 q 479 274 479 121 l 479 342 z "},"b":{"ha":808,"x_min":78,"x_max":750,"o":"m 212 40 l 174 -14 l 78 -14 l 78 997 l 248 1038 l 248 699 q 395 740 315 740 q 652 639 555 740 q 750 381 750 538 q 652 93 750 199 q 385 -14 553 -14 q 212 40 284 -14 m 248 553 l 248 174 q 349 130 285 130 q 523 189 471 130 q 574 375 574 247 q 362 596 574 596 q 248 553 287 596 z "},"c":{"ha":711,"x_min":44,"x_max":667,"o":"m 661 669 l 589 542 q 429 598 529 598 q 276 534 332 598 q 220 357 220 470 q 438 128 220 128 q 604 191 532 128 l 667 57 q 537 -1 593 11 q 407 -14 482 -14 q 141 84 239 -14 q 44 357 44 182 q 151 634 44 528 q 441 740 257 740 q 661 669 568 740 z "},"d":{"ha":806,"x_min":58,"x_max":728,"o":"m 559 0 l 559 44 q 488 4 538 21 q 384 -14 437 -14 q 145 83 232 -14 q 58 351 58 179 q 158 632 58 524 q 408 740 258 740 q 559 706 491 740 l 559 997 l 728 1038 l 728 0 l 559 0 m 559 553 q 446 596 505 596 q 289 534 344 596 q 234 356 234 472 q 452 130 234 130 q 512 144 477 130 q 559 174 548 159 l 559 553 z "},"e":{"ha":798,"x_min":44,"x_max":754,"o":"m 740 311 l 221 311 q 281 176 226 224 q 429 128 336 128 q 605 189 545 128 l 671 59 q 404 -14 581 -14 q 141 84 237 -14 q 44 355 44 181 q 150 633 44 527 q 405 740 256 740 q 659 646 563 740 q 754 406 754 551 q 740 311 754 374 m 227 439 l 584 439 q 408 598 566 598 q 227 439 262 598 z "},"f":{"ha":513,"x_min":24,"x_max":547,"o":"m 496 869 q 411 887 441 887 q 329 846 363 887 q 296 744 296 804 q 296 726 296 735 l 447 726 l 447 587 l 299 587 l 299 0 l 130 0 l 130 587 l 24 587 l 24 726 l 130 726 q 209 942 136 860 q 399 1024 283 1024 q 547 998 460 1024 l 496 869 z "},"g":{"ha":697,"x_min":34,"x_max":677,"o":"m 37 -186 l 144 -54 q 342 -136 233 -136 q 463 -114 416 -136 q 511 -54 511 -92 q 406 10 511 10 q 321 3 377 10 q 236 -3 264 -3 q 61 122 61 -3 q 90 193 61 158 q 158 243 119 227 q 34 472 34 324 q 119 665 34 589 q 330 741 205 741 q 493 705 427 741 l 559 782 l 677 675 l 596 616 q 638 466 638 553 q 563 268 638 342 q 372 193 487 193 q 323 197 353 193 l 295 201 q 259 186 290 201 q 227 156 227 172 q 274 129 227 129 q 345 139 295 129 q 429 149 394 149 q 677 -50 677 149 q 578 -222 677 -159 q 339 -285 479 -285 q 37 -186 172 -285 m 207 471 q 242 368 207 407 q 338 329 278 329 q 431 367 399 329 q 464 471 464 405 q 429 564 464 526 q 338 602 394 602 q 243 566 280 602 q 207 471 207 529 z "},"h":{"ha":823,"x_min":92,"x_max":732,"o":"m 562 0 l 562 448 q 519 555 562 515 q 410 596 477 596 q 325 573 368 596 q 264 522 282 551 l 264 0 l 92 0 l 92 997 l 264 1038 l 264 680 q 445 740 330 740 q 656 664 581 740 q 732 448 732 589 l 732 0 l 562 0 z "},"i":{"ha":414,"x_min":44,"x_max":323,"o":"m 224 1008 q 294 979 265 1008 q 323 909 323 950 q 294 840 323 869 q 224 811 265 811 q 155 840 184 811 q 126 909 126 869 q 155 979 126 950 q 224 1008 184 1008 m 137 0 l 137 587 l 44 587 l 44 726 l 309 726 l 309 0 l 137 0 z "},"j":{"ha":509,"x_min":-8,"x_max":401,"o":"m 302 1008 q 372 979 343 1008 q 401 909 401 950 q 372 840 401 869 q 302 811 343 811 q 233 840 262 811 q 204 909 204 869 q 233 979 204 950 q 302 1008 262 1008 m -8 -285 l -8 -134 q 175 -101 127 -134 q 223 14 223 -69 l 223 587 l 92 587 l 92 726 l 393 726 l 393 17 q 295 -212 393 -139 q -8 -285 197 -285 z "},"k":{"ha":761,"x_min":92,"x_max":758,"o":"m 556 0 l 342 329 l 261 243 l 261 0 l 92 0 l 92 997 l 261 1038 l 261 448 l 503 726 l 707 726 l 462 451 l 758 0 l 556 0 z "},"l":{"ha":410,"x_min":121,"x_max":370,"o":"m 121 997 l 290 1038 l 290 221 q 370 61 290 87 q 236 -14 331 -14 q 121 146 121 -14 l 121 997 z "},"m":{"ha":1194,"x_min":92,"x_max":1102,"o":"m 932 0 l 932 455 q 804 598 932 598 q 731 576 766 598 q 682 524 696 553 l 682 0 l 512 0 l 512 481 q 479 567 512 535 q 385 598 446 598 q 316 574 353 598 q 261 522 278 551 l 261 0 l 92 0 l 92 726 l 208 726 l 243 663 q 425 740 313 740 q 643 661 570 740 q 732 719 675 697 q 846 740 789 740 q 1035 670 967 740 q 1102 479 1102 601 l 1102 0 l 932 0 z "},"n":{"ha":820,"x_min":92,"x_max":728,"o":"m 559 0 l 559 420 q 523 555 559 513 q 407 598 488 598 q 327 577 370 598 q 261 525 285 556 l 261 0 l 92 0 l 92 726 l 214 726 l 245 659 q 449 740 314 740 q 653 662 578 740 q 728 446 728 585 l 728 0 l 559 0 z "},"o":{"ha":786,"x_min":44,"x_max":742,"o":"m 44 365 q 140 635 44 531 q 393 740 236 740 q 650 640 559 740 q 742 365 742 539 q 649 89 742 191 q 393 -14 555 -14 q 136 90 228 -14 q 44 365 44 193 m 220 365 q 393 125 220 125 q 519 187 473 125 q 566 365 566 250 q 393 602 566 602 q 267 539 314 602 q 220 365 220 477 z "},"p":{"ha":809,"x_min":78,"x_max":751,"o":"m 248 18 l 248 -285 l 78 -285 l 78 726 l 248 726 l 248 677 q 404 740 311 740 q 751 357 751 740 q 655 83 751 179 q 393 -14 559 -14 q 248 18 313 -14 m 248 549 l 248 167 q 355 130 294 130 q 524 185 473 130 q 575 362 575 241 q 524 544 575 491 q 356 596 473 596 q 248 549 295 596 z "},"q":{"ha":811,"x_min":58,"x_max":733,"o":"m 564 -285 l 564 20 q 395 -14 503 -14 q 147 83 237 -14 q 58 356 58 180 q 160 636 58 532 q 423 740 263 740 q 595 683 518 740 l 623 726 l 733 726 l 733 -285 l 564 -285 m 564 554 q 445 596 518 596 q 290 531 346 596 q 234 356 234 465 q 439 130 234 130 q 564 165 515 130 l 564 554 z "},"r":{"ha":593,"x_min":92,"x_max":583,"o":"m 511 568 q 412 598 466 598 q 307 545 353 598 q 261 414 261 491 l 261 0 l 92 0 l 92 726 l 261 726 l 261 660 q 450 740 332 740 q 583 713 537 740 l 511 568 z "},"s":{"ha":598,"x_min":44,"x_max":554,"o":"m 47 47 l 107 182 q 279 121 183 121 q 378 192 378 121 q 348 260 378 233 q 232 322 318 286 q 44 541 44 400 q 116 687 44 635 q 300 740 188 740 q 513 689 413 740 l 464 557 q 309 605 408 605 q 220 534 220 605 q 250 484 220 507 q 374 424 279 462 q 512 333 470 387 q 554 203 554 279 q 479 44 554 102 q 275 -14 404 -14 q 159 -2 203 -14 q 47 47 115 10 z "},"t":{"ha":551,"x_min":33,"x_max":511,"o":"m 117 590 l 33 590 l 33 726 l 117 726 l 117 874 l 287 937 l 287 726 l 486 726 l 486 590 l 287 590 l 287 272 q 311 162 287 194 q 397 130 336 130 q 511 163 458 130 l 511 7 q 342 -14 452 -14 q 176 48 234 -14 q 117 222 117 109 l 117 590 z "},"u":{"ha":821,"x_min":92,"x_max":729,"o":"m 559 -1 l 559 60 q 460 8 524 30 q 345 -14 397 -14 q 92 255 92 -14 l 92 726 l 261 726 l 261 268 q 387 128 261 128 q 494 158 444 128 q 559 227 543 188 l 559 726 l 729 726 l 729 -1 l 559 -1 z "},"v":{"ha":732,"x_min":3,"x_max":729,"o":"m 393 -14 l 332 -14 l 3 726 l 189 726 l 363 283 l 549 726 l 729 726 l 393 -14 z "},"w":{"ha":1088,"x_min":9,"x_max":1080,"o":"m 805 -14 l 743 -14 l 544 433 l 345 -14 l 283 -14 l 9 726 l 187 726 l 333 293 l 511 726 l 572 726 l 755 290 l 913 726 l 1080 726 l 805 -14 z "},"x":{"ha":767,"x_min":3,"x_max":764,"o":"m 558 0 l 372 237 l 204 0 l 3 0 l 282 372 l 26 726 l 220 726 l 374 505 l 545 726 l 738 726 l 459 372 l 764 0 l 558 0 z "},"y":{"ha":741,"x_min":3,"x_max":731,"o":"m 413 -117 q 297 -237 386 -189 q 89 -285 208 -285 l 89 -135 q 285 -37 285 -135 q 231 163 285 28 l 3 726 l 179 726 l 377 224 l 555 726 l 731 726 l 413 -117 z "},"z":{"ha":734,"x_min":44,"x_max":690,"o":"m 44 0 l 44 58 l 438 578 l 51 578 l 51 726 l 686 726 l 686 667 l 306 148 l 690 148 l 690 0 l 44 0 z "},"{":{"ha":602,"x_min":55,"x_max":549,"o":"m 435 -285 q 230 -227 313 -285 q 146 -69 146 -168 q 172 75 146 -20 q 197 218 197 170 q 55 339 197 330 l 55 431 q 197 564 197 441 q 172 690 197 607 q 146 817 146 773 q 230 967 146 911 q 429 1024 313 1024 l 549 1024 l 549 897 l 410 897 q 319 796 319 897 q 341 686 319 758 q 362 576 362 614 q 232 389 362 471 q 362 222 362 321 q 341 99 362 180 q 319 -23 319 18 q 339 -101 319 -71 q 397 -142 359 -131 q 549 -153 435 -153 l 549 -285 l 435 -285 z "},"|":{"ha":814,"x_min":342,"x_max":482,"o":"m 342 -285 l 342 1024 l 482 1024 l 482 -285 l 342 -285 z "},"}":{"ha":602,"x_min":55,"x_max":549,"o":"m 549 339 q 408 218 408 330 q 433 75 408 170 q 458 -69 458 -20 q 375 -227 458 -168 q 170 -285 292 -285 l 55 -285 l 55 -153 q 207 -142 170 -153 q 265 -101 245 -131 q 285 -23 285 -71 q 263 99 285 18 q 242 222 242 180 q 372 389 242 321 q 242 576 242 471 q 263 686 242 614 q 285 796 285 758 q 194 897 285 897 l 55 897 l 55 1024 l 176 1024 q 374 967 290 1024 q 458 817 458 911 q 433 690 458 773 q 408 564 408 607 q 549 431 408 441 l 549 339 z "},"~":{"ha":814,"x_min":122,"x_max":679,"o":"m 221 325 l 122 325 q 175 456 136 406 q 271 506 214 506 q 336 499 304 506 q 470 461 369 492 q 519 454 498 454 q 578 506 560 454 l 679 506 q 616 365 653 406 q 522 325 580 325 q 457 332 490 325 q 359 358 424 338 q 281 377 294 377 q 221 325 246 377 z "},"Ä":{"ha":880,"x_min":3,"x_max":876,"o":"m 682 0 l 609 201 l 269 201 l 199 0 l 3 0 l 399 1007 l 477 1007 l 876 0 l 682 0 m 438 703 l 319 336 l 557 336 l 438 703 m 225 1268 q 293 1240 265 1268 q 321 1171 321 1211 q 293 1103 321 1131 q 225 1075 265 1075 q 157 1103 185 1075 q 128 1171 128 1131 q 157 1240 128 1211 q 225 1268 185 1268 m 646 1268 q 714 1240 686 1268 q 742 1171 742 1211 q 714 1103 742 1131 q 646 1075 686 1075 q 577 1103 606 1075 q 549 1171 549 1131 q 577 1240 549 1211 q 646 1268 606 1268 z "},"Å":{"ha":880,"x_min":3,"x_max":876,"o":"m 876 0 l 682 0 l 609 201 l 269 201 l 199 0 l 3 0 l 373 940 q 269 1073 269 975 q 320 1175 269 1135 q 439 1216 372 1216 q 560 1176 509 1216 q 610 1073 610 1136 q 503 940 610 975 l 876 0 m 439 1137 q 388 1120 409 1137 q 367 1072 367 1103 q 439 1007 367 1007 q 511 1072 511 1007 q 439 1137 511 1137 m 557 336 l 438 703 l 319 336 l 557 336 z "},"Ç":{"ha":850,"x_min":54,"x_max":809,"o":"m 783 941 l 710 795 q 520 854 651 854 q 317 750 396 854 q 237 486 237 646 q 311 233 237 327 q 507 140 385 140 q 727 240 648 140 l 809 98 q 493 -17 701 -17 q 170 120 285 -17 q 54 494 54 257 q 182 862 54 714 q 509 1010 310 1010 q 783 941 680 1010 m 349 -288 l 321 -202 q 369 -208 345 -208 q 458 -146 458 -208 q 444 -103 458 -124 q 409 -77 430 -82 l 467 -16 q 589 -157 589 -41 q 541 -259 589 -222 q 416 -296 492 -296 q 349 -288 381 -296 z "},"É":{"ha":790,"x_min":102,"x_max":736,"o":"m 278 837 l 278 604 l 606 604 l 606 454 l 278 454 l 278 157 l 728 157 l 728 0 l 102 0 l 102 994 l 736 994 l 736 837 l 278 837 m 595 1274 l 441 1075 l 313 1075 l 427 1274 l 595 1274 z "},"Ñ":{"ha":927,"x_min":102,"x_max":825,"o":"m 753 -14 l 271 615 l 271 -1 l 102 -1 l 102 994 l 186 994 l 656 394 l 656 994 l 825 994 l 825 -14 l 753 -14 m 316 1055 l 218 1055 q 270 1180 231 1132 q 366 1229 309 1229 q 472 1203 419 1229 q 540 1177 525 1177 q 599 1229 581 1177 l 699 1229 q 636 1091 673 1128 q 543 1055 599 1055 q 447 1081 500 1055 q 376 1107 393 1107 q 316 1055 341 1107 z "},"Ö":{"ha":977,"x_min":54,"x_max":922,"o":"m 54 505 q 171 864 54 718 q 481 1011 287 1011 q 809 878 696 1011 q 922 505 922 745 q 804 124 922 265 q 468 -17 686 -17 q 161 123 268 -17 q 54 505 54 262 m 237 505 q 296 235 237 331 q 468 140 355 140 q 670 233 600 140 q 739 505 739 327 q 481 854 739 854 q 300 760 363 854 q 237 505 237 665 m 283 1268 q 352 1240 323 1268 q 380 1171 380 1211 q 352 1103 380 1131 q 283 1075 323 1075 q 215 1103 243 1075 q 186 1171 186 1131 q 215 1240 186 1211 q 283 1268 243 1268 m 704 1268 q 772 1240 744 1268 q 800 1171 800 1211 q 772 1103 800 1131 q 704 1075 744 1075 q 635 1103 664 1075 q 607 1171 607 1131 q 635 1240 607 1211 q 704 1268 664 1268 z "},"Ü":{"ha":941,"x_min":102,"x_max":840,"o":"m 102 994 l 278 994 l 278 320 q 327 190 278 240 q 461 140 376 140 q 610 189 557 140 q 663 323 663 238 l 663 994 l 840 994 l 840 310 q 737 70 840 157 q 463 -17 634 -17 q 196 68 290 -17 q 102 311 102 153 l 102 994 m 256 1268 q 325 1240 296 1268 q 353 1171 353 1211 q 325 1103 353 1131 q 256 1075 296 1075 q 188 1103 216 1075 q 159 1171 159 1131 q 188 1240 159 1211 q 256 1268 216 1268 m 677 1268 q 745 1240 717 1268 q 773 1171 773 1211 q 745 1103 773 1131 q 677 1075 717 1075 q 608 1103 637 1075 q 580 1171 580 1131 q 608 1240 580 1211 q 677 1268 637 1268 z "},"á":{"ha":740,"x_min":44,"x_max":707,"o":"m 496 73 q 415 11 473 35 q 296 -14 358 -14 q 111 45 178 -14 q 44 212 44 104 q 139 409 44 338 q 408 480 233 480 q 478 470 437 480 q 316 598 478 598 q 156 566 220 598 l 119 698 q 328 740 207 740 q 571 664 494 740 q 648 378 648 589 l 648 222 q 707 40 648 77 q 660 -5 686 3 q 601 -14 634 -14 q 535 14 564 -14 q 496 73 506 41 m 479 342 q 414 351 436 351 q 214 219 214 351 q 327 121 214 121 q 479 274 479 121 l 479 342 m 534 1023 l 380 824 l 252 824 l 366 1023 l 534 1023 z "},"à":{"ha":740,"x_min":44,"x_max":707,"o":"m 496 73 q 415 11 473 35 q 296 -14 358 -14 q 111 45 178 -14 q 44 212 44 104 q 139 409 44 338 q 408 480 233 480 q 478 470 437 480 q 316 598 478 598 q 156 566 220 598 l 119 698 q 328 740 207 740 q 571 664 494 740 q 648 378 648 589 l 648 222 q 707 40 648 77 q 660 -5 686 3 q 601 -14 634 -14 q 535 14 564 -14 q 496 73 506 41 m 479 342 q 414 351 436 351 q 214 219 214 351 q 327 121 214 121 q 479 274 479 121 l 479 342 m 316 824 l 163 1023 l 344 1023 l 458 824 l 316 824 z "},"â":{"ha":740,"x_min":44,"x_max":707,"o":"m 496 73 q 415 11 473 35 q 296 -14 358 -14 q 111 45 178 -14 q 44 212 44 104 q 139 409 44 338 q 408 480 233 480 q 478 470 437 480 q 316 598 478 598 q 156 566 220 598 l 119 698 q 328 740 207 740 q 571 664 494 740 q 648 378 648 589 l 648 222 q 707 40 648 77 q 660 -5 686 3 q 601 -14 634 -14 q 535 14 564 -14 q 496 73 506 41 m 479 342 q 414 351 436 351 q 214 219 214 351 q 327 121 214 121 q 479 274 479 121 l 479 342 m 491 824 l 385 925 l 290 824 l 109 824 l 350 1038 l 422 1038 l 672 824 l 491 824 z "},"ä":{"ha":740,"x_min":44,"x_max":707,"o":"m 496 73 q 415 11 473 35 q 296 -14 358 -14 q 111 45 178 -14 q 44 212 44 104 q 139 409 44 338 q 408 480 233 480 q 478 470 437 480 q 316 598 478 598 q 156 566 220 598 l 119 698 q 328 740 207 740 q 571 664 494 740 q 648 378 648 589 l 648 222 q 707 40 648 77 q 660 -5 686 3 q 601 -14 634 -14 q 535 14 564 -14 q 496 73 506 41 m 479 342 q 414 351 436 351 q 214 219 214 351 q 327 121 214 121 q 479 274 479 121 l 479 342 m 161 1017 q 230 989 201 1017 q 258 920 258 960 q 230 852 258 880 q 161 824 201 824 q 93 852 121 824 q 64 920 64 880 q 93 989 64 960 q 161 1017 121 1017 m 582 1017 q 650 989 622 1017 q 678 920 678 960 q 650 852 678 880 q 582 824 622 824 q 513 852 542 824 q 485 920 485 880 q 513 989 485 960 q 582 1017 542 1017 z "},"ã":{"ha":740,"x_min":44,"x_max":707,"o":"m 496 73 q 415 11 473 35 q 296 -14 358 -14 q 111 45 178 -14 q 44 212 44 104 q 139 409 44 338 q 408 480 233 480 q 478 470 437 480 q 316 598 478 598 q 156 566 220 598 l 119 698 q 328 740 207 740 q 571 664 494 740 q 648 378 648 589 l 648 222 q 707 40 648 77 q 660 -5 686 3 q 601 -14 634 -14 q 535 14 564 -14 q 496 73 506 41 m 479 342 q 414 351 436 351 q 214 219 214 351 q 327 121 214 121 q 479 274 479 121 l 479 342 m 208 804 l 109 804 q 161 929 122 881 q 258 978 200 978 q 363 952 311 978 q 431 926 416 926 q 490 978 473 926 l 591 978 q 528 840 565 877 q 434 804 490 804 q 338 830 392 804 q 268 856 284 856 q 208 804 233 856 z "},"å":{"ha":740,"x_min":44,"x_max":707,"o":"m 496 73 q 415 11 473 35 q 296 -14 358 -14 q 111 45 178 -14 q 44 212 44 104 q 139 409 44 338 q 408 480 233 480 q 478 470 437 480 q 316 598 478 598 q 156 566 220 598 l 119 698 q 328 740 207 740 q 571 664 494 740 q 648 378 648 589 l 648 222 q 707 40 648 77 q 660 -5 686 3 q 601 -14 634 -14 q 535 14 564 -14 q 496 73 506 41 m 479 342 q 414 351 436 351 q 214 219 214 351 q 327 121 214 121 q 479 274 479 121 l 479 342 m 342 825 q 221 864 271 825 q 172 968 172 903 q 223 1070 172 1029 q 342 1111 275 1111 q 463 1071 412 1111 q 513 968 513 1031 q 463 865 513 905 q 342 825 412 825 m 342 1032 q 291 1015 312 1032 q 270 967 270 998 q 342 902 270 902 q 414 967 414 902 q 342 1032 414 1032 z "},"ç":{"ha":711,"x_min":44,"x_max":667,"o":"m 661 669 l 589 542 q 429 598 529 598 q 276 534 332 598 q 220 357 220 470 q 438 128 220 128 q 604 191 532 128 l 667 57 q 537 -1 593 11 q 407 -14 482 -14 q 141 84 239 -14 q 44 357 44 182 q 151 634 44 528 q 441 740 257 740 q 661 669 568 740 m 241 -288 l 213 -202 q 260 -208 236 -208 q 349 -146 349 -208 q 335 -103 349 -124 q 300 -77 321 -82 l 358 -16 q 480 -157 480 -41 q 432 -259 480 -222 q 307 -296 384 -296 q 241 -288 273 -296 z "},"é":{"ha":798,"x_min":44,"x_max":754,"o":"m 740 311 l 221 311 q 281 176 226 224 q 429 128 336 128 q 605 189 545 128 l 671 59 q 404 -14 581 -14 q 141 84 237 -14 q 44 355 44 181 q 150 633 44 527 q 405 740 256 740 q 659 646 563 740 q 754 406 754 551 q 740 311 754 374 m 227 439 l 584 439 q 408 598 566 598 q 227 439 262 598 m 608 1023 l 455 824 l 326 824 l 441 1023 l 608 1023 z "},"è":{"ha":798,"x_min":44,"x_max":754,"o":"m 740 311 l 221 311 q 281 176 226 224 q 429 128 336 128 q 605 189 545 128 l 671 59 q 404 -14 581 -14 q 141 84 237 -14 q 44 355 44 181 q 150 633 44 527 q 405 740 256 740 q 659 646 563 740 q 754 406 754 551 q 740 311 754 374 m 227 439 l 584 439 q 408 598 566 598 q 227 439 262 598 m 391 824 l 237 1023 l 418 1023 l 533 824 l 391 824 z "},"ê":{"ha":798,"x_min":44,"x_max":754,"o":"m 740 311 l 221 311 q 281 176 226 224 q 429 128 336 128 q 605 189 545 128 l 671 59 q 404 -14 581 -14 q 141 84 237 -14 q 44 355 44 181 q 150 633 44 527 q 405 740 256 740 q 659 646 563 740 q 754 406 754 551 q 740 311 754 374 m 227 439 l 584 439 q 408 598 566 598 q 227 439 262 598 m 523 824 l 416 925 l 322 824 l 141 824 l 382 1038 l 454 1038 l 704 824 l 523 824 z "},"ë":{"ha":798,"x_min":44,"x_max":754,"o":"m 740 311 l 221 311 q 281 176 226 224 q 429 128 336 128 q 605 189 545 128 l 671 59 q 404 -14 581 -14 q 141 84 237 -14 q 44 355 44 181 q 150 633 44 527 q 405 740 256 740 q 659 646 563 740 q 754 406 754 551 q 740 311 754 374 m 227 439 l 584 439 q 408 598 566 598 q 227 439 262 598 m 189 1017 q 257 989 229 1017 q 285 920 285 960 q 257 852 285 880 q 189 824 229 824 q 120 852 149 824 q 92 920 92 880 q 120 989 92 960 q 189 1017 149 1017 m 609 1017 q 677 989 649 1017 q 705 920 705 960 q 677 852 705 880 q 609 824 649 824 q 541 852 569 824 q 512 920 512 880 q 541 989 512 960 q 609 1017 569 1017 z "},"í":{"ha":414,"x_min":47,"x_max":374,"o":"m 140 0 l 140 587 l 47 587 l 47 726 l 312 726 l 312 0 l 140 0 m 374 1023 l 221 824 l 92 824 l 207 1023 l 374 1023 z "},"ì":{"ha":414,"x_min":44,"x_max":340,"o":"m 137 0 l 137 587 l 44 587 l 44 726 l 309 726 l 309 0 l 137 0 m 197 824 l 44 1023 l 225 1023 l 340 824 l 197 824 z "},"î":{"ha":414,"x_min":-60,"x_max":503,"o":"m 137 0 l 137 587 l 44 587 l 44 726 l 309 726 l 309 0 l 137 0 m 321 824 l 215 925 l 121 824 l -60 824 l 180 1038 l 253 1038 l 503 824 l 321 824 z "},"ï":{"ha":414,"x_min":-105,"x_max":509,"o":"m 137 0 l 137 587 l 44 587 l 44 726 l 309 726 l 309 0 l 137 0 m -8 1017 q 60 989 32 1017 q 88 920 88 960 q 60 852 88 880 q -8 824 32 824 q -77 852 -48 824 q -105 920 -105 880 q -77 989 -105 960 q -8 1017 -48 1017 m 412 1017 q 480 989 452 1017 q 509 920 509 960 q 480 852 509 880 q 412 824 452 824 q 344 852 372 824 q 315 920 315 880 q 344 989 315 960 q 412 1017 372 1017 z "},"ñ":{"ha":820,"x_min":92,"x_max":728,"o":"m 559 0 l 559 420 q 523 555 559 513 q 407 598 488 598 q 327 577 370 598 q 261 525 285 556 l 261 0 l 92 0 l 92 726 l 214 726 l 245 659 q 449 740 314 740 q 653 662 578 740 q 728 446 728 585 l 728 0 l 559 0 m 269 804 l 170 804 q 222 929 183 881 q 319 978 261 978 q 425 952 372 978 q 492 926 477 926 q 551 978 534 926 l 652 978 q 589 840 626 877 q 495 804 551 804 q 399 830 453 804 q 329 856 345 856 q 269 804 294 856 z "},"ó":{"ha":786,"x_min":44,"x_max":742,"o":"m 44 365 q 140 635 44 531 q 393 740 236 740 q 650 640 559 740 q 742 365 742 539 q 649 89 742 191 q 393 -14 555 -14 q 136 90 228 -14 q 44 365 44 193 m 220 365 q 393 125 220 125 q 519 187 473 125 q 566 365 566 250 q 393 602 566 602 q 267 539 314 602 q 220 365 220 477 m 554 1023 l 401 824 l 272 824 l 387 1023 l 554 1023 z "},"ò":{"ha":786,"x_min":44,"x_max":742,"o":"m 44 365 q 140 635 44 531 q 393 740 236 740 q 650 640 559 740 q 742 365 742 539 q 649 89 742 191 q 393 -14 555 -14 q 136 90 228 -14 q 44 365 44 193 m 220 365 q 393 125 220 125 q 519 187 473 125 q 566 365 566 250 q 393 602 566 602 q 267 539 314 602 q 220 365 220 477 m 363 824 l 210 1023 l 391 1023 l 506 824 l 363 824 z "},"ô":{"ha":786,"x_min":44,"x_max":742,"o":"m 44 365 q 140 635 44 531 q 393 740 236 740 q 650 640 559 740 q 742 365 742 539 q 649 89 742 191 q 393 -14 555 -14 q 136 90 228 -14 q 44 365 44 193 m 220 365 q 393 125 220 125 q 519 187 473 125 q 566 365 566 250 q 393 602 566 602 q 267 539 314 602 q 220 365 220 477 m 491 824 l 385 925 l 290 824 l 109 824 l 350 1038 l 422 1038 l 672 824 l 491 824 z "},"ö":{"ha":786,"x_min":44,"x_max":742,"o":"m 44 365 q 140 635 44 531 q 393 740 236 740 q 650 640 559 740 q 742 365 742 539 q 649 89 742 191 q 393 -14 555 -14 q 136 90 228 -14 q 44 365 44 193 m 220 365 q 393 125 220 125 q 519 187 473 125 q 566 365 566 250 q 393 602 566 602 q 267 539 314 602 q 220 365 220 477 m 195 1017 q 263 989 235 1017 q 292 920 292 960 q 263 852 292 880 q 195 824 235 824 q 127 852 155 824 q 98 920 98 880 q 127 989 98 960 q 195 1017 155 1017 m 616 1017 q 684 989 656 1017 q 712 920 712 960 q 684 852 712 880 q 616 824 656 824 q 547 852 576 824 q 519 920 519 880 q 547 989 519 960 q 616 1017 576 1017 z "},"õ":{"ha":786,"x_min":44,"x_max":742,"o":"m 44 365 q 140 635 44 531 q 393 740 236 740 q 650 640 559 740 q 742 365 742 539 q 649 89 742 191 q 393 -14 555 -14 q 136 90 228 -14 q 44 365 44 193 m 220 365 q 393 125 220 125 q 519 187 473 125 q 566 365 566 250 q 393 602 566 602 q 267 539 314 602 q 220 365 220 477 m 262 804 l 163 804 q 215 929 176 881 q 312 978 254 978 q 418 952 365 978 q 486 926 471 926 q 545 978 527 926 l 645 978 q 582 840 619 877 q 488 804 545 804 q 392 830 446 804 q 322 856 338 856 q 262 804 287 856 z "},"ú":{"ha":821,"x_min":92,"x_max":729,"o":"m 559 -1 l 559 60 q 460 8 524 30 q 345 -14 397 -14 q 92 255 92 -14 l 92 726 l 261 726 l 261 268 q 387 128 261 128 q 494 158 444 128 q 559 227 543 188 l 559 726 l 729 726 l 729 -1 l 559 -1 m 588 1023 l 435 824 l 306 824 l 420 1023 l 588 1023 z "},"ù":{"ha":821,"x_min":92,"x_max":729,"o":"m 559 -1 l 559 60 q 460 8 524 30 q 345 -14 397 -14 q 92 255 92 -14 l 92 726 l 261 726 l 261 268 q 387 128 261 128 q 494 158 444 128 q 559 227 543 188 l 559 726 l 729 726 l 729 -1 l 559 -1 m 377 824 l 224 1023 l 405 1023 l 519 824 l 377 824 z "},"û":{"ha":821,"x_min":92,"x_max":729,"o":"m 559 -1 l 559 60 q 460 8 524 30 q 345 -14 397 -14 q 92 255 92 -14 l 92 726 l 261 726 l 261 268 q 387 128 261 128 q 494 158 444 128 q 559 227 543 188 l 559 726 l 729 726 l 729 -1 l 559 -1 m 511 824 l 405 925 l 311 824 l 130 824 l 370 1038 l 443 1038 l 692 824 l 511 824 z "},"ü":{"ha":821,"x_min":92,"x_max":729,"o":"m 559 -1 l 559 60 q 460 8 524 30 q 345 -14 397 -14 q 92 255 92 -14 l 92 726 l 261 726 l 261 268 q 387 128 261 128 q 494 158 444 128 q 559 227 543 188 l 559 726 l 729 726 l 729 -1 l 559 -1 m 202 1017 q 270 989 242 1017 q 298 920 298 960 q 270 852 298 880 q 202 824 242 824 q 134 852 162 824 q 105 920 105 880 q 134 989 105 960 q 202 1017 162 1017 m 623 1017 q 691 989 663 1017 q 719 920 719 960 q 691 852 719 880 q 623 824 663 824 q 554 852 583 824 q 526 920 526 880 q 554 989 526 960 q 623 1017 583 1017 z "},"†":{"ha":637,"x_min":10,"x_max":627,"o":"m 390 602 l 390 -159 l 320 -240 l 248 -159 l 248 602 l 10 602 l 10 734 l 248 734 l 248 939 l 390 939 l 390 734 l 627 734 l 627 602 l 390 602 z "},"°":{"ha":814,"x_min":262,"x_max":590,"o":"m 262 869 q 311 984 262 937 q 427 1031 359 1031 q 542 984 494 1031 q 590 869 590 937 q 542 754 590 802 q 427 707 494 707 q 311 754 359 707 q 262 869 262 802 m 353 869 q 374 817 353 839 q 427 795 396 795 q 479 817 457 795 q 500 869 500 839 q 479 922 500 900 q 427 943 457 943 q 374 922 396 943 q 353 869 353 900 z "},"¢":{"ha":814,"x_min":152,"x_max":634,"o":"m 512 732 l 595 732 l 555 635 q 630 594 596 621 l 568 487 q 510 522 543 511 l 382 205 q 454 193 414 193 q 581 245 522 193 l 634 131 q 533 84 576 95 q 431 74 490 74 q 335 87 379 74 l 305 12 l 222 12 l 264 118 q 152 358 152 192 q 234 571 152 490 q 456 652 315 652 q 479 652 468 652 l 512 732 m 321 258 l 431 532 q 298 358 298 521 q 321 258 298 297 z "},"£":{"ha":728,"x_min":69,"x_max":719,"o":"m 391 0 l 69 0 l 69 124 q 130 194 130 144 l 130 461 l 75 461 l 75 597 l 130 597 l 130 674 q 212 923 130 834 q 427 1011 294 1011 q 650 913 576 1011 l 562 793 q 411 863 508 863 q 307 680 307 863 l 307 597 l 441 597 l 441 461 l 307 461 l 307 157 l 437 157 q 523 174 490 157 q 592 239 556 191 l 719 143 q 391 0 635 0 z "},"§":{"ha":630,"x_min":37,"x_max":597,"o":"m 44 57 l 106 220 q 298 140 197 140 q 414 216 414 140 q 275 315 414 288 q 112 385 172 336 q 52 502 52 433 q 104 629 52 581 q 37 789 37 687 q 119 948 37 886 q 323 1010 201 1010 q 437 988 372 1010 q 543 932 502 966 l 473 785 q 402 834 446 814 q 327 854 359 854 q 220 784 220 854 q 231 752 220 766 q 258 731 241 739 q 342 707 275 723 q 516 628 464 680 q 568 492 568 576 q 524 376 568 425 q 597 229 597 322 q 518 48 597 112 q 305 -16 439 -16 q 44 57 148 -16 m 243 580 q 218 533 218 563 q 239 482 218 503 q 395 429 261 462 q 396 480 396 436 q 368 537 396 508 q 243 580 339 567 z "},"•":{"ha":728,"x_min":151,"x_max":584,"o":"m 151 389 q 215 542 151 479 q 368 606 278 606 q 520 542 457 606 q 584 389 584 479 q 520 236 584 300 q 368 173 457 173 q 215 236 278 173 q 151 389 151 300 z "},"¶":{"ha":728,"x_min":80,"x_max":632,"o":"m 528 -170 l 528 926 l 420 926 l 420 -170 l 316 -170 l 316 436 q 80 730 80 436 q 135 930 80 850 q 288 1010 190 1010 l 632 1010 l 632 -170 l 528 -170 z "},"ß":{"ha":759,"x_min":71,"x_max":725,"o":"m 330 8 l 363 142 q 416 134 416 134 q 549 302 549 134 q 538 372 549 340 q 507 426 527 403 q 408 508 487 450 q 330 629 330 566 q 381 695 330 652 q 433 788 433 739 q 339 874 433 874 q 263 833 285 874 q 241 682 241 793 l 241 -1 l 71 -1 l 71 747 q 140 949 71 875 q 321 1024 209 1024 q 520 970 448 1024 q 593 823 593 917 q 577 741 593 781 q 532 665 562 702 q 506 635 507 635 q 557 603 506 629 q 725 310 725 519 q 654 74 725 161 q 450 -14 583 -14 q 330 8 394 -14 z "},"®":{"ha":990,"x_min":51,"x_max":1006,"o":"m 51 448 q 191 786 51 646 q 529 926 331 926 q 867 786 727 926 q 1006 448 1006 646 q 867 110 1006 250 q 529 -30 727 -30 q 191 110 331 -30 q 51 448 51 250 m 166 448 q 273 192 166 298 q 529 85 379 85 q 785 192 679 85 q 891 448 891 298 q 785 704 891 598 q 529 810 679 810 q 272 704 378 810 q 166 448 166 598 m 637 181 l 509 400 l 464 400 l 464 181 l 354 181 l 354 727 l 503 727 q 705 568 705 727 q 614 421 705 469 l 760 181 l 637 181 m 503 628 l 464 628 l 464 494 q 550 498 528 494 q 584 516 573 501 q 595 563 595 532 q 503 628 595 628 z "},"©":{"ha":990,"x_min":51,"x_max":1006,"o":"m 51 448 q 191 786 51 646 q 529 926 331 926 q 867 786 727 926 q 1006 448 1006 646 q 867 110 1006 250 q 529 -30 727 -30 q 191 110 331 -30 q 51 448 51 250 m 166 448 q 273 192 166 298 q 529 85 379 85 q 785 192 679 85 q 891 448 891 298 q 785 704 891 598 q 529 810 679 810 q 272 704 378 810 q 166 448 166 598 m 686 695 l 648 599 q 535 633 602 633 q 441 582 477 633 q 406 446 406 530 q 443 318 406 366 q 536 270 480 270 q 646 332 598 270 l 709 247 q 529 170 631 170 q 359 248 421 170 q 296 450 296 325 q 362 651 296 570 q 534 732 429 732 q 686 695 623 732 z "},"™":{"ha":895,"x_min":82,"x_max":939,"o":"m 338 903 l 338 500 l 230 500 l 230 903 l 82 903 l 82 998 l 574 998 l 674 690 l 772 998 l 856 998 l 939 501 l 833 501 l 789 748 l 709 498 l 640 498 l 556 751 l 515 501 l 409 501 l 475 903 l 338 903 z "},"´":{"ha":814,"x_min":272,"x_max":554,"o":"m 554 1023 l 401 824 l 272 824 l 387 1023 l 554 1023 z "},"¨":{"ha":814,"x_min":98,"x_max":712,"o":"m 195 1017 q 263 989 235 1017 q 292 920 292 960 q 263 852 292 880 q 195 824 235 824 q 127 852 155 824 q 98 920 98 880 q 127 989 98 960 q 195 1017 155 1017 m 616 1017 q 684 989 656 1017 q 712 920 712 960 q 684 852 712 880 q 616 824 656 824 q 547 852 576 824 q 519 920 519 880 q 547 989 519 960 q 616 1017 576 1017 z "},"≠":{"ha":814,"x_min":118,"x_max":727,"o":"m 118 220 l 118 357 l 302 357 l 412 505 l 118 505 l 118 642 l 514 642 l 593 747 l 721 747 l 642 642 l 727 642 l 727 505 l 541 505 l 430 357 l 727 357 l 727 220 l 328 220 l 246 111 l 119 111 l 200 220 l 118 220 z "},"Æ":{"ha":1299,"x_min":1,"x_max":1258,"o":"m 800 837 l 800 604 l 1128 604 l 1128 454 l 800 454 l 800 157 l 1251 157 l 1251 0 l 624 0 l 624 201 l 321 201 l 197 0 l 1 0 l 604 994 l 1258 994 l 1258 837 l 800 837 m 624 336 l 624 730 l 385 336 l 624 336 z "},"Ø":{"ha":949,"x_min":41,"x_max":909,"o":"m 795 1011 l 909 1011 l 804 868 q 909 505 909 736 q 790 124 909 265 q 454 -17 672 -17 q 210 60 308 -17 l 154 -17 l 41 -17 l 145 125 q 41 505 41 264 q 157 864 41 718 q 468 1011 273 1011 q 738 932 632 1011 l 795 1011 m 260 281 l 637 795 q 468 854 575 854 q 287 760 350 854 q 224 505 224 665 q 260 281 224 371 m 692 715 l 312 198 q 454 140 368 140 q 656 233 587 140 q 726 505 726 327 q 692 715 726 635 z "},"∞":{"ha":814,"x_min":47,"x_max":761,"o":"m 404 359 q 235 273 327 273 q 100 323 153 273 q 47 455 47 373 q 103 582 47 529 q 233 635 159 635 q 403 558 330 635 q 576 635 475 635 q 708 585 655 635 q 761 455 761 534 q 707 322 761 372 q 567 273 653 273 q 404 359 479 273 m 471 456 q 574 383 530 383 q 648 455 648 383 q 625 507 648 486 q 567 527 602 527 q 518 504 547 527 q 471 456 488 481 m 338 456 q 270 519 287 511 q 242 527 254 527 q 161 455 161 527 q 235 383 161 383 q 338 456 279 383 z "},"±":{"ha":814,"x_min":111,"x_max":720,"o":"m 484 363 l 484 136 l 720 136 l 720 0 l 111 0 l 111 136 l 347 136 l 347 363 l 111 363 l 111 499 l 347 499 l 347 732 l 484 732 l 484 499 l 720 499 l 720 363 l 484 363 z "},"≤":{"ha":814,"x_min":111,"x_max":720,"o":"m 130 425 l 130 534 l 672 794 l 672 640 l 314 479 l 672 317 l 672 163 l 130 425 m 720 136 l 720 0 l 111 0 l 111 136 l 720 136 z "},"≥":{"ha":814,"x_min":111,"x_max":720,"o":"m 701 425 l 159 163 l 159 317 l 517 479 l 159 640 l 159 794 l 701 534 l 701 425 m 720 0 l 111 0 l 111 136 l 720 136 l 720 0 z "},"¥":{"ha":792,"x_min":-26,"x_max":819,"o":"m 170 353 l 309 353 l 309 408 l -26 994 l 160 994 l 396 570 l 632 994 l 819 994 l 485 408 l 485 353 l 627 353 l 627 221 l 485 221 l 485 0 l 309 0 l 309 221 l 170 221 l 170 353 z "},"μ":{"ha":760,"x_min":61,"x_max":699,"o":"m 231 -285 l 61 -285 l 61 726 l 231 726 l 231 268 q 356 128 231 128 q 463 158 414 128 q 529 227 513 188 l 529 726 l 699 726 l 699 -1 l 529 -1 l 529 60 q 328 -14 441 -14 q 231 16 270 -14 l 231 -285 z "},"∂":{"ha":814,"x_min":61,"x_max":752,"o":"m 437 724 q 298 839 405 778 q 104 901 192 901 l 144 1045 q 431 950 284 1045 q 665 703 577 856 q 752 378 752 551 q 651 97 752 208 q 387 -14 551 -14 q 146 76 232 -14 q 61 325 61 167 q 168 607 61 497 q 437 724 275 716 m 522 600 q 310 522 389 600 q 231 325 231 444 q 275 187 231 237 q 393 136 319 136 q 531 201 480 136 q 583 383 583 267 q 522 600 583 534 z "},"∑":{"ha":729,"x_min":39,"x_max":700,"o":"m 39 -117 l 39 25 l 307 498 l 39 863 l 39 994 l 673 994 l 673 836 l 263 836 l 518 500 l 251 40 l 700 40 l 700 -117 l 39 -117 z "},"∏":{"ha":884,"x_min":30,"x_max":850,"o":"m 762 836 l 762 -115 l 586 -115 l 586 836 l 294 836 l 294 -115 l 118 -115 l 118 836 l 30 836 l 30 994 l 850 994 l 850 836 l 762 836 z "},"π":{"ha":836,"x_min":51,"x_max":802,"o":"m 695 585 l 695 0 l 524 0 l 524 585 l 336 585 l 336 0 l 164 0 l 164 585 l 51 585 l 51 726 l 802 726 l 802 585 l 695 585 z "},"∫":{"ha":728,"x_min":-15,"x_max":723,"o":"m -15 -201 l 53 -105 q 168 -170 105 -170 q 245 -119 216 -170 q 275 -6 275 -69 l 275 722 q 350 934 275 844 q 533 1024 425 1024 q 723 955 642 1024 l 639 859 q 526 909 599 909 q 452 871 480 909 q 423 701 423 834 l 423 16 q 360 -198 423 -112 q 189 -285 297 -285 q -15 -201 68 -285 z "},"ª":{"ha":596,"x_min":100,"x_max":516,"o":"m 377 597 q 326 555 363 572 q 255 538 290 538 q 143 576 186 538 q 100 677 100 613 q 161 794 100 753 q 322 835 222 835 q 360 831 338 835 q 334 895 360 871 q 267 920 308 920 q 164 896 212 920 l 137 981 q 274 1011 199 1011 q 396 982 350 1011 q 460 897 443 952 q 477 670 477 841 q 516 570 477 597 q 439 538 486 538 q 377 597 396 538 m 361 753 q 326 757 335 757 q 216 688 216 757 q 273 627 216 627 q 361 708 361 627 l 361 753 z "},"º":{"ha":596,"x_min":71,"x_max":510,"o":"m 71 776 q 132 945 71 880 q 291 1011 192 1011 q 452 948 394 1011 q 510 776 510 884 q 451 604 510 669 q 291 538 393 538 q 130 603 189 538 q 71 776 71 668 m 197 776 q 291 642 197 642 q 384 776 384 642 q 291 907 384 907 q 197 776 197 907 z "},"Ω":{"ha":929,"x_min":31,"x_max":899,"o":"m 519 0 l 519 127 q 672 311 629 224 q 715 505 715 398 q 454 854 715 854 q 276 761 338 854 q 214 505 214 667 q 272 293 214 408 q 410 128 330 177 l 410 0 l 31 0 l 31 137 l 178 137 q 31 505 31 278 q 145 864 31 718 q 454 1011 260 1011 q 784 878 670 1011 q 899 505 899 744 q 741 137 899 276 l 899 137 l 899 0 l 519 0 z "},"æ":{"ha":1198,"x_min":34,"x_max":1175,"o":"m 469 342 q 404 351 435 351 q 203 219 203 351 q 317 121 203 121 q 469 274 469 121 l 469 342 m 1160 311 l 635 311 q 701 174 640 223 q 849 128 758 128 q 1025 189 964 128 l 1091 59 q 824 -14 1002 -14 q 642 31 695 -14 l 644 0 l 510 0 q 486 71 501 23 q 396 6 459 29 q 286 -14 343 -14 q 106 41 172 -14 q 34 212 34 101 q 150 423 34 353 q 397 480 245 480 q 468 470 432 480 q 306 599 468 599 q 146 566 212 599 l 109 698 q 317 740 197 740 q 581 640 510 740 q 825 740 683 740 q 1075 650 978 740 q 1175 406 1175 557 q 1160 311 1175 372 m 828 598 q 705 554 755 598 q 641 439 657 512 l 1004 439 q 828 598 987 598 z "},"ø":{"ha":786,"x_min":44,"x_max":742,"o":"m 742 740 l 659 630 q 742 365 742 531 q 649 89 742 191 q 393 -14 555 -14 q 205 33 284 -14 l 170 -14 l 44 -14 l 129 98 q 44 365 44 200 q 140 635 44 531 q 393 740 236 740 q 582 694 503 740 l 616 740 l 742 740 m 491 574 q 393 602 452 602 q 267 539 314 602 q 220 365 220 477 q 236 239 220 290 l 491 574 m 295 152 q 393 125 334 125 q 519 187 473 125 q 566 365 566 250 q 550 487 566 437 l 295 152 z "},"¿":{"ha":608,"x_min":70,"x_max":557,"o":"m 348 517 q 270 550 302 517 q 237 629 237 583 q 270 707 237 675 q 348 740 302 740 q 427 707 394 740 q 459 629 459 675 q 427 550 459 583 q 348 517 394 517 m 557 -216 q 327 -285 470 -285 q 144 -223 218 -285 q 70 -62 70 -162 q 90 40 70 -12 q 188 165 110 91 q 282 282 266 240 q 299 368 299 325 q 290 425 299 379 l 420 425 q 432 391 421 420 q 443 338 443 361 q 431 255 443 295 q 397 183 418 216 q 306 74 376 151 q 237 -51 237 -2 q 361 -146 237 -146 q 488 -85 422 -146 l 557 -216 z "},"¡":{"ha":510,"x_min":148,"x_max":370,"o":"m 259 517 q 180 550 213 517 q 148 629 148 583 q 180 707 148 675 q 259 740 213 740 q 337 707 305 740 q 370 629 370 675 q 337 550 370 583 q 259 517 305 517 m 342 -285 l 165 -285 l 165 -7 q 218 467 165 128 l 289 467 q 342 -7 342 128 l 342 -285 z "},"¬":{"ha":814,"x_min":111,"x_max":720,"o":"m 720 655 l 720 278 l 584 278 l 584 519 l 111 519 l 111 655 l 720 655 z "},"√":{"ha":814,"x_min":-6,"x_max":823,"o":"m 536 879 l 275 0 l 154 0 l -6 197 l 93 277 l 182 164 l 429 998 l 823 998 l 823 879 l 536 879 z "},"ƒ":{"ha":539,"x_min":-140,"x_max":593,"o":"m -140 -139 q -32 -98 -83 -128 q 24 -33 18 -67 l 132 600 q 28 586 85 598 l 58 735 l 158 736 q 472 1024 224 1024 q 593 998 511 1024 l 558 861 q 464 886 488 886 q 327 735 355 886 q 496 744 389 733 l 483 628 q 302 608 365 612 l 193 -40 q 121 -184 178 -128 q 1 -259 64 -240 q -82 -277 -63 -277 q -107 -250 -97 -277 l -121 -212 q -132 -181 -127 -195 q -138 -157 -136 -167 q -140 -139 -140 -146 z "},"≈":{"ha":814,"x_min":116,"x_max":673,"o":"m 215 420 l 116 420 q 169 551 130 501 q 265 601 208 601 q 330 594 298 601 q 464 556 363 587 q 513 549 492 549 q 572 601 554 549 l 673 601 q 609 458 646 496 q 516 420 572 420 q 451 427 484 420 q 353 453 418 433 q 275 472 288 472 q 215 420 240 472 m 215 155 l 116 155 q 169 287 130 237 q 265 336 208 336 q 330 330 298 336 q 464 292 363 323 q 513 284 492 284 q 572 336 554 284 l 673 336 q 609 194 646 232 q 516 155 572 155 q 451 162 484 155 q 353 188 418 169 q 275 208 288 208 q 215 155 240 208 z "},"Δ":{"ha":812,"x_min":-3,"x_max":817,"o":"m -3 0 l -3 104 l 360 994 l 486 994 l 817 104 l 817 0 l -3 0 m 418 730 l 194 150 l 628 150 l 418 730 z "},"«":{"ha":814,"x_min":67,"x_max":680,"o":"m 67 352 l 67 417 l 349 610 l 349 477 l 220 382 l 349 298 l 349 164 l 67 352 m 399 352 l 399 417 l 680 610 l 680 477 l 552 382 l 680 298 l 680 164 l 399 352 z "},"»":{"ha":814,"x_min":94,"x_max":707,"o":"m 94 164 l 94 298 l 222 382 l 94 477 l 94 610 l 376 417 l 376 352 l 94 164 m 426 164 l 426 298 l 554 382 l 426 477 l 426 610 l 707 417 l 707 352 l 426 164 z "},"…":{"ha":1020,"x_min":68,"x_max":952,"o":"m 271 89 q 241 17 271 47 q 170 -14 212 -14 q 98 17 127 -14 q 68 89 68 47 q 98 161 68 131 q 170 191 127 191 q 241 161 212 191 q 271 89 271 131 m 612 89 q 582 17 612 47 q 510 -14 552 -14 q 438 17 468 -14 q 408 89 408 47 q 438 161 408 131 q 510 191 468 191 q 582 161 552 191 q 612 89 612 131 m 952 89 q 922 17 952 47 q 850 -14 892 -14 q 779 17 808 -14 q 749 89 749 47 q 779 161 749 131 q 850 191 808 191 q 922 161 892 191 q 952 89 952 131 z "}," ":{"ha":418,"x_min":0,"x_max":0,"o":""},"À":{"ha":880,"x_min":3,"x_max":876,"o":"m 682 0 l 609 201 l 269 201 l 199 0 l 3 0 l 399 1007 l 477 1007 l 876 0 l 682 0 m 438 703 l 319 336 l 557 336 l 438 703 m 391 1075 l 237 1274 l 418 1274 l 533 1075 l 391 1075 z "},"Ã":{"ha":880,"x_min":3,"x_max":876,"o":"m 682 0 l 609 201 l 269 201 l 199 0 l 3 0 l 399 1007 l 477 1007 l 876 0 l 682 0 m 438 703 l 319 336 l 557 336 l 438 703 m 309 1055 l 211 1055 q 263 1180 224 1132 q 359 1229 302 1229 q 465 1203 412 1229 q 533 1177 518 1177 q 592 1229 574 1177 l 692 1229 q 629 1091 667 1128 q 536 1055 592 1055 q 440 1081 494 1055 q 370 1107 386 1107 q 309 1055 334 1107 z "},"Õ":{"ha":977,"x_min":54,"x_max":922,"o":"m 54 505 q 171 864 54 718 q 481 1011 287 1011 q 809 878 696 1011 q 922 505 922 745 q 804 124 922 265 q 468 -17 686 -17 q 161 123 268 -17 q 54 505 54 262 m 237 505 q 296 235 237 331 q 468 140 355 140 q 670 233 600 140 q 739 505 739 327 q 481 854 739 854 q 300 760 363 854 q 237 505 237 665 m 343 1055 l 245 1055 q 297 1180 258 1132 q 393 1229 336 1229 q 499 1203 446 1229 q 567 1177 552 1177 q 626 1229 608 1177 l 726 1229 q 663 1091 701 1128 q 570 1055 626 1055 q 474 1081 528 1055 q 404 1107 420 1107 q 343 1055 368 1107 z "},"Œ":{"ha":1394,"x_min":41,"x_max":1353,"o":"m 895 837 l 895 604 l 1223 604 l 1223 454 l 895 454 l 895 157 l 1345 157 l 1345 0 l 726 0 l 726 64 q 454 -17 618 -17 q 148 123 254 -17 q 41 505 41 262 q 157 864 41 718 q 468 1011 273 1011 q 726 940 624 1011 l 726 994 l 1353 994 l 1353 837 l 895 837 m 224 505 q 283 235 224 331 q 454 140 342 140 q 656 233 587 140 q 726 505 726 327 q 468 854 726 854 q 287 760 350 854 q 224 505 224 665 z "},"œ":{"ha":1279,"x_min":24,"x_max":1255,"o":"m 1241 311 l 722 311 q 782 176 727 224 q 930 128 837 128 q 1106 189 1046 128 l 1172 59 q 905 -14 1083 -14 q 633 94 729 -14 q 373 -14 538 -14 q 116 90 208 -14 q 24 365 24 193 q 120 635 24 531 q 373 740 216 740 q 643 624 551 740 q 906 740 749 740 q 1160 646 1064 740 q 1255 406 1255 551 q 1241 311 1255 374 m 200 365 q 373 125 200 125 q 499 187 452 125 q 545 365 545 250 q 373 602 545 602 q 247 539 294 602 q 200 365 200 477 m 728 439 l 1085 439 q 909 598 1067 598 q 728 439 764 598 z "},"–":{"ha":510,"x_min":43,"x_max":437,"o":"m 43 340 l 43 477 l 437 477 l 437 340 l 43 340 z "},"—":{"ha":1020,"x_min":43,"x_max":971,"o":"m 43 340 l 43 477 l 971 477 l 971 340 l 43 340 z "},"“":{"ha":814,"x_min":140,"x_max":701,"o":"m 332 1024 l 389 949 q 311 878 326 901 q 297 829 297 854 q 330 768 297 802 q 363 697 363 735 q 255 587 363 587 q 170 623 200 587 q 140 718 140 658 q 332 1024 140 905 m 644 1024 l 701 949 q 623 878 637 901 q 609 829 609 854 q 642 768 609 802 q 675 697 675 735 q 567 587 675 587 q 482 623 512 587 q 452 718 452 658 q 644 1024 452 905 z "},"”":{"ha":814,"x_min":121,"x_max":682,"o":"m 178 587 l 121 663 q 199 734 184 711 q 213 783 213 757 q 180 843 213 810 q 146 914 146 876 q 255 1024 146 1024 q 340 989 310 1024 q 370 894 370 954 q 178 587 370 707 m 490 587 l 433 663 q 511 734 496 711 q 525 783 525 757 q 492 843 525 810 q 458 914 458 876 q 567 1024 458 1024 q 652 989 622 1024 q 682 894 682 954 q 490 587 682 707 z "},"‘":{"ha":510,"x_min":140,"x_max":389,"o":"m 332 1024 l 389 949 q 311 878 326 901 q 297 829 297 854 q 330 768 297 802 q 363 697 363 735 q 255 587 363 587 q 170 623 200 587 q 140 718 140 658 q 332 1024 140 905 z "},"’":{"ha":510,"x_min":121,"x_max":370,"o":"m 178 587 l 121 663 q 199 734 184 711 q 213 783 213 757 q 180 843 213 810 q 146 914 146 876 q 255 1024 146 1024 q 340 989 310 1024 q 370 894 370 954 q 178 587 370 707 z "},"÷":{"ha":814,"x_min":111,"x_max":720,"o":"m 517 692 q 488 620 517 650 q 416 589 458 589 q 344 620 374 589 q 314 692 314 650 q 344 764 314 734 q 416 793 374 793 q 488 764 458 793 q 517 692 517 734 m 720 499 l 720 363 l 111 363 l 111 499 l 720 499 m 517 156 q 488 84 517 114 q 416 54 458 54 q 344 84 374 54 q 314 156 314 114 q 344 228 314 198 q 416 258 374 258 q 488 228 458 258 q 517 156 517 198 z "},"◊":{"ha":833,"x_min":-3,"x_max":834,"o":"m 416 12 l -3 431 l 416 849 l 834 431 l 416 12 m 416 681 l 165 431 l 416 180 l 665 431 l 416 681 z "},"ÿ":{"ha":741,"x_min":3,"x_max":731,"o":"m 413 -117 q 297 -237 386 -189 q 89 -285 208 -285 l 89 -135 q 285 -37 285 -135 q 231 163 285 28 l 3 726 l 179 726 l 377 224 l 555 726 l 731 726 l 413 -117 m 156 1017 q 224 989 196 1017 q 252 920 252 960 q 224 852 252 880 q 156 824 196 824 q 87 852 116 824 q 59 920 59 880 q 87 989 59 960 q 156 1017 116 1017 m 576 1017 q 645 989 616 1017 q 673 920 673 960 q 645 852 673 880 q 576 824 616 824 q 508 852 536 824 q 479 920 479 880 q 508 989 479 960 q 576 1017 536 1017 z "},"Ÿ":{"ha":852,"x_min":3,"x_max":848,"o":"m 515 408 l 515 0 l 338 0 l 338 408 l 3 994 l 191 994 l 426 570 l 662 994 l 848 994 l 515 408 m 222 1268 q 291 1240 262 1268 q 319 1171 319 1211 q 291 1103 319 1131 q 222 1075 262 1075 q 154 1103 182 1075 q 125 1171 125 1131 q 154 1240 125 1211 q 222 1268 182 1268 m 643 1268 q 711 1240 683 1268 q 739 1171 739 1211 q 711 1103 739 1131 q 643 1075 683 1075 q 574 1103 603 1075 q 546 1171 546 1131 q 574 1240 546 1211 q 643 1268 603 1268 z "},"⁄":{"ha":814,"x_min":46,"x_max":758,"o":"m 160 -24 l 46 -24 l 646 1011 l 758 1011 l 160 -24 z "},"€":{"ha":814,"x_min":43,"x_max":780,"o":"m 780 941 l 713 795 q 540 854 659 854 q 303 642 367 854 l 651 642 l 614 540 l 283 540 q 281 486 281 513 q 283 432 281 458 l 570 432 l 534 330 l 302 330 q 528 140 360 140 q 728 237 663 140 l 728 51 q 515 -17 648 -17 q 255 79 356 -17 q 130 330 161 169 l 43 330 l 43 432 l 116 432 q 115 540 112 489 l 43 540 l 43 642 l 130 642 q 264 901 165 802 q 530 1010 374 1010 q 780 941 686 1010 z "},"‹":{"ha":510,"x_min":96,"x_max":377,"o":"m 96 352 l 96 417 l 377 610 l 377 477 l 249 382 l 377 298 l 377 164 l 96 352 z "},"›":{"ha":510,"x_min":123,"x_max":404,"o":"m 123 164 l 123 298 l 251 382 l 123 477 l 123 610 l 404 417 l 404 352 l 123 164 z "},"ﬁ":{"ha":864,"x_min":24,"x_max":787,"o":"m 602 0 l 602 587 l 299 587 l 299 0 l 130 0 l 130 587 l 24 587 l 24 726 l 130 726 q 209 942 136 860 q 399 1024 283 1024 q 547 998 460 1024 l 496 869 q 411 887 441 887 q 329 846 363 887 q 296 744 296 804 q 296 726 296 735 l 773 726 l 773 0 l 602 0 m 689 1008 q 759 979 730 1008 q 787 909 787 950 q 759 840 787 869 q 689 811 730 811 q 620 840 648 811 q 591 909 591 869 q 620 979 591 950 q 689 1008 648 1008 z "},"ﬂ":{"ha":884,"x_min":24,"x_max":845,"o":"m 765 1038 l 765 221 q 845 61 765 87 q 711 -14 806 -14 q 595 146 595 -14 l 595 854 q 452 887 532 887 q 339 843 381 887 q 296 726 296 800 l 447 726 l 447 587 l 299 587 l 299 0 l 130 0 l 130 587 l 24 587 l 24 726 l 130 726 q 215 946 136 867 q 420 1024 293 1024 q 476 1021 448 1024 q 536 1012 505 1018 l 595 998 l 765 1038 z "},"‡":{"ha":637,"x_min":10,"x_max":627,"o":"m 390 150 l 390 -159 l 317 -245 l 248 -159 l 248 150 l 10 150 l 10 281 l 248 281 l 248 602 l 10 602 l 10 734 l 248 734 l 248 939 l 390 939 l 390 734 l 627 734 l 627 602 l 390 602 l 390 281 l 627 281 l 627 150 l 390 150 z "},"∙":{"ha":510,"x_min":118,"x_max":362,"o":"m 118 503 q 154 589 118 553 q 240 625 189 625 q 327 589 291 625 q 362 503 362 553 q 327 416 362 452 q 240 380 291 380 q 154 416 189 380 q 118 503 118 452 z "},"‚":{"ha":510,"x_min":121,"x_max":370,"o":"m 178 -249 l 121 -174 q 199 -102 184 -125 q 213 -54 213 -79 q 180 7 213 -26 q 146 78 146 40 q 255 188 146 188 q 340 153 310 188 q 370 58 370 117 q 178 -249 370 -130 z "},"„":{"ha":728,"x_min":87,"x_max":648,"o":"m 144 -249 l 87 -174 q 165 -102 151 -125 q 179 -54 179 -79 q 146 7 179 -26 q 113 78 113 40 q 221 188 113 188 q 306 153 276 188 q 336 58 336 117 q 144 -249 336 -130 m 456 -249 l 399 -174 q 477 -102 463 -125 q 491 -54 491 -79 q 458 7 491 -26 q 425 78 425 40 q 533 188 425 188 q 618 153 588 188 q 648 58 648 117 q 456 -249 648 -130 z "},"‰":{"ha":1438,"x_min":21,"x_max":1402,"o":"m 21 777 q 81 946 21 880 q 236 1011 142 1011 q 384 946 329 1011 q 439 764 439 881 q 381 590 439 656 q 230 524 323 524 q 21 777 21 524 m 147 770 q 169 666 147 703 q 224 629 191 629 q 313 770 313 629 q 234 905 313 905 q 147 770 147 905 m 227 -14 l 94 -14 l 717 1011 l 849 1011 l 227 -14 m 496 239 q 556 408 496 342 q 711 473 616 473 q 859 408 804 473 q 914 227 914 343 q 856 53 914 119 q 705 -14 798 -14 q 496 239 496 -14 m 622 233 q 643 129 622 165 q 699 92 665 92 q 788 233 788 92 q 709 368 788 368 q 622 233 622 368 m 984 239 q 1044 408 984 342 q 1199 473 1105 473 q 1347 408 1292 473 q 1402 227 1402 343 q 1344 53 1402 119 q 1193 -14 1286 -14 q 984 239 984 -14 m 1110 233 q 1132 129 1110 165 q 1187 92 1153 92 q 1276 233 1276 92 q 1197 368 1276 368 q 1110 233 1110 368 z "},"Â":{"ha":880,"x_min":3,"x_max":876,"o":"m 682 0 l 609 201 l 269 201 l 199 0 l 3 0 l 399 1007 l 477 1007 l 876 0 l 682 0 m 438 703 l 319 336 l 557 336 l 438 703 m 559 1075 l 452 1176 l 358 1075 l 177 1075 l 418 1289 l 490 1289 l 740 1075 l 559 1075 z "},"Ê":{"ha":790,"x_min":102,"x_max":736,"o":"m 278 837 l 278 604 l 606 604 l 606 454 l 278 454 l 278 157 l 728 157 l 728 0 l 102 0 l 102 994 l 736 994 l 736 837 l 278 837 m 518 1075 l 412 1176 l 317 1075 l 136 1075 l 377 1289 l 450 1289 l 699 1075 l 518 1075 z "},"Á":{"ha":880,"x_min":3,"x_max":876,"o":"m 682 0 l 609 201 l 269 201 l 199 0 l 3 0 l 399 1007 l 477 1007 l 876 0 l 682 0 m 438 703 l 319 336 l 557 336 l 438 703 m 635 1274 l 482 1075 l 353 1075 l 468 1274 l 635 1274 z "},"Ë":{"ha":790,"x_min":102,"x_max":736,"o":"m 278 837 l 278 604 l 606 604 l 606 454 l 278 454 l 278 157 l 728 157 l 728 0 l 102 0 l 102 994 l 736 994 l 736 837 l 278 837 m 202 1268 q 270 1240 242 1268 q 298 1171 298 1211 q 270 1103 298 1131 q 202 1075 242 1075 q 134 1103 162 1075 q 105 1171 105 1131 q 134 1240 105 1211 q 202 1268 162 1268 m 623 1268 q 691 1240 663 1268 q 719 1171 719 1211 q 691 1103 719 1131 q 623 1075 663 1075 q 554 1103 583 1075 q 526 1171 526 1131 q 554 1240 526 1211 q 623 1268 583 1268 z "},"È":{"ha":790,"x_min":102,"x_max":736,"o":"m 278 837 l 278 604 l 606 604 l 606 454 l 278 454 l 278 157 l 728 157 l 728 0 l 102 0 l 102 994 l 736 994 l 736 837 l 278 837 m 384 1075 l 231 1274 l 412 1274 l 526 1075 l 384 1075 z "},"Í":{"ha":387,"x_min":105,"x_max":387,"o":"m 105 0 l 105 994 l 281 994 l 281 0 l 105 0 m 387 1274 l 234 1075 l 105 1075 l 220 1274 l 387 1274 z "},"Î":{"ha":387,"x_min":-87,"x_max":475,"o":"m 105 0 l 105 994 l 281 994 l 281 0 l 105 0 m 294 1075 l 188 1176 l 94 1075 l -87 1075 l 153 1289 l 226 1289 l 475 1075 l 294 1075 z "},"Ï":{"ha":387,"x_min":-98,"x_max":515,"o":"m 105 0 l 105 994 l 281 994 l 281 0 l 105 0 m -1 1268 q 67 1240 39 1268 q 95 1171 95 1211 q 67 1103 95 1131 q -1 1075 39 1075 q -70 1103 -41 1075 q -98 1171 -98 1131 q -70 1240 -98 1211 q -1 1268 -41 1268 m 419 1268 q 487 1240 459 1268 q 515 1171 515 1211 q 487 1103 515 1131 q 419 1075 459 1075 q 351 1103 379 1075 q 322 1171 322 1131 q 351 1240 322 1211 q 419 1268 379 1268 z "},"Ì":{"ha":387,"x_min":10,"x_max":306,"o":"m 105 0 l 105 994 l 281 994 l 281 0 l 105 0 m 163 1075 l 10 1274 l 191 1274 l 306 1075 l 163 1075 z "},"Ó":{"ha":977,"x_min":54,"x_max":922,"o":"m 54 505 q 171 864 54 718 q 481 1011 287 1011 q 809 878 696 1011 q 922 505 922 745 q 804 124 922 265 q 468 -17 686 -17 q 161 123 268 -17 q 54 505 54 262 m 237 505 q 296 235 237 331 q 468 140 355 140 q 670 233 600 140 q 739 505 739 327 q 481 854 739 854 q 300 760 363 854 q 237 505 237 665 m 676 1274 l 523 1075 l 394 1075 l 509 1274 l 676 1274 z "},"Ô":{"ha":977,"x_min":54,"x_max":922,"o":"m 54 505 q 171 864 54 718 q 481 1011 287 1011 q 809 878 696 1011 q 922 505 922 745 q 804 124 922 265 q 468 -17 686 -17 q 161 123 268 -17 q 54 505 54 262 m 237 505 q 296 235 237 331 q 468 140 355 140 q 670 233 600 140 q 739 505 739 327 q 481 854 739 854 q 300 760 363 854 q 237 505 237 665 m 600 1075 l 493 1176 l 399 1075 l 218 1075 l 458 1289 l 531 1289 l 781 1075 l 600 1075 z "},"Ò":{"ha":977,"x_min":54,"x_max":922,"o":"m 54 505 q 171 864 54 718 q 481 1011 287 1011 q 809 878 696 1011 q 922 505 922 745 q 804 124 922 265 q 468 -17 686 -17 q 161 123 268 -17 q 54 505 54 262 m 237 505 q 296 235 237 331 q 468 140 355 140 q 670 233 600 140 q 739 505 739 327 q 481 854 739 854 q 300 760 363 854 q 237 505 237 665 m 452 1075 l 298 1274 l 479 1274 l 594 1075 l 452 1075 z "},"Ú":{"ha":941,"x_min":102,"x_max":840,"o":"m 102 994 l 278 994 l 278 320 q 327 190 278 240 q 461 140 376 140 q 610 189 557 140 q 663 323 663 238 l 663 994 l 840 994 l 840 310 q 737 70 840 157 q 463 -17 634 -17 q 196 68 290 -17 q 102 311 102 153 l 102 994 m 663 1274 l 509 1075 l 380 1075 l 495 1274 l 663 1274 z "},"Û":{"ha":941,"x_min":102,"x_max":840,"o":"m 102 994 l 278 994 l 278 320 q 327 190 278 240 q 461 140 376 140 q 610 189 557 140 q 663 323 663 238 l 663 994 l 840 994 l 840 310 q 737 70 840 157 q 463 -17 634 -17 q 196 68 290 -17 q 102 311 102 153 l 102 994 m 568 1075 l 461 1176 l 367 1075 l 186 1075 l 427 1289 l 499 1289 l 749 1075 l 568 1075 z "},"Ù":{"ha":941,"x_min":102,"x_max":840,"o":"m 102 994 l 278 994 l 278 320 q 327 190 278 240 q 461 140 376 140 q 610 189 557 140 q 663 323 663 238 l 663 994 l 840 994 l 840 310 q 737 70 840 157 q 463 -17 634 -17 q 196 68 290 -17 q 102 311 102 153 l 102 994 m 438 1075 l 285 1274 l 466 1274 l 581 1075 l 438 1075 z "},"ı":{"ha":414,"x_min":44,"x_max":309,"o":"m 137 0 l 137 587 l 44 587 l 44 726 l 309 726 l 309 0 l 137 0 z "},"ˆ":{"ha":814,"x_min":109,"x_max":672,"o":"m 491 824 l 385 925 l 290 824 l 109 824 l 350 1038 l 422 1038 l 672 824 l 491 824 z "},"˜":{"ha":814,"x_min":163,"x_max":645,"o":"m 262 804 l 163 804 q 215 929 176 881 q 312 978 254 978 q 418 952 365 978 q 486 926 471 926 q 545 978 527 926 l 645 978 q 582 840 619 877 q 488 804 545 804 q 392 830 446 804 q 322 856 338 856 q 262 804 287 856 z "},"ˉ":{"ha":814,"x_min":158,"x_max":659,"o":"m 659 947 l 659 824 l 158 824 l 158 947 l 659 947 z "},"˘":{"ha":814,"x_min":180,"x_max":629,"o":"m 629 1044 q 564 887 629 950 q 396 824 499 824 q 238 884 297 824 q 180 1044 180 945 l 275 1044 q 311 975 275 1001 q 396 949 347 949 q 495 974 457 949 q 532 1044 532 1000 l 629 1044 z "},"˙":{"ha":814,"x_min":290,"x_max":496,"o":"m 393 1029 q 466 999 435 1029 q 496 926 496 968 q 466 854 496 884 q 393 824 435 824 q 320 854 351 824 q 290 926 290 884 q 320 999 290 968 q 393 1029 351 1029 z "},"˚":{"ha":814,"x_min":239,"x_max":581,"o":"m 410 825 q 289 864 339 825 q 239 968 239 903 q 291 1070 239 1029 q 410 1111 342 1111 q 531 1071 480 1111 q 581 968 581 1031 q 531 865 581 905 q 410 825 480 825 m 410 1032 q 359 1015 380 1032 q 338 967 338 998 q 410 902 338 902 q 481 967 481 902 q 410 1032 481 1032 z "},"¸":{"ha":814,"x_min":288,"x_max":555,"o":"m 315 -288 l 288 -202 q 335 -208 311 -208 q 424 -146 424 -208 q 410 -103 424 -124 q 375 -77 396 -82 l 433 -16 q 555 -157 555 -41 q 507 -259 555 -222 q 382 -296 458 -296 q 315 -288 347 -296 z "},"˝":{"ha":814,"x_min":136,"x_max":703,"o":"m 418 1023 l 265 824 l 136 824 l 251 1023 l 418 1023 m 703 1023 l 550 824 l 421 824 l 536 1023 l 703 1023 z "},"˛":{"ha":814,"x_min":305,"x_max":621,"o":"m 448 97 l 498 0 q 449 -37 470 -9 q 429 -100 429 -65 q 454 -150 429 -130 q 513 -170 480 -170 q 577 -144 549 -170 l 621 -228 q 484 -267 568 -267 q 353 -227 401 -267 q 305 -122 305 -186 q 448 97 305 31 z "},"ˇ":{"ha":814,"x_min":109,"x_max":672,"o":"m 672 1038 l 422 824 l 350 824 l 109 1038 l 290 1038 l 385 937 l 491 1038 l 672 1038 z "},"Ł":{"ha":768,"x_min":14,"x_max":727,"o":"m 370 626 l 278 564 l 278 157 l 727 157 l 727 0 l 102 0 l 102 446 l 14 387 l 14 505 l 102 562 l 102 994 l 278 994 l 278 675 l 370 735 l 370 626 z "},"ł":{"ha":410,"x_min":29,"x_max":385,"o":"m 385 618 l 290 555 l 290 221 q 370 61 290 87 q 236 -14 331 -14 q 121 146 121 -14 l 121 443 l 29 382 l 29 500 l 121 559 l 121 997 l 290 1038 l 290 669 l 385 730 l 385 618 z "},"Š":{"ha":710,"x_min":54,"x_max":656,"o":"m 54 55 l 119 213 q 325 140 224 140 q 480 248 480 140 q 444 345 480 299 q 293 449 407 391 q 139 543 178 506 q 78 631 99 580 q 56 743 56 682 q 141 935 56 859 q 357 1010 225 1010 q 610 946 530 1010 l 557 794 q 361 861 464 861 q 266 828 300 861 q 233 745 233 796 q 422 567 233 659 q 566 477 522 518 q 633 381 610 436 q 656 260 656 327 q 561 61 656 139 q 305 -17 465 -17 q 54 55 166 -17 m 631 1289 l 382 1075 l 309 1075 l 68 1289 l 250 1289 l 344 1187 l 450 1289 l 631 1289 z "},"š":{"ha":598,"x_min":44,"x_max":607,"o":"m 77 47 l 137 182 q 309 121 213 121 q 408 192 408 121 q 378 260 408 233 q 262 322 348 286 q 74 541 74 400 q 146 687 74 635 q 330 740 218 740 q 543 689 443 740 l 494 557 q 339 605 438 605 q 250 534 250 605 q 279 484 250 507 q 404 424 309 462 q 542 333 500 387 q 584 203 584 279 q 509 44 584 102 q 305 -14 434 -14 q 189 -2 233 -14 q 77 47 145 10 m 607 1038 l 357 824 l 285 824 l 44 1038 l 225 1038 l 319 937 l 426 1038 l 607 1038 z "},"Ž":{"ha":778,"x_min":54,"x_max":724,"o":"m 54 0 l 54 57 l 469 837 l 61 837 l 61 994 l 709 994 l 709 937 l 293 157 l 724 157 l 724 0 l 54 0 m 672 1289 l 422 1075 l 350 1075 l 109 1289 l 290 1289 l 385 1187 l 491 1289 l 672 1289 z "},"ž":{"ha":734,"x_min":44,"x_max":690,"o":"m 44 0 l 44 58 l 438 578 l 51 578 l 51 726 l 686 726 l 686 667 l 306 148 l 690 148 l 690 0 l 44 0 m 652 1038 l 402 824 l 330 824 l 89 1038 l 270 1038 l 364 937 l 471 1038 l 652 1038 z "},"¦":{"ha":814,"x_min":342,"x_max":481,"o":"m 342 456 l 342 1024 l 481 1024 l 481 456 l 342 456 m 342 -285 l 342 283 l 481 283 l 481 -285 l 342 -285 z "},"Ð":{"ha":892,"x_min":18,"x_max":838,"o":"m 102 471 l 18 471 l 18 609 l 102 609 l 102 993 q 367 1000 313 1000 q 711 873 584 1000 q 838 536 838 746 q 322 0 838 0 l 102 0 l 102 471 m 371 609 l 371 471 l 278 471 l 278 161 q 370 157 321 157 q 579 254 504 157 q 655 525 655 351 q 359 844 655 844 q 278 839 330 844 l 278 609 l 371 609 z "},"ð":{"ha":786,"x_min":44,"x_max":742,"o":"m 452 740 q 389 835 425 783 l 288 782 l 249 851 l 341 897 q 193 1024 277 968 l 433 1024 q 484 969 457 1000 l 593 1029 l 633 964 l 529 908 q 697 603 653 724 q 742 370 742 481 q 650 92 742 197 q 393 -14 557 -14 q 137 91 229 -14 q 44 370 44 196 q 138 639 44 534 q 393 744 233 744 q 452 740 421 744 m 214 370 q 393 136 214 136 q 526 200 480 136 q 572 370 572 263 q 393 600 572 600 q 261 538 308 600 q 214 370 214 476 z "},"Ý":{"ha":852,"x_min":3,"x_max":848,"o":"m 515 408 l 515 0 l 338 0 l 338 408 l 3 994 l 191 994 l 426 570 l 662 994 l 848 994 l 515 408 m 622 1274 l 469 1075 l 340 1075 l 454 1274 l 622 1274 z "},"Þ":{"ha":774,"x_min":81,"x_max":741,"o":"m 258 223 l 258 0 l 81 0 l 81 993 l 258 994 l 258 857 q 288 858 275 858 q 632 786 523 858 q 741 560 741 713 q 338 218 741 218 q 258 223 308 218 m 258 698 l 258 380 q 328 375 302 375 q 505 415 449 375 q 560 547 560 456 q 311 701 560 701 q 258 698 283 701 z "},"þ":{"ha":809,"x_min":78,"x_max":751,"o":"m 248 18 l 248 -285 l 78 -285 l 78 997 l 248 1038 l 248 677 q 404 740 311 740 q 751 357 751 740 q 655 83 751 179 q 393 -14 559 -14 q 248 18 313 -14 m 248 549 l 248 167 q 355 130 294 130 q 524 185 473 130 q 575 362 575 241 q 524 544 575 491 q 356 596 473 596 q 248 549 295 596 z "},"−":{"ha":814,"x_min":111,"x_max":720,"o":"m 720 499 l 720 363 l 111 363 l 111 499 l 720 499 z "},"¹":{"ha":627,"x_min":150,"x_max":406,"o":"m 277 383 l 277 825 l 150 749 l 150 873 q 351 1023 291 945 l 406 1023 l 406 383 l 277 383 z "},"²":{"ha":627,"x_min":77,"x_max":511,"o":"m 104 383 l 104 426 l 288 711 q 343 852 343 797 q 319 895 343 876 q 263 914 295 914 q 151 846 192 914 l 77 916 q 273 1031 126 1031 q 420 984 368 1031 q 472 859 472 937 q 442 734 472 807 q 302 504 412 661 l 511 504 l 511 383 l 104 383 z "},"³":{"ha":630,"x_min":100,"x_max":485,"o":"m 100 441 l 162 549 q 266 498 208 498 q 356 574 356 498 q 258 665 356 665 l 231 665 l 231 774 l 256 774 q 336 848 336 774 q 262 909 336 909 q 174 865 214 909 l 117 962 q 268 1031 169 1031 q 409 983 354 1031 q 465 861 465 935 q 397 724 465 775 q 485 568 485 673 q 426 426 485 476 q 264 376 368 376 q 100 441 169 376 z "},"½":{"ha":1131,"x_min":58,"x_max":1090,"o":"m 185 383 l 185 825 l 58 749 l 58 873 q 259 1023 198 945 l 314 1023 l 314 383 l 185 383 m 258 -24 l 144 -24 l 743 1011 l 856 1011 l 258 -24 m 684 0 l 684 43 l 867 328 q 922 469 922 414 q 898 512 922 492 q 842 531 873 531 q 730 463 771 531 l 656 532 q 852 648 705 648 q 999 601 947 648 q 1051 475 1051 553 q 1021 351 1051 424 q 881 121 991 277 l 1090 121 l 1090 0 l 684 0 z "},"¼":{"ha":1131,"x_min":62,"x_max":1065,"o":"m 319 383 l 190 383 l 190 825 l 62 749 l 62 873 q 264 1023 202 944 l 319 1023 l 319 383 m 901 1011 l 303 -24 l 189 -24 l 789 1011 l 901 1011 m 1005 156 l 1005 0 l 876 0 l 876 156 l 605 156 l 605 231 l 937 640 l 1005 640 l 1005 260 l 1065 260 l 1065 156 l 1005 156 m 876 435 l 742 260 l 876 260 l 876 435 z "},"¾":{"ha":1131,"x_min":43,"x_max":1089,"o":"m 43 441 l 104 549 q 209 498 151 498 q 299 574 299 498 q 201 665 299 665 l 174 665 l 174 774 l 199 774 q 279 848 279 774 q 205 909 279 909 q 117 865 156 909 l 59 962 q 211 1031 112 1031 q 352 983 296 1031 q 408 861 408 935 q 340 724 408 775 q 428 568 428 673 q 369 427 428 477 q 208 376 310 376 q 43 441 112 376 m 924 1011 l 326 -24 l 212 -24 l 812 1011 l 924 1011 m 1029 156 l 1029 0 l 900 0 l 900 156 l 629 156 l 629 231 l 961 640 l 1029 640 l 1029 260 l 1089 260 l 1089 156 l 1029 156 m 900 435 l 766 260 l 900 260 l 900 435 z "},"µ":{"ha":760,"x_min":61,"x_max":699,"o":"m 231 -285 l 61 -285 l 61 726 l 231 726 l 231 268 q 356 128 231 128 q 463 158 414 128 q 529 227 513 188 l 529 726 l 699 726 l 699 -1 l 529 -1 l 529 60 q 328 -14 441 -14 q 231 16 270 -14 l 231 -285 z "},"Ω":{"ha":929,"x_min":31,"x_max":899,"o":"m 519 0 l 519 127 q 672 311 629 224 q 715 505 715 398 q 454 854 715 854 q 276 761 338 854 q 214 505 214 667 q 272 293 214 408 q 410 128 330 177 l 410 0 l 31 0 l 31 137 l 178 137 q 31 505 31 278 q 145 864 31 718 q 454 1011 260 1011 q 784 878 670 1011 q 899 505 899 744 q 741 137 899 276 l 899 137 l 899 0 l 519 0 z "},"∆":{"ha":812,"x_min":-3,"x_max":817,"o":"m -3 0 l -3 104 l 360 994 l 486 994 l 817 104 l 817 0 l -3 0 m 418 730 l 194 150 l 628 150 l 418 730 z "},"ý":{"ha":741,"x_min":3,"x_max":731,"o":"m 413 -117 q 297 -237 386 -189 q 89 -285 208 -285 l 89 -135 q 285 -37 285 -135 q 231 163 285 28 l 3 726 l 179 726 l 377 224 l 555 726 l 731 726 l 413 -117 m 554 1023 l 401 824 l 272 824 l 387 1023 l 554 1023 z "},"×":{"ha":814,"x_min":104,"x_max":730,"o":"m 515 427 l 728 213 l 631 117 l 418 330 l 203 115 l 106 211 l 321 426 l 104 644 l 200 740 l 418 522 l 633 737 l 730 642 l 515 427 z "},"­":{"ha":510,"x_min":74,"x_max":433,"o":"m 74 323 l 74 482 l 433 482 l 433 323 l 74 323 z "},"₣":{"ha":810,"x_min":26,"x_max":756,"o":"m 469 353 l 469 221 l 278 221 l 278 0 l 102 0 l 102 221 l 26 221 l 26 353 l 102 353 l 102 994 l 756 994 l 756 837 l 278 837 l 278 604 l 627 604 l 627 454 l 278 454 l 278 353 l 469 353 z "},"Ğ":{"ha":932,"x_min":54,"x_max":878,"o":"m 836 913 l 762 771 q 665 826 730 799 q 553 854 600 854 q 322 754 407 854 q 237 488 237 655 q 320 235 237 330 q 547 140 404 140 q 702 191 641 140 l 702 387 l 564 387 l 564 537 l 878 537 l 878 92 q 716 12 815 41 q 518 -17 616 -17 q 179 123 304 -17 q 54 493 54 263 q 191 867 54 723 q 557 1010 327 1010 q 836 913 721 1010 m 738 1295 q 673 1138 738 1201 q 505 1075 608 1075 q 347 1135 406 1075 q 288 1295 288 1196 l 384 1295 q 419 1226 384 1252 q 505 1200 455 1200 q 603 1225 566 1200 q 641 1295 641 1251 l 738 1295 z "},"ğ":{"ha":697,"x_min":34,"x_max":677,"o":"m 37 -186 l 144 -54 q 342 -136 233 -136 q 463 -114 416 -136 q 511 -54 511 -92 q 406 10 511 10 q 321 3 377 10 q 236 -3 264 -3 q 61 122 61 -3 q 90 193 61 158 q 158 243 119 227 q 34 472 34 324 q 119 665 34 589 q 330 741 205 741 q 493 705 427 741 l 559 782 l 677 675 l 596 616 q 638 466 638 553 q 563 268 638 342 q 372 193 487 193 q 323 197 353 193 l 295 201 q 259 186 290 201 q 227 156 227 172 q 274 129 227 129 q 345 139 295 129 q 429 149 394 149 q 677 -50 677 149 q 578 -222 677 -159 q 339 -285 479 -285 q 37 -186 172 -285 m 207 471 q 242 368 207 407 q 338 329 278 329 q 431 367 399 329 q 464 471 464 405 q 429 564 464 526 q 338 602 394 602 q 243 566 280 602 q 207 471 207 529 m 548 1044 q 483 887 548 950 q 315 824 418 824 q 157 884 216 824 q 98 1044 98 945 l 194 1044 q 230 975 194 1001 q 315 949 265 949 q 413 974 376 949 q 451 1044 451 1000 l 548 1044 z "},"İ":{"ha":387,"x_min":92,"x_max":298,"o":"m 105 0 l 105 994 l 281 994 l 281 0 l 105 0 m 195 1280 q 268 1250 237 1280 q 298 1177 298 1219 q 268 1105 298 1135 q 195 1075 237 1075 q 122 1105 153 1075 q 92 1177 92 1135 q 122 1250 92 1219 q 195 1280 153 1280 z "},"Ş":{"ha":710,"x_min":54,"x_max":656,"o":"m 54 55 l 119 213 q 325 140 224 140 q 480 248 480 140 q 444 345 480 299 q 293 449 407 391 q 139 543 178 506 q 78 631 99 580 q 56 743 56 682 q 141 935 56 859 q 357 1010 225 1010 q 610 946 530 1010 l 557 794 q 361 861 464 861 q 266 828 300 861 q 233 745 233 796 q 422 567 233 659 q 566 477 522 518 q 633 381 610 436 q 656 260 656 327 q 561 61 656 139 q 305 -17 465 -17 q 54 55 166 -17 m 214 -288 l 186 -202 q 233 -208 209 -208 q 322 -146 322 -208 q 308 -103 322 -124 q 273 -77 294 -82 l 331 -16 q 453 -157 453 -41 q 405 -259 453 -222 q 280 -296 357 -296 q 214 -288 245 -296 z "},"ş":{"ha":598,"x_min":44,"x_max":554,"o":"m 47 47 l 107 182 q 279 121 183 121 q 378 192 378 121 q 348 260 378 233 q 232 322 318 286 q 44 541 44 400 q 116 687 44 635 q 300 740 188 740 q 513 689 413 740 l 464 557 q 309 605 408 605 q 220 534 220 605 q 250 484 220 507 q 374 424 279 462 q 512 333 470 387 q 554 203 554 279 q 479 44 554 102 q 275 -14 404 -14 q 159 -2 203 -14 q 47 47 115 10 m 227 -288 l 199 -202 q 247 -208 222 -208 q 336 -146 336 -208 q 322 -103 336 -124 q 287 -77 308 -82 l 345 -16 q 467 -157 467 -41 q 418 -259 467 -222 q 294 -296 370 -296 q 227 -288 259 -296 z "},"Ć":{"ha":850,"x_min":54,"x_max":809,"o":"m 783 941 l 710 795 q 520 854 651 854 q 317 750 396 854 q 237 486 237 646 q 311 233 237 327 q 507 140 385 140 q 727 240 648 140 l 809 98 q 493 -17 701 -17 q 170 120 285 -17 q 54 494 54 257 q 182 862 54 714 q 509 1010 310 1010 q 783 941 680 1010 m 676 1274 l 523 1075 l 394 1075 l 509 1274 l 676 1274 z "},"ć":{"ha":711,"x_min":44,"x_max":667,"o":"m 661 669 l 589 542 q 429 598 529 598 q 276 534 332 598 q 220 357 220 470 q 438 128 220 128 q 604 191 532 128 l 667 57 q 537 -1 593 11 q 407 -14 482 -14 q 141 84 239 -14 q 44 357 44 182 q 151 634 44 528 q 441 740 257 740 q 661 669 568 740 m 568 1023 l 414 824 l 286 824 l 400 1023 l 568 1023 z "},"Č":{"ha":850,"x_min":54,"x_max":809,"o":"m 783 941 l 710 795 q 520 854 651 854 q 317 750 396 854 q 237 486 237 646 q 311 233 237 327 q 507 140 385 140 q 727 240 648 140 l 809 98 q 493 -17 701 -17 q 170 120 285 -17 q 54 494 54 257 q 182 862 54 714 q 509 1010 310 1010 q 783 941 680 1010 m 781 1289 l 531 1075 l 458 1075 l 218 1289 l 399 1289 l 493 1187 l 600 1289 l 781 1289 z "},"č":{"ha":711,"x_min":44,"x_max":672,"o":"m 661 669 l 589 542 q 429 598 529 598 q 276 534 332 598 q 220 357 220 470 q 438 128 220 128 q 604 191 532 128 l 667 57 q 537 -1 593 11 q 407 -14 482 -14 q 141 84 239 -14 q 44 357 44 182 q 151 634 44 528 q 441 740 257 740 q 661 669 568 740 m 672 1038 l 422 824 l 350 824 l 109 1038 l 290 1038 l 385 937 l 491 1038 l 672 1038 z "},"đ":{"ha":806,"x_min":58,"x_max":782,"o":"m 782 924 l 782 828 l 728 828 l 728 0 l 559 0 l 559 44 q 488 4 538 21 q 384 -14 437 -14 q 145 83 232 -14 q 58 351 58 179 q 158 632 58 524 q 408 740 258 740 q 559 706 491 740 l 559 828 l 361 828 l 361 924 l 559 924 l 559 997 l 728 1038 l 728 924 l 782 924 m 559 553 q 446 596 505 596 q 289 534 344 596 q 234 356 234 472 q 452 130 234 130 q 512 144 477 130 q 559 174 548 159 l 559 553 z "},"¯":{"ha":814,"x_min":-5,"x_max":819,"o":"m -5 994 l -5 1136 l 819 1136 l 819 994 l -5 994 z "},"·":{"ha":510,"x_min":139,"x_max":383,"o":"m 139 503 q 175 589 139 553 q 261 625 210 625 q 348 589 312 625 q 383 503 383 553 q 348 416 383 452 q 261 380 312 380 q 175 416 210 380 q 139 503 139 452 z "},"Ă":{"ha":880,"x_min":3,"x_max":876,"o":"m 682 0 l 609 201 l 269 201 l 199 0 l 3 0 l 399 1007 l 477 1007 l 876 0 l 682 0 m 438 703 l 319 336 l 557 336 l 438 703 m 650 1295 q 585 1138 650 1201 q 416 1075 519 1075 q 259 1135 317 1075 q 200 1295 200 1196 l 296 1295 q 331 1226 296 1252 q 416 1200 367 1200 q 515 1225 477 1200 q 553 1295 553 1251 l 650 1295 z "},"ă":{"ha":740,"x_min":44,"x_max":707,"o":"m 496 73 q 415 11 473 35 q 296 -14 358 -14 q 111 45 178 -14 q 44 212 44 104 q 139 409 44 338 q 408 480 233 480 q 478 470 437 480 q 316 598 478 598 q 156 566 220 598 l 119 698 q 328 740 207 740 q 571 664 494 740 q 648 378 648 589 l 648 222 q 707 40 648 77 q 660 -5 686 3 q 601 -14 634 -14 q 535 14 564 -14 q 496 73 506 41 m 479 342 q 414 351 436 351 q 214 219 214 351 q 327 121 214 121 q 479 274 479 121 l 479 342 m 562 1044 q 496 887 562 950 q 328 824 431 824 q 171 884 229 824 q 112 1044 112 945 l 208 1044 q 243 975 208 1001 q 328 949 279 949 q 427 974 389 949 q 465 1044 465 1000 l 562 1044 z "},"Ą":{"ha":880,"x_min":3,"x_max":969,"o":"m 681 1 l 609 201 l 269 201 l 199 0 l 3 0 l 399 1007 l 477 1007 l 876 0 l 846 0 q 804 -28 831 0 q 777 -100 777 -57 q 802 -150 777 -130 q 861 -170 828 -170 q 925 -144 897 -170 l 969 -228 q 832 -267 916 -267 q 701 -227 749 -267 q 653 -122 653 -186 q 681 1 653 -49 m 438 703 l 319 336 l 557 336 l 438 703 z "},"ą":{"ha":740,"x_min":44,"x_max":777,"o":"m 515 36 q 496 73 501 55 q 415 11 473 35 q 296 -14 358 -14 q 111 45 178 -14 q 44 212 44 104 q 139 409 44 338 q 408 480 233 480 q 478 470 437 480 q 316 598 478 598 q 156 566 220 598 l 119 698 q 328 740 207 740 q 571 664 494 740 q 648 378 648 589 l 648 222 q 707 40 648 77 q 671 0 688 9 q 630 -12 654 -9 q 585 -100 585 -45 q 610 -150 585 -130 q 669 -170 636 -170 q 733 -144 705 -170 l 777 -228 q 640 -267 724 -267 q 509 -227 557 -267 q 461 -122 461 -186 q 515 36 461 -22 m 479 342 q 414 351 436 351 q 214 219 214 351 q 327 121 214 121 q 479 274 479 121 l 479 342 z "},"Ď":{"ha":892,"x_min":102,"x_max":838,"o":"m 322 0 l 102 0 l 102 993 q 367 1000 313 1000 q 711 873 584 1000 q 838 536 838 746 q 322 0 838 0 m 278 839 l 278 161 q 370 157 321 157 q 579 254 504 157 q 655 525 655 351 q 359 844 655 844 q 278 839 330 844 m 692 1289 l 443 1075 l 370 1075 l 130 1289 l 311 1289 l 405 1187 l 511 1289 l 692 1289 z "},"ď":{"ha":1019,"x_min":44,"x_max":960,"o":"m 545 0 l 545 44 q 474 4 524 21 q 370 -14 424 -14 q 131 83 218 -14 q 44 351 44 179 q 144 632 44 524 q 395 740 244 740 q 545 706 477 740 l 545 997 l 715 1038 l 715 0 l 545 0 m 545 553 q 432 596 491 596 q 275 534 330 596 q 220 356 220 472 q 439 130 220 130 q 499 144 463 130 q 545 174 534 159 l 545 553 m 822 711 l 779 768 q 834 818 824 802 q 844 852 844 834 q 821 893 844 869 q 798 944 798 916 q 877 1024 798 1024 q 960 930 960 1024 q 822 711 960 797 z "},"Đ":{"ha":892,"x_min":18,"x_max":838,"o":"m 102 471 l 18 471 l 18 609 l 102 609 l 102 993 q 367 1000 313 1000 q 711 873 584 1000 q 838 536 838 746 q 322 0 838 0 l 102 0 l 102 471 m 371 609 l 371 471 l 278 471 l 278 161 q 370 157 321 157 q 579 254 504 157 q 655 525 655 351 q 359 844 655 844 q 278 839 330 844 l 278 609 l 371 609 z "},"Ę":{"ha":790,"x_min":102,"x_max":784,"o":"m 496 0 l 102 0 l 102 994 l 736 994 l 736 837 l 278 837 l 278 604 l 606 604 l 606 454 l 278 454 l 278 157 l 728 157 l 728 0 l 661 0 q 619 -28 646 0 q 591 -100 591 -57 q 617 -150 591 -130 q 676 -170 643 -170 q 740 -144 711 -170 l 784 -228 q 647 -267 731 -267 q 516 -227 564 -267 q 468 -122 468 -186 q 496 0 468 -50 z "},"ę":{"ha":798,"x_min":44,"x_max":754,"o":"m 341 -9 q 122 104 200 9 q 44 355 44 199 q 150 633 44 527 q 405 740 256 740 q 659 646 563 740 q 754 406 754 551 q 740 311 754 374 l 221 311 q 281 176 226 224 q 429 128 336 128 q 605 189 545 128 l 671 59 q 494 -8 607 7 q 442 -100 442 -39 q 468 -150 442 -130 q 527 -170 494 -170 q 591 -144 562 -170 l 635 -228 q 498 -267 582 -267 q 366 -226 414 -267 q 319 -115 319 -185 q 341 -9 319 -56 m 227 439 l 584 439 q 408 598 566 598 q 227 439 262 598 z "},"Ě":{"ha":790,"x_min":102,"x_max":736,"o":"m 278 837 l 278 604 l 606 604 l 606 454 l 278 454 l 278 157 l 728 157 l 728 0 l 102 0 l 102 994 l 736 994 l 736 837 l 278 837 m 706 1289 l 456 1075 l 384 1075 l 143 1289 l 324 1289 l 418 1187 l 525 1289 l 706 1289 z "},"ě":{"ha":798,"x_min":44,"x_max":754,"o":"m 740 311 l 221 311 q 281 176 226 224 q 429 128 336 128 q 605 189 545 128 l 671 59 q 404 -14 581 -14 q 141 84 237 -14 q 44 355 44 181 q 150 633 44 527 q 405 740 256 740 q 659 646 563 740 q 754 406 754 551 q 740 311 754 374 m 227 439 l 584 439 q 408 598 566 598 q 227 439 262 598 m 692 1038 l 443 824 l 370 824 l 130 1038 l 311 1038 l 405 937 l 511 1038 l 692 1038 z "},"Ĺ":{"ha":768,"x_min":102,"x_max":727,"o":"m 102 0 l 102 994 l 278 994 l 278 157 l 727 157 l 727 0 l 102 0 m 452 1274 l 299 1075 l 170 1075 l 285 1274 l 452 1274 z "},"ĺ":{"ha":410,"x_min":121,"x_max":405,"o":"m 121 997 l 290 1038 l 290 221 q 370 61 290 87 q 236 -14 331 -14 q 121 146 121 -14 l 121 997 m 405 1274 l 252 1075 l 123 1075 l 237 1274 l 405 1274 z "},"Ľ":{"ha":768,"x_min":102,"x_max":727,"o":"m 102 0 l 102 994 l 278 994 l 278 157 l 727 157 l 727 0 l 102 0 m 503 711 l 460 768 q 515 818 505 802 q 526 852 526 834 q 502 893 526 869 q 479 944 479 916 q 558 1024 479 1024 q 642 930 642 1024 q 503 711 642 797 z "},"ľ":{"ha":524,"x_min":121,"x_max":547,"o":"m 121 997 l 290 1038 l 290 221 q 370 61 290 87 q 236 -14 331 -14 q 121 146 121 -14 l 121 997 m 408 711 l 366 768 q 420 818 410 802 q 431 852 431 834 q 407 893 431 869 q 384 944 384 916 q 463 1024 384 1024 q 547 930 547 1024 q 408 711 547 797 z "},"Ŀ":{"ha":768,"x_min":102,"x_max":727,"o":"m 102 0 l 102 994 l 278 994 l 278 157 l 727 157 l 727 0 l 102 0 m 444 503 q 479 589 444 553 q 566 625 515 625 q 652 589 616 625 q 688 503 688 553 q 652 416 688 452 q 566 380 616 380 q 479 416 515 380 q 444 503 444 452 z "},"ŀ":{"ha":606,"x_min":121,"x_max":627,"o":"m 121 997 l 290 1038 l 290 221 q 370 61 290 87 q 236 -14 331 -14 q 121 146 121 -14 l 121 997 m 382 503 q 418 589 382 553 q 505 625 454 625 q 591 589 555 625 q 627 503 627 553 q 591 416 627 452 q 505 380 555 380 q 418 416 454 380 q 382 503 382 452 z "},"Ń":{"ha":927,"x_min":102,"x_max":825,"o":"m 753 -14 l 271 615 l 271 -1 l 102 -1 l 102 994 l 186 994 l 656 394 l 656 994 l 825 994 l 825 -14 l 753 -14 m 642 1274 l 489 1075 l 360 1075 l 475 1274 l 642 1274 z "},"ń":{"ha":820,"x_min":92,"x_max":728,"o":"m 559 0 l 559 420 q 523 555 559 513 q 407 598 488 598 q 327 577 370 598 q 261 525 285 556 l 261 0 l 92 0 l 92 726 l 214 726 l 245 659 q 449 740 314 740 q 653 662 578 740 q 728 446 728 585 l 728 0 l 559 0 m 608 1023 l 455 824 l 326 824 l 441 1023 l 608 1023 z "},"Ň":{"ha":927,"x_min":102,"x_max":825,"o":"m 753 -14 l 271 615 l 271 -1 l 102 -1 l 102 994 l 186 994 l 656 394 l 656 994 l 825 994 l 825 -14 l 753 -14 m 747 1289 l 497 1075 l 425 1075 l 184 1289 l 365 1289 l 459 1187 l 566 1289 l 747 1289 z "},"ň":{"ha":820,"x_min":92,"x_max":728,"o":"m 559 0 l 559 420 q 523 555 559 513 q 407 598 488 598 q 327 577 370 598 q 261 525 285 556 l 261 0 l 92 0 l 92 726 l 214 726 l 245 659 q 449 740 314 740 q 653 662 578 740 q 728 446 728 585 l 728 0 l 559 0 m 692 1038 l 443 824 l 370 824 l 130 1038 l 311 1038 l 405 937 l 511 1038 l 692 1038 z "},"Ő":{"ha":977,"x_min":54,"x_max":922,"o":"m 54 505 q 171 864 54 718 q 481 1011 287 1011 q 809 878 696 1011 q 922 505 922 745 q 804 124 922 265 q 468 -17 686 -17 q 161 123 268 -17 q 54 505 54 262 m 237 505 q 296 235 237 331 q 468 140 355 140 q 670 233 600 140 q 739 505 739 327 q 481 854 739 854 q 300 760 363 854 q 237 505 237 665 m 541 1274 l 387 1075 l 258 1075 l 373 1274 l 541 1274 m 825 1274 l 672 1075 l 543 1075 l 658 1274 l 825 1274 z "},"ő":{"ha":786,"x_min":44,"x_max":742,"o":"m 44 365 q 140 635 44 531 q 393 740 236 740 q 650 640 559 740 q 742 365 742 539 q 649 89 742 191 q 393 -14 555 -14 q 136 90 228 -14 q 44 365 44 193 m 220 365 q 393 125 220 125 q 519 187 473 125 q 566 365 566 250 q 393 602 566 602 q 267 539 314 602 q 220 365 220 477 m 446 1023 l 292 824 l 163 824 l 278 1023 l 446 1023 m 730 1023 l 577 824 l 448 824 l 563 1023 l 730 1023 z "},"Ŕ":{"ha":848,"x_min":102,"x_max":865,"o":"m 662 0 l 397 410 q 285 415 357 411 l 285 0 l 102 0 l 102 994 q 216 999 117 994 q 377 1004 316 1004 q 755 711 755 1004 q 703 550 755 623 q 572 448 651 477 l 865 0 l 662 0 m 285 840 l 285 564 q 359 560 334 560 q 521 591 470 560 q 572 713 572 623 q 517 815 572 786 q 345 844 463 844 q 285 840 316 844 m 568 1274 l 414 1075 l 286 1075 l 400 1274 l 568 1274 z "},"ŕ":{"ha":593,"x_min":92,"x_max":583,"o":"m 511 568 q 412 598 466 598 q 307 545 353 598 q 261 414 261 491 l 261 0 l 92 0 l 92 726 l 261 726 l 261 660 q 450 740 332 740 q 583 713 537 740 l 511 568 m 520 1023 l 367 824 l 238 824 l 353 1023 l 520 1023 z "},"Ř":{"ha":848,"x_min":102,"x_max":865,"o":"m 662 0 l 397 410 q 285 415 357 411 l 285 0 l 102 0 l 102 994 q 216 999 117 994 q 377 1004 316 1004 q 755 711 755 1004 q 703 550 755 623 q 572 448 651 477 l 865 0 l 662 0 m 285 840 l 285 564 q 359 560 334 560 q 521 591 470 560 q 572 713 572 623 q 517 815 572 786 q 345 844 463 844 q 285 840 316 844 m 679 1289 l 429 1075 l 357 1075 l 116 1289 l 297 1289 l 391 1187 l 498 1289 l 679 1289 z "},"ř":{"ha":593,"x_min":75,"x_max":638,"o":"m 511 568 q 412 598 466 598 q 307 545 353 598 q 261 414 261 491 l 261 0 l 92 0 l 92 726 l 261 726 l 261 660 q 450 740 332 740 q 583 713 537 740 l 511 568 m 638 1038 l 389 824 l 316 824 l 75 1038 l 256 1038 l 351 937 l 457 1038 l 638 1038 z "},"Ś":{"ha":710,"x_min":54,"x_max":656,"o":"m 54 55 l 119 213 q 325 140 224 140 q 480 248 480 140 q 444 345 480 299 q 293 449 407 391 q 139 543 178 506 q 78 631 99 580 q 56 743 56 682 q 141 935 56 859 q 357 1010 225 1010 q 610 946 530 1010 l 557 794 q 361 861 464 861 q 266 828 300 861 q 233 745 233 796 q 422 567 233 659 q 566 477 522 518 q 633 381 610 436 q 656 260 656 327 q 561 61 656 139 q 305 -17 465 -17 q 54 55 166 -17 m 534 1274 l 380 1075 l 252 1075 l 366 1274 l 534 1274 z "},"ś":{"ha":598,"x_min":44,"x_max":554,"o":"m 47 47 l 107 182 q 279 121 183 121 q 378 192 378 121 q 348 260 378 233 q 232 322 318 286 q 44 541 44 400 q 116 687 44 635 q 300 740 188 740 q 513 689 413 740 l 464 557 q 309 605 408 605 q 220 534 220 605 q 250 484 220 507 q 374 424 279 462 q 512 333 470 387 q 554 203 554 279 q 479 44 554 102 q 275 -14 404 -14 q 159 -2 203 -14 q 47 47 115 10 m 459 1023 l 306 824 l 177 824 l 292 1023 l 459 1023 z "},"Ț":{"ha":850,"x_min":14,"x_max":836,"o":"m 506 837 l 506 0 l 330 0 l 330 837 l 14 837 l 14 994 l 836 994 l 836 837 l 506 837 m 361 -374 l 318 -317 q 373 -267 363 -283 q 383 -233 383 -251 q 360 -192 383 -216 q 336 -141 336 -169 q 416 -61 336 -61 q 499 -155 499 -61 q 361 -374 499 -288 z "},"ț":{"ha":551,"x_min":33,"x_max":511,"o":"m 117 590 l 33 590 l 33 726 l 117 726 l 117 874 l 287 937 l 287 726 l 486 726 l 486 590 l 287 590 l 287 272 q 311 162 287 194 q 397 130 336 130 q 511 163 458 130 l 511 7 q 342 -14 452 -14 q 176 48 234 -14 q 117 222 117 109 l 117 590 m 266 -374 l 223 -317 q 278 -267 268 -283 q 288 -233 288 -251 q 265 -192 288 -216 q 241 -141 241 -169 q 321 -61 241 -61 q 404 -155 404 -61 q 266 -374 404 -288 z "},"Ť":{"ha":850,"x_min":14,"x_max":836,"o":"m 506 837 l 506 0 l 330 0 l 330 837 l 14 837 l 14 994 l 836 994 l 836 837 l 506 837 m 706 1289 l 456 1075 l 384 1075 l 143 1289 l 324 1289 l 418 1187 l 525 1289 l 706 1289 z "},"ť":{"ha":758,"x_min":33,"x_max":739,"o":"m 117 590 l 33 590 l 33 726 l 117 726 l 117 874 l 287 937 l 287 726 l 486 726 l 486 590 l 287 590 l 287 272 q 311 162 287 194 q 397 130 336 130 q 511 163 458 130 l 511 7 q 342 -14 452 -14 q 176 48 234 -14 q 117 222 117 109 l 117 590 m 600 622 l 557 680 q 612 729 602 713 q 623 763 623 745 q 599 804 623 781 q 576 855 576 827 q 655 935 576 935 q 739 841 739 935 q 600 622 739 708 z "},"Ů":{"ha":941,"x_min":102,"x_max":840,"o":"m 102 994 l 278 994 l 278 320 q 327 190 278 240 q 461 140 376 140 q 610 189 557 140 q 663 323 663 238 l 663 994 l 840 994 l 840 310 q 737 70 840 157 q 463 -17 634 -17 q 196 68 290 -17 q 102 311 102 153 l 102 994 m 471 1076 q 350 1115 400 1076 q 300 1219 300 1154 q 352 1321 300 1280 q 471 1362 404 1362 q 592 1322 541 1362 q 642 1219 642 1282 q 592 1116 642 1156 q 471 1076 541 1076 m 471 1283 q 420 1266 441 1283 q 399 1218 399 1249 q 471 1153 399 1153 q 543 1218 543 1153 q 471 1283 543 1283 z "},"ů":{"ha":821,"x_min":92,"x_max":729,"o":"m 559 -1 l 559 60 q 460 8 524 30 q 345 -14 397 -14 q 92 255 92 -14 l 92 726 l 261 726 l 261 268 q 387 128 261 128 q 494 158 444 128 q 559 227 543 188 l 559 726 l 729 726 l 729 -1 l 559 -1 m 410 825 q 289 864 339 825 q 239 968 239 903 q 291 1070 239 1029 q 410 1111 342 1111 q 531 1071 480 1111 q 581 968 581 1031 q 531 865 581 905 q 410 825 480 825 m 410 1032 q 359 1015 380 1032 q 338 967 338 998 q 410 902 338 902 q 481 967 481 902 q 410 1032 481 1032 z "},"Ű":{"ha":941,"x_min":102,"x_max":840,"o":"m 102 994 l 278 994 l 278 320 q 327 190 278 240 q 461 140 376 140 q 610 189 557 140 q 663 323 663 238 l 663 994 l 840 994 l 840 310 q 737 70 840 157 q 463 -17 634 -17 q 196 68 290 -17 q 102 311 102 153 l 102 994 m 520 1274 l 367 1075 l 238 1075 l 353 1274 l 520 1274 m 805 1274 l 652 1075 l 523 1075 l 637 1274 l 805 1274 z "},"ű":{"ha":821,"x_min":92,"x_max":737,"o":"m 559 -1 l 559 60 q 460 8 524 30 q 345 -14 397 -14 q 92 255 92 -14 l 92 726 l 261 726 l 261 268 q 387 128 261 128 q 494 158 444 128 q 559 227 543 188 l 559 726 l 729 726 l 729 -1 l 559 -1 m 452 1023 l 299 824 l 170 824 l 285 1023 l 452 1023 m 737 1023 l 584 824 l 455 824 l 570 1023 l 737 1023 z "},"Ź":{"ha":778,"x_min":54,"x_max":724,"o":"m 54 0 l 54 57 l 469 837 l 61 837 l 61 994 l 709 994 l 709 937 l 293 157 l 724 157 l 724 0 l 54 0 m 554 1274 l 401 1075 l 272 1075 l 387 1274 l 554 1274 z "},"ź":{"ha":734,"x_min":44,"x_max":690,"o":"m 44 0 l 44 58 l 438 578 l 51 578 l 51 726 l 686 726 l 686 667 l 306 148 l 690 148 l 690 0 l 44 0 m 541 1023 l 387 824 l 258 824 l 373 1023 l 541 1023 z "},"Ż":{"ha":778,"x_min":54,"x_max":724,"o":"m 54 0 l 54 57 l 469 837 l 61 837 l 61 994 l 709 994 l 709 937 l 293 157 l 724 157 l 724 0 l 54 0 m 387 1280 q 459 1250 429 1280 q 489 1177 489 1219 q 459 1105 489 1135 q 387 1075 429 1075 q 314 1105 344 1075 q 283 1177 283 1135 q 314 1250 283 1219 q 387 1280 344 1280 z "},"ż":{"ha":734,"x_min":44,"x_max":690,"o":"m 44 0 l 44 58 l 438 578 l 51 578 l 51 726 l 686 726 l 686 667 l 306 148 l 690 148 l 690 0 l 44 0 m 353 1029 q 425 999 395 1029 q 455 926 455 968 q 425 854 455 884 q 353 824 395 824 q 280 854 310 824 q 250 926 250 884 q 280 999 250 968 q 353 1029 310 1029 z "},"¤":{"ha":814,"x_min":46,"x_max":755,"o":"m 669 138 l 570 238 q 401 187 490 187 q 231 238 312 187 l 132 138 l 46 227 l 146 325 q 96 492 96 408 q 146 659 96 576 l 46 757 l 132 846 l 232 746 q 401 797 312 797 q 570 747 490 797 l 669 846 l 755 757 l 656 659 q 706 492 706 576 q 656 325 706 408 l 755 227 l 669 138 m 218 492 q 271 362 218 416 q 400 309 323 309 q 529 363 475 309 q 583 492 583 416 q 529 622 583 568 q 400 675 476 675 q 271 622 323 675 q 218 492 218 568 z "},";":{"ha":510,"x_min":89,"x_max":370,"o":"m 118 637 q 153 724 118 688 q 240 760 189 760 q 328 724 292 760 q 363 637 363 688 q 327 551 363 587 q 240 515 290 515 q 154 552 190 515 q 118 637 118 588 m 147 -254 l 89 -179 q 214 -33 214 -87 q 200 5 214 -16 q 135 93 135 37 q 170 161 135 136 q 253 187 205 187 q 335 153 300 187 q 370 69 370 118 q 332 -84 370 -13 q 147 -254 294 -155 z "},"΄":{"ha":814,"x_min":282,"x_max":532,"o":"m 532 1092 l 412 868 l 282 868 l 355 1092 l 532 1092 z "},"΅":{"ha":814,"x_min":87,"x_max":726,"o":"m 468 1051 l 447 823 l 364 823 l 340 1051 l 468 1051 m 628 1022 q 697 994 668 1022 q 726 926 726 966 q 697 858 726 887 q 629 829 669 829 q 561 858 589 829 q 532 926 532 886 q 559 995 532 967 q 628 1022 587 1022 m 281 926 l 282 926 q 254 858 282 886 q 186 829 226 829 q 117 858 146 829 q 87 926 87 886 q 116 995 87 967 q 184 1022 144 1022 q 253 995 225 1022 q 281 926 281 967 z "},"Ά":{"ha":893,"x_min":17,"x_max":890,"o":"m 696 0 l 623 201 l 282 201 l 214 0 l 17 0 l 414 1007 l 490 1007 l 890 0 l 696 0 m 452 703 l 332 336 l 571 336 l 452 703 m 261 993 l 153 745 l 25 745 l 93 993 l 261 993 z "},"·":{"ha":510,"x_min":118,"x_max":363,"o":"m 118 503 q 154 589 118 553 q 240 625 191 625 q 327 589 290 625 q 363 503 363 553 q 327 416 363 452 q 240 379 291 379 q 154 416 189 379 q 118 503 118 453 z "},"Έ":{"ha":957,"x_min":-71,"x_max":903,"o":"m 444 838 l 444 604 l 774 604 l 774 454 l 444 454 l 444 157 l 895 157 l 895 0 l 268 0 l 268 993 l 903 993 l 903 838 l 444 838 m 165 993 l 57 745 l -71 745 l -3 993 l 165 993 z "},"Ή":{"ha":1117,"x_min":-71,"x_max":1014,"o":"m 840 0 l 840 447 l 444 447 l 444 0 l 268 0 l 268 993 l 444 993 l 444 604 l 840 604 l 840 993 l 1014 993 l 1014 0 l 840 0 m 165 993 l 57 745 l -71 745 l -3 993 l 165 993 z "},"Ί":{"ha":549,"x_min":-71,"x_max":444,"o":"m 268 0 l 268 993 l 444 993 l 444 0 l 268 0 m 165 993 l 57 745 l -71 745 l -3 993 l 165 993 z "},"Ό":{"ha":1071,"x_min":-71,"x_max":1017,"o":"m 149 505 q 207 772 149 656 q 357 949 265 888 q 576 1011 449 1011 q 903 879 789 1011 q 1017 505 1017 747 q 898 123 1017 262 q 562 -17 779 -17 q 254 124 360 -17 q 149 505 149 264 m 332 505 q 392 232 332 324 q 562 140 452 140 q 764 233 694 140 q 833 505 833 325 q 576 854 833 854 q 395 760 458 854 q 332 505 332 666 m 165 993 l 57 745 l -71 745 l -3 993 l 165 993 z "},"Ύ":{"ha":1076,"x_min":-71,"x_max":1074,"o":"m 741 407 l 741 0 l 564 0 l 564 407 l 228 993 l 415 993 l 652 570 l 888 993 l 1074 993 l 741 407 m 165 993 l 57 745 l -71 745 l -3 993 l 165 993 z "},"Ώ":{"ha":1103,"x_min":-71,"x_max":1057,"o":"m 657 0 l 657 54 q 803 289 751 172 q 854 539 854 405 q 788 777 854 692 q 600 861 721 861 q 414 774 480 861 q 347 546 347 687 q 398 301 347 419 q 547 54 450 182 l 547 0 l 144 0 l 144 151 q 318 136 229 151 q 164 543 164 331 q 285 882 164 747 q 606 1018 406 1018 q 925 890 812 1018 q 1038 543 1038 762 q 997 338 1038 446 q 882 136 957 230 q 1057 150 964 150 l 1057 0 l 657 0 m 165 993 l 57 745 l -71 745 l -3 993 l 165 993 z "},"ΐ":{"ha":403,"x_min":-127,"x_max":505,"o":"m 371 65 q 228 -12 328 -12 q 104 151 104 -12 l 104 726 l 275 726 l 275 229 q 297 119 275 157 q 371 65 319 81 m 253 1051 l 231 823 l 147 823 l 125 1051 l 253 1051 m 408 1022 q 477 994 448 1022 q 505 926 505 966 q 476 858 505 887 q 408 829 448 829 q 340 858 368 829 q 313 926 313 886 q 340 995 313 967 q 408 1022 368 1022 m -31 1022 q 38 995 10 1022 q 65 926 65 967 q 37 858 65 886 q -31 829 9 829 q -99 858 -71 829 q -127 926 -127 886 q -100 995 -127 967 q -31 1022 -72 1022 z "},"Α":{"ha":879,"x_min":3,"x_max":876,"o":"m 682 0 l 608 201 l 268 201 l 200 0 l 3 0 l 400 1007 l 476 1007 l 876 0 l 682 0 m 437 703 l 318 336 l 557 336 l 437 703 z "},"Β":{"ha":827,"x_min":102,"x_max":772,"o":"m 406 0 l 102 0 l 102 993 q 383 1003 336 1003 q 625 937 537 1003 q 713 747 713 870 q 587 561 713 629 q 772 294 772 497 q 670 79 772 159 q 406 0 568 0 m 278 851 l 278 614 q 364 611 331 611 q 536 741 536 611 q 379 856 536 856 q 278 851 338 856 m 278 476 l 278 147 q 366 143 332 143 q 532 181 476 143 q 589 317 589 218 q 540 439 589 400 q 367 478 492 478 q 278 476 319 478 z "},"Γ":{"ha":757,"x_min":102,"x_max":720,"o":"m 720 838 l 278 838 l 278 0 l 102 0 l 102 993 l 720 993 l 720 838 z "},"Ε":{"ha":790,"x_min":102,"x_max":736,"o":"m 278 838 l 278 604 l 607 604 l 607 454 l 278 454 l 278 157 l 728 157 l 728 0 l 102 0 l 102 993 l 736 993 l 736 838 l 278 838 z "},"Ζ":{"ha":778,"x_min":54,"x_max":724,"o":"m 54 0 l 54 57 l 468 838 l 61 838 l 61 993 l 708 993 l 708 936 l 293 157 l 724 157 l 724 0 l 54 0 z "},"Η":{"ha":950,"x_min":102,"x_max":847,"o":"m 673 0 l 673 447 l 278 447 l 278 0 l 102 0 l 102 993 l 278 993 l 278 604 l 673 604 l 673 993 l 847 993 l 847 0 l 673 0 z "},"Θ":{"ha":997,"x_min":54,"x_max":943,"o":"m 54 505 q 173 862 54 712 q 505 1011 292 1011 q 829 876 715 1011 q 943 505 943 741 q 826 131 943 279 q 492 -17 709 -17 q 164 128 274 -17 q 54 505 54 273 m 232 505 q 300 231 232 325 q 496 136 368 136 q 697 235 630 136 q 765 505 765 334 q 501 859 765 859 q 300 758 368 859 q 232 505 232 656 m 686 432 l 311 432 l 311 583 l 686 583 l 686 432 z "},"Ι":{"ha":386,"x_min":106,"x_max":282,"o":"m 106 0 l 106 993 l 282 993 l 282 0 l 106 0 z "},"Κ":{"ha":857,"x_min":102,"x_max":876,"o":"m 665 0 l 389 424 l 278 272 l 278 0 l 102 0 l 102 993 l 278 993 l 278 518 l 615 993 l 817 993 l 505 559 l 876 0 l 665 0 z "},"Λ":{"ha":873,"x_min":5,"x_max":868,"o":"m 868 0 l 665 0 l 433 671 l 204 0 l 5 0 l 395 1007 l 476 1007 l 868 0 z "},"Μ":{"ha":1035,"x_min":14,"x_max":1028,"o":"m 1028 0 l 857 0 l 754 534 l 554 -14 l 492 -14 l 290 534 l 183 0 l 14 0 l 214 993 l 307 993 l 522 323 l 732 993 l 825 993 l 1028 0 z "},"Ν":{"ha":926,"x_min":102,"x_max":825,"o":"m 753 -14 l 271 615 l 271 0 l 102 0 l 102 993 l 186 993 l 656 395 l 656 993 l 825 993 l 825 -14 l 753 -14 z "},"Ξ":{"ha":876,"x_min":69,"x_max":807,"o":"m 807 0 l 69 0 l 69 149 l 353 149 l 353 460 l 146 460 l 146 600 l 353 600 l 353 846 l 78 846 l 78 993 l 799 993 l 799 846 l 524 846 l 524 600 l 730 600 l 730 460 l 524 460 l 524 149 l 807 149 l 807 0 z "},"Ο":{"ha":977,"x_min":54,"x_max":922,"o":"m 54 505 q 171 864 54 717 q 482 1011 287 1011 q 808 879 694 1011 q 922 505 922 747 q 804 123 922 262 q 468 -17 685 -17 q 160 124 266 -17 q 54 505 54 264 m 237 505 q 297 232 237 324 q 468 140 357 140 q 670 233 600 140 q 739 505 739 325 q 482 854 739 854 q 300 760 363 854 q 237 505 237 666 z "},"Π":{"ha":922,"x_min":102,"x_max":821,"o":"m 821 0 l 644 0 l 644 838 l 278 838 l 278 0 l 102 0 l 102 993 l 821 993 l 821 0 z "},"Ρ":{"ha":815,"x_min":102,"x_max":761,"o":"m 278 366 l 278 0 l 102 0 l 102 993 q 309 1000 296 1000 q 651 928 541 1000 q 761 703 761 857 q 358 361 761 361 q 278 366 328 361 m 278 840 l 278 522 q 349 518 323 518 q 525 558 469 518 q 581 689 581 597 q 332 843 581 843 q 278 840 294 843 z "},"Σ":{"ha":808,"x_min":40,"x_max":754,"o":"m 754 838 l 367 838 l 596 546 l 318 157 l 750 157 l 750 0 l 40 0 l 40 57 l 393 529 l 66 937 l 66 993 l 754 993 l 754 838 z "},"Τ":{"ha":850,"x_min":14,"x_max":836,"o":"m 505 838 l 505 0 l 329 0 l 329 838 l 14 838 l 14 993 l 836 993 l 836 838 l 505 838 z "},"Υ":{"ha":851,"x_min":3,"x_max":848,"o":"m 515 407 l 515 0 l 339 0 l 339 407 l 3 993 l 191 993 l 427 570 l 663 993 l 848 993 l 515 407 z "},"Φ":{"ha":1104,"x_min":52,"x_max":1053,"o":"m 640 930 q 944 808 836 919 q 1053 511 1053 697 q 943 214 1053 332 q 640 83 833 97 l 640 -20 l 465 -20 l 465 83 q 161 205 270 95 q 52 501 52 316 q 162 799 52 681 q 465 930 273 917 l 465 1034 l 640 1034 l 640 930 m 468 220 l 468 796 q 224 505 224 764 q 288 310 224 386 q 468 220 351 234 m 637 218 q 880 509 880 249 q 817 704 880 629 q 637 794 754 780 l 637 218 z "},"Χ":{"ha":835,"x_min":3,"x_max":831,"o":"m 639 0 l 404 357 l 187 0 l 3 0 l 301 515 l 28 994 l 207 993 l 408 659 l 631 993 l 815 993 l 500 513 l 831 0 l 639 0 z "},"Ψ":{"ha":1131,"x_min":83,"x_max":1047,"o":"m 1047 619 q 943 348 1047 454 q 654 221 839 242 l 654 -3 l 479 -3 l 479 220 q 187 339 291 237 q 83 608 83 442 l 83 993 l 257 993 l 257 623 q 315 448 257 516 q 482 367 372 379 l 482 993 l 652 993 l 652 366 q 817 447 760 378 q 873 616 873 515 l 873 993 l 1047 993 l 1047 619 z "},"Ϊ":{"ha":386,"x_min":-102,"x_max":490,"o":"m 106 0 l 106 993 l 282 993 l 282 0 l 106 0 m 393 1268 q 461 1240 433 1268 q 490 1173 490 1212 q 461 1104 490 1133 q 393 1075 433 1075 q 325 1104 353 1075 q 297 1173 297 1133 q 325 1240 297 1213 q 393 1268 353 1268 m -4 1268 q 64 1240 36 1268 q 92 1173 92 1213 q 63 1104 92 1133 q -4 1075 35 1075 q -73 1103 -45 1075 q -102 1173 -102 1132 q -74 1241 -102 1213 q -4 1268 -45 1268 z "},"Ϋ":{"ha":851,"x_min":3,"x_max":848,"o":"m 515 407 l 515 0 l 339 0 l 339 407 l 3 993 l 191 993 l 427 570 l 663 993 l 848 993 l 515 407 m 642 1268 q 710 1240 682 1268 q 739 1173 739 1212 q 710 1104 739 1133 q 642 1075 681 1075 q 574 1104 602 1075 q 546 1173 546 1133 q 573 1240 546 1213 q 642 1268 601 1268 m 222 1268 q 290 1240 262 1268 q 318 1173 318 1213 q 290 1104 318 1133 q 222 1075 262 1075 q 153 1103 182 1075 q 125 1173 125 1132 q 153 1241 125 1213 q 222 1268 181 1268 z "},"ά":{"ha":825,"x_min":49,"x_max":782,"o":"m 782 40 q 675 -14 758 -14 q 564 65 610 -14 q 359 -14 494 -14 q 133 85 218 -14 q 49 359 49 184 q 143 632 49 523 q 396 741 237 741 q 578 669 515 741 q 679 741 621 741 q 779 689 753 741 q 707 517 707 656 l 707 222 q 782 40 707 75 m 541 195 l 541 555 q 415 600 485 600 q 274 532 328 600 q 221 359 221 465 q 247 229 221 285 q 312 149 273 172 q 400 126 351 126 q 541 195 475 126 m 593 1092 l 473 868 l 345 868 l 418 1092 l 593 1092 z "},"έ":{"ha":705,"x_min":74,"x_max":668,"o":"m 668 64 q 357 -16 532 -16 q 153 40 232 -16 q 74 193 74 95 q 109 296 74 248 q 210 371 144 344 q 120 429 152 386 q 87 529 87 472 q 161 674 87 606 q 376 742 235 742 q 636 692 503 742 l 589 555 q 371 604 481 604 q 293 582 323 604 q 262 524 262 560 q 296 460 262 485 q 399 436 330 436 q 515 440 458 436 l 515 310 q 390 314 446 314 q 288 285 325 314 q 250 210 250 256 q 285 144 250 168 q 385 121 319 121 q 602 193 507 121 l 668 64 m 567 1092 l 447 868 l 318 868 l 392 1092 l 567 1092 z "},"ή":{"ha":821,"x_min":97,"x_max":726,"o":"m 557 -228 l 557 419 q 520 557 557 516 q 410 599 484 599 q 336 579 377 599 q 267 521 294 559 l 267 0 l 97 0 l 97 726 l 220 726 l 252 654 q 452 741 325 741 q 651 663 576 741 q 726 446 726 585 l 726 -187 l 557 -228 m 623 1092 l 503 868 l 374 868 l 447 1092 l 623 1092 z "},"ί":{"ha":403,"x_min":104,"x_max":371,"o":"m 371 65 q 228 -12 328 -12 q 104 151 104 -12 l 104 726 l 275 726 l 275 229 q 297 119 275 157 q 371 65 319 81 m 353 1092 l 233 868 l 104 868 l 178 1092 l 353 1092 z "},"ΰ":{"ha":803,"x_min":79,"x_max":717,"o":"m 711 323 q 632 74 711 160 q 400 -12 553 -12 q 92 321 92 -12 l 92 726 l 261 726 l 261 309 q 403 129 261 129 q 509 171 476 129 q 542 304 542 212 l 542 726 l 711 726 l 711 323 m 460 1051 l 437 823 l 354 823 l 332 1051 l 460 1051 m 619 1022 q 688 994 659 1022 q 717 926 717 966 q 688 858 717 887 q 619 829 659 829 q 552 858 580 829 q 524 926 524 886 q 551 995 524 967 q 619 1022 579 1022 m 176 1022 q 244 995 217 1022 q 272 926 272 967 q 244 858 272 886 q 176 829 216 829 q 107 858 136 829 q 79 926 79 886 q 107 995 79 967 q 176 1022 136 1022 z "},"α":{"ha":825,"x_min":49,"x_max":782,"o":"m 782 40 q 675 -14 758 -14 q 564 65 610 -14 q 359 -14 494 -14 q 133 85 218 -14 q 49 359 49 184 q 143 632 49 523 q 396 741 237 741 q 578 669 515 741 q 679 741 621 741 q 779 689 753 741 q 707 517 707 656 l 707 222 q 782 40 707 75 m 541 195 l 541 555 q 415 600 485 600 q 274 532 328 600 q 221 359 221 465 q 247 229 221 285 q 312 149 273 172 q 400 126 351 126 q 541 195 475 126 z "},"β":{"ha":814,"x_min":96,"x_max":765,"o":"m 541 567 q 707 468 649 538 q 765 300 765 397 q 668 77 765 168 q 431 -14 572 -14 q 229 43 301 -14 l 192 -14 l 96 -14 l 96 685 q 179 935 96 841 q 407 1029 263 1029 q 613 962 532 1029 q 694 787 694 895 q 654 652 694 711 q 541 567 613 593 m 262 624 l 363 624 q 485 665 440 624 q 530 775 530 705 q 496 861 530 827 q 403 895 463 895 q 262 697 262 895 l 262 624 m 262 183 q 404 122 300 122 q 543 167 494 122 q 593 290 593 212 q 529 439 593 385 q 351 494 465 494 l 262 494 l 262 183 z "},"γ":{"ha":787,"x_min":26,"x_max":781,"o":"m 781 726 l 488 16 l 488 -285 l 315 -285 l 315 8 q 193 367 252 218 q 104 553 134 517 q 35 590 74 590 l 26 590 l 26 732 l 40 732 q 167 712 116 732 q 252 643 218 692 q 331 472 286 593 q 412 212 376 350 l 602 726 l 781 726 z "},"δ":{"ha":794,"x_min":49,"x_max":746,"o":"m 452 889 q 581 746 477 874 q 715 535 685 618 q 746 367 746 452 q 653 92 746 197 q 396 -14 560 -14 q 140 89 231 -14 q 49 366 49 191 q 89 552 49 468 q 202 684 130 637 q 357 732 274 732 q 411 725 382 732 l 212 970 l 212 1023 l 711 1023 l 711 888 q 453 893 473 888 l 452 889 m 397 125 q 525 191 481 125 q 570 367 570 258 q 552 497 570 443 q 493 597 534 552 q 410 614 477 614 q 273 545 321 614 q 225 367 225 477 q 397 125 225 125 z "},"ε":{"ha":705,"x_min":74,"x_max":668,"o":"m 668 64 q 357 -16 532 -16 q 153 40 232 -16 q 74 193 74 95 q 109 296 74 248 q 210 371 144 344 q 120 429 152 386 q 87 529 87 472 q 161 674 87 606 q 376 742 235 742 q 636 692 503 742 l 589 555 q 371 604 481 604 q 293 582 323 604 q 262 524 262 560 q 296 460 262 485 q 399 436 330 436 q 515 440 458 436 l 515 310 q 390 314 446 314 q 288 285 325 314 q 250 210 250 256 q 285 144 250 168 q 385 121 319 121 q 602 193 507 121 l 668 64 z "},"ζ":{"ha":647,"x_min":49,"x_max":656,"o":"m 656 970 q 348 591 465 762 q 231 275 231 419 q 266 176 231 211 q 429 128 302 140 q 605 61 554 117 q 656 -71 656 6 q 586 -224 656 -163 q 410 -285 515 -285 q 310 -275 354 -285 l 329 -151 q 404 -161 363 -161 q 468 -141 444 -161 q 492 -89 492 -121 q 459 -26 492 -43 q 322 -3 427 -8 q 120 68 191 3 q 49 253 49 134 q 414 889 49 557 l 412 893 q 154 888 393 888 l 154 1023 l 656 1023 l 656 970 z "},"η":{"ha":821,"x_min":97,"x_max":726,"o":"m 557 -228 l 557 419 q 521 557 557 515 q 410 599 486 599 q 336 579 377 599 q 267 521 294 559 l 267 0 l 97 0 l 97 726 l 220 726 l 252 654 q 452 741 325 741 q 651 663 576 741 q 726 446 726 585 l 726 -187 l 557 -228 z "},"θ":{"ha":802,"x_min":62,"x_max":739,"o":"m 62 498 q 150 893 62 758 q 404 1028 238 1028 q 651 895 562 1028 q 739 513 739 762 q 652 120 739 253 q 397 -14 565 -14 q 150 118 237 -14 q 62 498 62 250 m 235 591 l 567 591 q 397 890 549 890 q 235 591 252 890 m 232 457 q 404 123 243 123 q 570 457 560 123 l 232 457 z "},"ι":{"ha":403,"x_min":104,"x_max":371,"o":"m 371 65 q 228 -12 328 -12 q 104 151 104 -12 l 104 726 l 275 726 l 275 229 q 297 119 275 157 q 371 65 319 81 z "},"κ":{"ha":798,"x_min":97,"x_max":785,"o":"m 572 0 l 368 307 l 267 196 l 267 0 l 97 0 l 97 726 l 267 726 l 267 400 l 542 726 l 746 726 l 476 427 l 785 0 l 572 0 z "},"λ":{"ha":777,"x_min":17,"x_max":762,"o":"m 762 0 l 575 0 l 412 538 l 205 0 l 17 0 l 336 745 q 304 831 321 799 q 218 884 278 884 q 127 861 176 884 l 82 1002 q 239 1029 165 1029 q 432 932 367 1029 q 494 800 468 880 l 762 0 z "},"ν":{"ha":741,"x_min":7,"x_max":733,"o":"m 395 -14 l 334 -14 l 7 726 l 197 726 l 372 271 l 553 726 l 733 726 l 395 -14 z "},"ξ":{"ha":669,"x_min":49,"x_max":665,"o":"m 585 488 l 454 488 q 300 431 372 488 q 229 285 229 374 q 264 184 229 225 q 421 129 300 142 q 539 107 501 121 q 607 67 578 94 q 651 6 636 41 q 665 -71 665 -29 q 595 -224 665 -163 q 419 -285 525 -285 q 319 -275 363 -285 l 339 -151 q 414 -161 373 -161 q 477 -141 452 -161 q 501 -89 501 -121 q 471 -28 501 -47 q 322 -3 441 -9 q 123 74 198 3 q 49 264 49 145 q 108 434 49 358 q 271 551 167 509 q 137 626 186 567 q 87 765 87 684 q 176 956 87 882 q 407 1029 264 1029 q 637 986 518 1029 l 590 848 q 399 892 496 892 q 300 857 337 892 q 264 766 264 823 q 287 691 264 722 q 357 645 311 661 q 473 628 403 629 l 585 627 l 585 488 z "},"ο":{"ha":794,"x_min":49,"x_max":746,"o":"m 49 366 q 96 567 49 481 q 220 697 142 654 q 397 741 298 741 q 654 639 563 741 q 746 366 746 537 q 651 87 746 187 q 397 -14 555 -14 q 141 89 233 -14 q 49 366 49 192 m 225 366 q 397 125 225 125 q 523 186 475 125 q 570 366 570 248 q 397 602 570 602 q 272 540 319 602 q 225 366 225 478 z "},"ρ":{"ha":821,"x_min":87,"x_max":772,"o":"m 87 -285 l 87 332 q 177 628 87 515 q 429 741 267 741 q 680 637 587 741 q 772 370 772 534 q 677 95 772 203 q 416 -14 582 -14 q 257 24 330 -14 l 257 -285 l 87 -285 m 258 172 q 329 140 286 152 q 404 127 371 127 q 547 189 498 127 q 596 367 596 250 q 547 541 596 481 q 424 602 498 602 q 304 540 350 602 q 258 361 258 478 l 258 172 z "},"ς":{"ha":665,"x_min":49,"x_max":661,"o":"m 571 545 q 410 599 505 599 q 277 533 329 599 q 225 361 225 467 q 274 223 225 277 q 411 150 323 169 q 606 70 551 120 q 661 -71 661 19 q 592 -224 661 -163 q 416 -285 523 -285 q 317 -275 361 -285 l 336 -151 q 410 -161 368 -161 q 475 -143 451 -161 q 498 -92 498 -124 q 399 3 498 -14 q 203 59 272 22 q 92 173 135 97 q 49 347 49 250 q 144 628 49 515 q 427 741 239 741 q 643 671 551 741 l 571 545 z "},"σ":{"ha":829,"x_min":49,"x_max":793,"o":"m 793 585 l 611 587 q 747 328 747 466 q 705 153 747 233 q 583 30 662 74 q 399 -14 504 -14 q 142 85 236 -14 q 49 346 49 184 q 154 622 49 517 q 431 726 258 726 l 793 726 l 793 585 m 571 330 q 532 470 571 400 q 428 587 494 540 q 277 526 330 587 q 225 355 225 465 q 273 188 225 252 q 406 125 320 125 q 528 182 486 125 q 571 330 571 239 z "},"τ":{"ha":654,"x_min":26,"x_max":623,"o":"m 623 583 l 378 583 l 378 221 q 446 129 378 129 q 524 146 481 129 l 524 0 q 410 -12 462 -12 q 260 44 313 -12 q 207 203 207 100 l 207 583 l 26 583 l 26 726 l 623 726 l 623 583 z "},"υ":{"ha":803,"x_min":92,"x_max":711,"o":"m 711 323 q 632 74 711 160 q 400 -12 553 -12 q 92 321 92 -12 l 92 726 l 261 726 l 261 309 q 403 129 261 129 q 509 171 476 129 q 542 304 542 212 l 542 726 l 711 726 l 711 323 z "},"φ":{"ha":1044,"x_min":49,"x_max":996,"o":"m 440 121 l 440 444 q 506 674 440 606 q 671 742 572 742 q 905 634 814 742 q 996 372 996 527 q 893 106 996 211 q 603 -12 790 1 l 603 -285 l 439 -285 l 439 -12 q 149 97 250 -3 q 49 359 49 197 q 107 581 49 481 q 275 743 165 682 l 355 637 q 216 372 216 538 q 276 197 216 265 q 440 121 336 130 m 602 119 q 767 192 707 127 q 828 357 828 256 q 784 539 828 468 q 679 610 739 610 q 624 587 646 610 q 602 486 602 564 l 602 119 z "},"χ":{"ha":774,"x_min":11,"x_max":761,"o":"m 554 0 l 383 250 l 208 0 l 11 0 l 297 370 l 31 726 l 227 726 l 387 496 l 549 726 l 739 726 l 473 378 l 761 0 l 554 0 z "},"ψ":{"ha":1074,"x_min":89,"x_max":985,"o":"m 985 382 q 621 -12 985 18 l 621 -285 l 457 -285 l 457 -12 q 89 376 89 14 l 89 726 l 254 726 l 254 370 q 306 197 254 261 q 458 122 357 132 l 458 726 l 619 726 l 619 121 q 822 366 822 144 l 822 726 l 985 726 l 985 382 z "},"ω":{"ha":1088,"x_min":53,"x_max":1035,"o":"m 815 746 q 979 566 923 673 q 1035 329 1035 458 q 959 78 1035 169 q 746 -14 884 -14 q 543 87 611 -14 q 338 -14 470 -14 q 127 76 202 -14 q 53 322 53 165 q 272 746 53 578 l 376 632 q 225 334 225 515 q 258 180 225 234 q 350 126 292 126 q 431 163 398 126 q 464 212 464 201 l 464 343 q 458 525 464 452 l 629 525 q 625 347 625 434 l 625 221 q 749 126 665 126 q 863 329 863 126 q 711 632 863 512 l 815 746 z "},"ϊ":{"ha":403,"x_min":-92,"x_max":468,"o":"m 371 65 q 228 -12 328 -12 q 104 151 104 -12 l 104 726 l 275 726 l 275 229 q 297 119 275 157 q 371 65 319 81 m 371 1022 q 439 994 411 1022 q 468 926 468 966 q 439 858 468 887 q 371 829 410 829 q 303 858 331 829 q 275 926 275 886 q 303 995 275 967 q 371 1022 330 1022 m 5 1022 q 74 995 46 1022 q 102 926 102 967 q 73 858 102 886 q 5 829 45 829 q -63 858 -35 829 q -92 926 -92 886 q -63 995 -92 967 q 5 1022 -35 1022 z "},"ϋ":{"ha":803,"x_min":92,"x_max":711,"o":"m 711 323 q 632 74 711 160 q 400 -12 553 -12 q 92 321 92 -12 l 92 726 l 261 726 l 261 309 q 403 129 261 129 q 509 171 476 129 q 542 304 542 212 l 542 726 l 711 726 l 711 323 m 589 1022 q 657 994 629 1022 q 686 926 686 966 q 657 858 686 887 q 589 829 629 829 q 521 858 549 829 q 493 926 493 886 q 520 995 493 967 q 589 1022 548 1022 m 220 1022 q 288 995 260 1022 q 315 926 315 967 q 287 858 315 887 q 220 829 258 829 q 151 858 179 829 q 122 926 122 886 q 150 995 122 968 q 220 1022 178 1022 z "},"ό":{"ha":794,"x_min":49,"x_max":746,"o":"m 49 366 q 96 567 49 481 q 220 697 142 654 q 397 741 298 741 q 654 639 563 741 q 746 366 746 537 q 651 87 746 187 q 397 -14 555 -14 q 141 89 233 -14 q 49 366 49 192 m 225 366 q 397 125 225 125 q 523 186 475 125 q 570 366 570 248 q 397 602 570 602 q 272 540 319 602 q 225 366 225 478 m 576 1092 l 457 868 l 328 868 l 401 1092 l 576 1092 z "},"ύ":{"ha":803,"x_min":92,"x_max":711,"o":"m 711 323 q 632 74 711 160 q 400 -12 553 -12 q 92 321 92 -12 l 92 726 l 261 726 l 261 309 q 403 129 261 129 q 509 171 476 129 q 542 304 542 212 l 542 726 l 711 726 l 711 323 m 583 1092 l 464 868 l 335 868 l 408 1092 l 583 1092 z "},"ώ":{"ha":1088,"x_min":53,"x_max":1035,"o":"m 815 746 q 979 566 923 673 q 1035 329 1035 458 q 959 78 1035 170 q 746 -14 883 -14 q 543 87 611 -14 q 338 -14 470 -14 q 127 76 202 -14 q 53 322 53 165 q 272 746 53 578 l 376 632 q 225 334 225 515 q 258 180 225 234 q 350 126 292 126 q 431 163 398 126 q 464 212 464 201 l 464 343 q 458 525 464 452 l 629 525 q 625 347 625 434 l 625 221 q 749 126 665 126 q 863 329 863 126 q 711 632 863 512 l 815 746 m 732 1092 l 612 868 l 484 868 l 557 1092 l 732 1092 z "},"Ё":{"ha":800,"x_min":102,"x_max":736,"o":"m 278 838 l 278 604 l 607 604 l 607 454 l 278 454 l 278 157 l 728 157 l 728 0 l 102 0 l 102 993 l 736 993 l 736 838 l 278 838 m 582 1265 q 647 1238 620 1265 q 673 1173 673 1211 q 647 1105 673 1133 q 582 1078 620 1078 q 516 1106 544 1078 q 489 1173 489 1134 q 516 1239 489 1212 q 582 1265 543 1265 m 277 1265 q 342 1238 315 1265 q 370 1173 370 1211 q 342 1106 370 1134 q 277 1078 315 1078 q 212 1105 239 1078 q 184 1173 184 1133 q 211 1239 184 1212 q 277 1265 237 1265 z "},"Ђ":{"ha":1048,"x_min":33,"x_max":990,"o":"m 990 282 q 908 69 990 145 q 705 -7 825 -7 q 625 -1 676 -7 l 625 144 q 685 139 660 139 q 811 272 811 139 l 811 293 q 760 425 811 378 q 619 471 709 471 q 481 456 564 471 l 481 0 l 304 0 l 304 840 l 33 840 l 33 993 l 791 993 l 791 840 l 481 840 l 481 597 q 642 612 567 612 q 897 533 804 612 q 990 309 990 453 l 990 282 z "},"Ѓ":{"ha":764,"x_min":102,"x_max":720,"o":"m 720 838 l 279 838 l 279 0 l 102 0 l 102 993 l 720 993 l 720 838 m 629 1301 l 478 1078 l 343 1078 l 457 1301 l 629 1301 z "},"Є":{"ha":850,"x_min":54,"x_max":821,"o":"m 821 89 q 490 -17 687 -17 q 170 122 285 -17 q 54 493 54 260 q 180 865 54 718 q 519 1011 305 1011 q 790 946 657 1011 l 711 793 q 514 859 623 859 q 331 789 404 859 q 240 591 258 720 l 604 591 l 604 446 l 229 446 q 309 221 235 305 q 501 138 383 138 q 732 229 636 138 l 821 89 z "},"Ѕ":{"ha":713,"x_min":57,"x_max":659,"o":"m 57 56 l 122 212 q 328 140 225 140 q 484 249 484 140 q 450 341 484 294 q 296 449 416 387 q 142 542 182 507 q 81 628 103 578 q 60 743 60 679 q 144 935 60 859 q 359 1011 228 1011 q 612 946 532 1011 l 559 794 q 364 861 466 861 q 269 827 302 861 q 235 745 235 793 q 425 567 235 661 q 610 430 562 501 q 659 260 659 359 q 563 61 659 138 q 309 -17 468 -17 q 57 56 168 -17 z "},"І":{"ha":386,"x_min":106,"x_max":282,"o":"m 106 0 l 106 993 l 282 993 l 282 0 l 106 0 z "},"Ї":{"ha":386,"x_min":-46,"x_max":443,"o":"m 106 0 l 106 993 l 282 993 l 282 0 l 106 0 m 351 1265 q 416 1238 389 1265 q 443 1173 443 1211 q 416 1105 443 1133 q 351 1078 390 1078 q 286 1106 313 1078 q 258 1173 258 1134 q 285 1239 258 1212 q 351 1265 312 1265 m 46 1265 q 112 1238 84 1265 q 139 1173 139 1211 q 112 1105 139 1133 q 46 1078 84 1078 q -19 1105 8 1078 q -46 1173 -46 1133 q -20 1239 -46 1212 q 46 1265 6 1265 z "},"Ј":{"ha":758,"x_min":29,"x_max":667,"o":"m 29 231 l 187 231 q 332 143 208 143 q 455 201 419 143 q 490 371 490 258 l 490 993 l 667 993 l 667 376 q 579 79 667 172 q 313 -14 492 -14 q 115 50 192 -14 q 29 231 38 113 z "},"Љ":{"ha":1397,"x_min":22,"x_max":1341,"o":"m 861 621 q 979 628 932 628 q 1246 546 1152 628 q 1341 311 1341 464 q 1245 85 1341 170 q 977 0 1149 0 l 690 0 l 690 843 l 497 843 q 417 387 472 591 q 277 87 363 184 q 22 -9 191 -9 l 22 153 q 103 165 70 153 q 171 222 136 178 q 246 388 206 267 q 315 672 286 509 q 361 993 345 836 l 861 993 l 861 621 m 861 146 q 950 142 932 142 q 1120 190 1073 142 q 1166 321 1166 238 q 1116 443 1166 398 q 957 488 1065 488 q 861 481 924 488 l 861 146 z "},"Њ":{"ha":1318,"x_min":102,"x_max":1263,"o":"m 782 621 q 900 628 853 628 q 1167 546 1072 628 q 1263 311 1263 464 q 1169 87 1263 174 q 897 0 1075 0 l 611 0 l 611 447 l 272 447 l 272 0 l 102 0 l 102 993 l 272 993 l 272 604 l 611 604 l 611 993 l 782 993 l 782 621 m 782 146 q 871 142 853 142 q 1041 190 994 142 q 1088 321 1088 238 q 1037 443 1088 398 q 878 488 986 488 q 782 481 845 488 l 782 146 z "},"Ћ":{"ha":1067,"x_min":33,"x_max":978,"o":"m 978 0 l 799 0 l 799 289 q 749 425 799 379 q 611 471 699 471 q 481 456 548 471 l 481 0 l 304 0 l 304 840 l 33 840 l 33 993 l 786 993 l 786 840 l 481 840 l 481 597 q 636 612 566 612 q 888 532 798 612 q 978 302 978 451 l 978 0 z "},"Ќ":{"ha":889,"x_min":102,"x_max":828,"o":"m 828 -4 q 770 -8 808 -8 q 629 37 677 -8 q 564 183 582 81 q 472 388 538 326 q 285 450 406 450 l 277 450 l 277 0 l 102 0 l 102 993 l 277 993 l 277 600 l 290 600 q 474 652 408 600 q 559 812 540 704 q 619 956 578 911 q 753 1000 661 1000 q 815 997 790 1000 l 815 840 q 786 842 808 842 q 743 827 755 842 q 720 761 730 813 q 641 610 701 673 q 489 526 581 547 q 644 430 586 498 q 726 241 703 363 q 753 166 739 180 q 802 151 767 151 q 828 154 816 151 l 828 -4 m 661 1301 l 510 1078 l 375 1078 l 489 1301 l 661 1301 z "},"Ў":{"ha":863,"x_min":9,"x_max":854,"o":"m 854 993 q 643 434 770 689 q 399 85 516 179 q 90 -9 282 -9 l 90 153 q 122 151 98 151 q 265 182 209 151 q 366 277 321 214 l 9 993 l 205 993 l 467 415 q 672 993 587 661 l 854 993 m 705 1283 q 618 1128 685 1181 q 452 1075 551 1075 q 286 1128 352 1075 q 200 1283 220 1181 l 342 1312 q 454 1190 357 1190 q 567 1311 557 1190 l 705 1283 z "},"Џ":{"ha":882,"x_min":102,"x_max":821,"o":"m 821 0 l 541 0 l 541 -285 l 382 -285 l 382 0 l 102 0 l 102 993 l 277 993 l 277 154 l 646 154 l 646 993 l 821 993 l 821 0 z "},"А":{"ha":885,"x_min":5,"x_max":879,"o":"m 685 0 l 611 201 l 271 201 l 203 0 l 5 0 l 403 1007 l 479 1007 l 879 0 l 685 0 m 440 703 l 321 336 l 559 336 l 440 703 z "},"Б":{"ha":831,"x_min":102,"x_max":772,"o":"m 277 604 q 406 611 350 611 q 676 531 579 611 q 772 301 772 451 q 676 82 772 163 q 406 0 579 0 l 102 0 l 102 993 l 701 993 l 701 840 l 277 840 l 277 604 m 277 147 q 372 143 332 143 q 539 186 489 143 q 590 311 590 230 q 544 426 590 382 q 378 469 498 469 q 277 464 330 469 l 277 147 z "},"В":{"ha":829,"x_min":102,"x_max":772,"o":"m 406 0 l 102 0 l 102 993 q 383 1003 336 1003 q 625 937 537 1003 q 713 747 713 870 q 587 561 713 628 q 772 294 772 497 q 670 79 772 159 q 406 0 568 0 m 278 851 l 278 614 q 364 611 331 611 q 536 741 536 611 q 379 856 536 856 q 278 851 338 856 m 278 476 l 278 147 q 366 143 332 143 q 532 181 476 143 q 589 317 589 218 q 540 439 589 400 q 367 478 492 478 q 278 476 319 478 z "},"Г":{"ha":764,"x_min":102,"x_max":720,"o":"m 720 838 l 279 838 l 279 0 l 102 0 l 102 993 l 720 993 l 720 838 z "},"Д":{"ha":1013,"x_min":21,"x_max":982,"o":"m 982 -285 l 827 -285 l 827 0 l 176 0 l 176 -285 l 21 -285 l 21 146 l 89 146 q 254 439 170 251 q 410 993 337 627 l 871 993 l 871 146 l 982 146 l 982 -285 m 701 146 l 701 848 l 532 848 q 428 447 497 637 q 277 146 359 256 l 701 146 z "},"Е":{"ha":800,"x_min":102,"x_max":736,"o":"m 278 838 l 278 604 l 607 604 l 607 454 l 278 454 l 278 157 l 728 157 l 728 0 l 102 0 l 102 993 l 736 993 l 736 838 l 278 838 z "},"Ж":{"ha":1296,"x_min":62,"x_max":1234,"o":"m 1234 -4 q 1177 -8 1215 -8 q 1047 38 1092 -8 q 986 184 1002 84 q 734 452 943 452 l 734 0 l 567 0 l 567 452 q 307 187 349 452 q 247 39 291 85 q 119 -8 202 -8 q 62 -4 81 -8 l 62 153 q 87 150 73 150 q 134 165 119 150 q 158 240 148 180 q 233 416 176 342 q 380 524 291 490 q 164 757 202 553 q 144 823 155 803 q 102 843 132 843 q 74 842 79 843 l 74 997 q 135 1000 97 1000 q 258 956 218 1000 q 314 814 298 911 q 567 599 350 599 l 567 993 l 734 993 l 734 599 q 902 653 838 599 q 983 811 966 707 q 1039 955 1000 909 q 1161 1000 1078 1000 q 1222 997 1199 1000 l 1222 842 q 1196 843 1217 843 q 1154 827 1168 843 q 1131 760 1141 811 q 1058 609 1114 672 q 920 526 1002 546 q 1137 243 1098 466 q 1163 166 1148 182 q 1210 150 1178 150 q 1234 153 1223 150 l 1234 -4 z "},"З":{"ha":774,"x_min":35,"x_max":715,"o":"m 538 543 q 670 447 624 512 q 715 292 715 382 q 614 65 715 148 q 336 -17 513 -17 q 35 60 159 -17 l 111 214 q 345 135 218 135 q 484 177 434 135 q 534 290 534 219 q 476 424 534 378 q 307 469 417 469 q 205 465 248 469 l 205 610 q 311 604 258 604 q 451 641 401 604 q 500 745 500 677 q 456 831 500 802 q 343 861 412 861 q 139 802 251 861 l 78 947 q 357 1011 228 1011 q 591 944 505 1011 q 677 755 677 876 q 640 625 677 682 q 538 543 602 568 z "},"И":{"ha":975,"x_min":102,"x_max":872,"o":"m 872 0 l 696 0 l 696 668 l 176 -16 l 102 -16 l 102 993 l 278 993 l 278 325 l 798 1008 l 872 1008 l 872 0 z "},"Й":{"ha":999,"x_min":102,"x_max":872,"o":"m 872 0 l 696 0 l 696 668 l 176 -16 l 102 -16 l 102 993 l 278 993 l 278 325 l 798 1008 l 872 1008 l 872 0 m 760 1283 q 672 1128 739 1181 q 505 1075 606 1075 q 340 1128 406 1075 q 254 1283 275 1181 l 396 1312 q 509 1190 412 1190 q 621 1311 610 1190 l 760 1283 z "},"К":{"ha":889,"x_min":102,"x_max":828,"o":"m 828 -4 q 770 -8 808 -8 q 629 37 677 -8 q 564 183 582 81 q 472 388 538 326 q 285 450 406 450 l 277 450 l 277 0 l 102 0 l 102 993 l 277 993 l 277 600 l 290 600 q 474 652 408 600 q 559 812 540 704 q 619 956 578 911 q 753 1000 661 1000 q 815 997 790 1000 l 815 840 q 786 842 808 842 q 743 827 755 842 q 720 761 730 813 q 641 610 701 673 q 489 526 581 547 q 644 430 586 498 q 726 241 703 363 q 753 166 739 180 q 802 151 767 151 q 828 154 816 151 l 828 -4 z "},"Л":{"ha":970,"x_min":22,"x_max":867,"o":"m 867 0 l 693 0 l 693 843 l 501 843 q 438 458 481 641 q 337 171 396 275 q 203 29 278 67 q 22 -9 128 -9 l 22 153 q 103 165 70 153 q 172 222 136 178 q 248 387 208 266 q 318 673 288 509 q 364 993 348 837 l 867 993 l 867 0 z "},"М":{"ha":1080,"x_min":33,"x_max":1047,"o":"m 1047 0 l 876 0 l 774 534 l 574 -14 l 511 -14 l 310 534 l 203 0 l 33 0 l 233 993 l 326 993 l 542 323 l 751 993 l 844 993 l 1047 0 z "},"Н":{"ha":950,"x_min":102,"x_max":847,"o":"m 673 0 l 673 447 l 278 447 l 278 0 l 102 0 l 102 993 l 278 993 l 278 604 l 673 604 l 673 993 l 847 993 l 847 0 l 673 0 z "},"О":{"ha":977,"x_min":54,"x_max":922,"o":"m 54 505 q 171 864 54 717 q 482 1011 287 1011 q 808 879 694 1011 q 922 505 922 747 q 804 123 922 262 q 468 -17 685 -17 q 160 124 266 -17 q 54 505 54 264 m 237 505 q 297 232 237 324 q 468 140 357 140 q 670 233 600 140 q 739 505 739 325 q 482 854 739 854 q 300 760 363 854 q 237 505 237 666 z "},"П":{"ha":924,"x_min":102,"x_max":821,"o":"m 821 0 l 644 0 l 644 838 l 278 838 l 278 0 l 102 0 l 102 993 l 821 993 l 821 0 z "},"Р":{"ha":818,"x_min":102,"x_max":761,"o":"m 278 366 l 278 0 l 102 0 l 102 993 q 309 1000 296 1000 q 651 928 541 1000 q 761 703 761 857 q 358 361 761 361 q 278 366 328 361 m 278 840 l 278 522 q 349 518 323 518 q 525 558 469 518 q 581 689 581 597 q 332 843 581 843 q 278 840 294 843 z "},"С":{"ha":850,"x_min":54,"x_max":810,"o":"m 782 940 l 710 794 q 521 854 650 854 q 314 747 391 854 q 237 486 237 639 q 309 237 237 334 q 507 140 380 140 q 726 240 648 140 l 810 97 q 493 -17 701 -17 q 169 120 283 -17 q 54 493 54 258 q 181 861 54 711 q 510 1011 307 1011 q 782 940 678 1011 z "},"Т":{"ha":903,"x_min":40,"x_max":863,"o":"m 532 838 l 532 0 l 355 0 l 355 838 l 40 838 l 40 993 l 863 993 l 863 838 l 532 838 z "},"У":{"ha":863,"x_min":9,"x_max":854,"o":"m 854 993 q 643 434 770 689 q 399 85 516 179 q 90 -9 282 -9 l 90 153 q 122 151 98 151 q 265 182 209 151 q 366 277 321 214 l 9 993 l 205 993 l 467 415 q 672 993 587 661 l 854 993 z "},"Ф":{"ha":1097,"x_min":57,"x_max":1040,"o":"m 635 920 q 933 795 827 904 q 1040 507 1040 686 q 931 215 1040 332 q 635 85 823 98 l 635 -22 l 464 -22 l 464 85 q 164 210 272 100 q 57 498 57 319 q 166 789 57 673 q 464 920 275 905 l 464 1026 l 635 1026 l 635 920 m 632 215 q 813 304 751 229 q 876 505 876 379 q 812 699 876 624 q 632 789 749 774 l 632 215 m 467 215 l 467 789 q 284 701 347 775 q 221 500 221 626 q 286 306 221 382 q 467 215 350 231 z "},"Х":{"ha":850,"x_min":11,"x_max":839,"o":"m 647 0 l 412 357 l 196 0 l 11 0 l 310 515 l 36 994 l 215 993 l 416 659 l 639 993 l 823 993 l 509 513 l 839 0 l 647 0 z "},"Ц":{"ha":945,"x_min":102,"x_max":914,"o":"m 914 -285 l 755 -285 l 755 0 l 102 0 l 102 993 l 277 993 l 277 154 l 627 154 l 627 993 l 800 993 l 800 154 l 914 154 l 914 -285 z "},"Ч":{"ha":879,"x_min":83,"x_max":777,"o":"m 777 0 l 600 0 l 600 395 q 425 375 512 375 q 174 456 264 375 q 83 686 83 537 l 83 993 l 267 993 l 267 697 q 314 565 267 610 q 449 519 361 519 q 600 539 522 519 l 600 993 l 777 993 l 777 0 z "},"Ш":{"ha":1292,"x_min":102,"x_max":1189,"o":"m 1189 0 l 102 0 l 102 993 l 269 993 l 269 147 l 562 147 l 562 993 l 730 993 l 730 147 l 1023 147 l 1023 993 l 1189 993 l 1189 0 z "},"Щ":{"ha":1331,"x_min":102,"x_max":1300,"o":"m 1300 -285 l 1143 -285 l 1143 0 l 102 0 l 102 993 l 269 993 l 269 147 l 562 147 l 562 993 l 730 993 l 730 147 l 1023 147 l 1023 993 l 1189 993 l 1189 151 l 1300 151 l 1300 -285 z "},"Ъ":{"ha":1078,"x_min":36,"x_max":1022,"o":"m 528 619 q 663 628 594 628 q 928 546 834 628 q 1022 311 1022 465 q 926 85 1022 170 q 659 0 830 0 l 354 0 l 354 839 l 36 839 l 36 993 l 528 993 l 528 619 m 528 147 q 619 143 602 143 q 796 190 749 143 q 843 321 843 236 q 628 486 843 486 q 528 479 593 486 l 528 147 z "},"Ы":{"ha":1165,"x_min":102,"x_max":1063,"o":"m 273 619 q 399 628 356 628 q 666 546 571 628 q 761 311 761 464 q 665 85 761 170 q 396 0 568 0 l 102 0 l 102 993 l 273 993 l 273 619 m 273 147 q 364 143 348 143 q 538 193 492 143 q 585 321 585 243 q 532 441 585 397 q 371 486 480 486 q 273 479 337 486 l 273 147 m 1063 0 l 889 0 l 889 993 l 1063 993 l 1063 0 z "},"Ь":{"ha":842,"x_min":102,"x_max":786,"o":"m 278 621 q 419 629 365 629 q 689 546 592 629 q 786 310 786 463 q 689 84 786 169 q 419 0 592 0 l 102 0 l 102 993 l 278 993 l 278 621 m 278 147 q 380 143 335 143 q 604 319 604 143 q 549 442 604 397 q 390 486 494 486 q 278 479 352 486 l 278 147 z "},"Э":{"ha":857,"x_min":36,"x_max":803,"o":"m 65 932 q 378 1011 201 1011 q 691 874 580 1011 q 803 500 803 737 q 680 123 803 263 q 342 -17 556 -17 q 36 72 168 -17 l 113 225 q 340 138 220 138 q 542 216 469 138 q 625 446 615 295 l 252 446 l 252 591 l 621 591 q 540 788 606 718 q 368 859 473 859 q 140 786 244 859 l 65 932 z "},"Ю":{"ha":1308,"x_min":102,"x_max":1251,"o":"m 439 603 q 575 901 469 793 q 840 1008 681 1008 q 1146 869 1041 1008 q 1251 503 1251 730 q 1140 123 1251 267 q 827 -20 1028 -20 q 543 107 642 -20 q 433 449 443 235 l 273 449 l 273 0 l 102 0 l 102 993 l 273 993 l 273 603 l 439 603 m 831 134 q 1014 235 954 134 q 1074 503 1074 336 q 836 856 1074 856 q 662 753 722 856 q 603 503 603 650 q 662 228 603 323 q 831 134 722 134 z "},"Я":{"ha":889,"x_min":52,"x_max":786,"o":"m 786 0 l 611 0 l 611 412 l 570 412 q 391 356 454 412 q 302 178 327 299 q 238 35 283 79 q 111 -8 193 -8 q 52 -4 70 -8 l 52 153 q 78 150 64 150 q 125 171 111 150 q 149 236 139 191 q 343 471 184 406 q 164 563 213 501 q 115 713 115 625 q 211 920 115 836 q 498 1004 307 1004 q 786 991 626 1004 l 786 0 m 612 554 l 612 854 q 482 861 558 861 q 344 824 398 861 q 290 715 290 787 q 515 555 290 559 l 612 554 z "},"а":{"ha":742,"x_min":46,"x_max":708,"o":"m 497 72 q 414 11 474 35 q 297 -14 355 -14 q 112 45 178 -14 q 46 211 46 104 q 137 406 46 331 q 408 481 228 481 q 479 469 437 481 q 318 599 479 599 q 157 567 223 599 l 121 697 q 329 741 207 741 q 573 663 497 741 q 650 378 650 585 l 650 222 q 708 40 650 77 q 664 -4 688 5 q 603 -14 640 -14 q 538 13 567 -14 q 497 72 509 39 m 481 342 q 415 350 437 350 q 215 220 215 350 q 328 121 215 121 q 481 273 481 121 l 481 342 z "},"б":{"ha":810,"x_min":57,"x_max":765,"o":"m 193 558 q 309 661 242 624 q 441 697 376 697 q 678 605 591 697 q 765 357 765 513 q 673 91 765 195 q 415 -14 581 -14 q 152 103 248 -14 q 57 421 57 220 q 80 650 57 551 q 151 817 103 749 q 275 927 199 884 q 465 991 350 969 l 700 1038 l 736 888 q 416 826 463 836 q 318 787 369 816 q 236 704 267 758 q 193 558 205 650 m 422 122 q 552 183 506 122 q 597 345 597 243 q 551 508 597 450 q 422 566 505 566 q 285 504 338 566 q 232 349 232 441 q 286 186 232 250 q 422 122 340 122 z "},"в":{"ha":757,"x_min":92,"x_max":703,"o":"m 561 387 q 703 204 703 336 q 631 55 703 111 q 416 0 559 0 l 92 0 l 92 725 q 408 734 296 734 q 602 680 534 734 q 671 534 671 625 q 642 448 671 488 q 561 387 613 408 m 256 443 q 397 441 282 441 q 509 526 509 441 q 481 585 509 563 q 406 607 454 607 q 256 602 316 607 l 256 443 m 256 132 q 404 129 344 129 q 536 225 536 129 q 498 297 536 273 q 404 321 460 321 l 256 319 l 256 132 z "},"г":{"ha":642,"x_min":92,"x_max":596,"o":"m 596 583 l 262 583 l 262 0 l 92 0 l 92 726 l 596 726 l 596 583 z "},"д":{"ha":868,"x_min":31,"x_max":832,"o":"m 832 -253 l 686 -253 l 686 0 l 176 0 l 176 -253 l 31 -253 l 31 134 l 100 134 q 212 365 173 231 q 252 633 252 498 l 252 726 l 732 726 l 732 134 l 832 134 l 832 -253 m 575 134 l 575 595 l 392 595 q 262 134 378 303 l 575 134 z "},"е":{"ha":803,"x_min":47,"x_max":757,"o":"m 743 311 l 224 311 q 284 176 228 224 q 432 127 340 127 q 608 189 547 127 l 673 58 q 407 -14 582 -14 q 144 82 241 -14 q 47 355 47 178 q 154 634 47 528 q 408 741 260 741 q 661 647 564 741 q 757 406 757 553 q 743 311 757 371 m 231 439 l 586 439 q 410 599 569 599 q 231 439 267 599 z "},"ж":{"ha":1082,"x_min":53,"x_max":1029,"o":"m 1029 -4 q 960 -8 996 -8 q 821 122 839 -8 q 621 315 795 315 l 621 0 l 468 0 l 468 315 q 258 125 285 315 q 118 -8 240 -8 q 53 -4 86 -8 l 53 135 q 82 132 61 132 q 122 176 114 132 q 304 382 151 333 q 132 551 159 408 q 92 596 125 596 q 64 593 81 596 l 64 730 q 134 734 114 734 q 265 612 249 734 q 326 491 277 530 q 468 452 374 452 l 468 726 l 621 726 l 621 452 q 815 610 793 452 q 949 734 832 734 q 1018 730 964 734 l 1018 593 q 985 596 1000 596 q 949 551 958 596 q 778 383 920 416 q 961 172 929 343 q 999 132 969 132 q 1029 135 1021 132 l 1029 -4 z "},"з":{"ha":671,"x_min":29,"x_max":615,"o":"m 478 379 q 578 314 541 359 q 615 216 615 269 q 533 44 615 103 q 307 -16 450 -16 q 29 65 140 -16 l 113 199 q 318 125 199 125 q 440 215 440 125 q 296 313 440 313 q 199 309 241 313 l 199 441 q 309 440 224 440 q 424 521 424 440 q 396 581 424 558 q 317 603 368 603 q 127 547 220 603 l 66 681 q 329 742 198 742 q 522 684 449 742 q 595 538 595 625 q 478 379 595 420 z "},"и":{"ha":835,"x_min":92,"x_max":743,"o":"m 743 0 l 574 0 l 574 439 l 138 -17 l 92 -17 l 92 726 l 261 726 l 261 288 l 697 743 l 743 743 l 743 0 z "},"й":{"ha":835,"x_min":92,"x_max":743,"o":"m 743 0 l 574 0 l 574 439 l 138 -17 l 92 -17 l 92 726 l 261 726 l 261 288 l 697 743 l 743 743 l 743 0 m 685 1078 q 597 923 666 977 q 432 869 529 869 q 267 922 332 869 q 180 1078 201 975 l 322 1107 q 436 985 338 985 q 547 1105 537 985 l 685 1078 z "},"к":{"ha":758,"x_min":92,"x_max":708,"o":"m 708 -4 q 629 -8 672 -8 q 482 122 502 -8 q 264 313 454 313 l 260 313 l 260 0 l 92 0 l 92 726 l 260 726 l 260 453 l 268 453 q 476 610 452 453 q 619 734 495 734 q 696 730 638 734 l 696 593 q 664 596 678 596 q 627 554 637 596 q 441 383 594 416 q 639 172 606 339 q 675 132 647 132 q 708 135 700 132 l 708 -4 z "},"л":{"ha":832,"x_min":31,"x_max":741,"o":"m 741 0 l 575 0 l 575 593 l 396 593 q 362 310 391 441 q 283 108 333 179 q 175 15 233 37 q 31 -8 118 -8 l 31 142 q 143 188 98 142 q 219 371 188 235 q 250 681 250 507 l 250 726 l 741 726 l 741 0 z "},"м":{"ha":1000,"x_min":37,"x_max":962,"o":"m 962 0 l 789 0 q 731 344 734 308 q 728 393 728 380 l 721 393 q 696 325 707 346 l 525 -14 l 465 -14 l 339 234 q 281 355 289 333 q 268 393 273 376 l 261 393 q 248 272 261 348 l 203 0 l 37 0 l 175 741 l 240 741 l 504 222 l 764 741 l 825 741 l 962 0 z "},"н":{"ha":823,"x_min":92,"x_max":732,"o":"m 732 0 l 562 0 l 562 311 l 261 311 l 261 0 l 92 0 l 92 726 l 261 726 l 261 452 l 562 452 l 562 726 l 732 726 l 732 0 z "},"о":{"ha":791,"x_min":47,"x_max":745,"o":"m 47 366 q 143 635 47 530 q 396 741 238 741 q 653 639 562 741 q 745 366 745 537 q 649 87 745 187 q 396 -14 554 -14 q 140 89 232 -14 q 47 366 47 192 m 224 366 q 396 125 224 125 q 521 186 474 125 q 568 366 568 248 q 396 602 568 602 q 271 540 317 602 q 224 366 224 478 z "},"п":{"ha":811,"x_min":92,"x_max":720,"o":"m 720 0 l 550 0 l 550 583 l 261 583 l 261 0 l 92 0 l 92 726 l 720 726 l 720 0 z "},"р":{"ha":812,"x_min":92,"x_max":765,"o":"m 261 18 l 261 -285 l 92 -285 l 92 726 l 261 726 l 261 677 q 418 741 326 741 q 765 357 765 741 q 669 83 765 180 q 407 -14 574 -14 q 261 18 330 -14 m 261 549 l 261 167 q 370 129 307 129 q 536 185 484 129 q 589 363 589 241 q 539 541 589 486 q 370 596 490 596 q 261 549 309 596 z "},"с":{"ha":717,"x_min":47,"x_max":669,"o":"m 664 668 l 591 542 q 432 599 530 599 q 280 536 336 599 q 224 357 224 473 q 440 127 224 127 q 607 191 536 127 l 669 57 q 537 -2 592 9 q 410 -14 482 -14 q 146 83 244 -14 q 47 357 47 180 q 153 635 47 530 q 443 741 258 741 q 664 668 571 741 z "},"т":{"ha":676,"x_min":45,"x_max":632,"o":"m 424 583 l 424 0 l 253 0 l 253 583 l 45 583 l 45 726 l 632 726 l 632 583 l 424 583 z "},"у":{"ha":751,"x_min":11,"x_max":739,"o":"m 421 -117 q 307 -237 394 -189 q 97 -285 219 -285 l 97 -135 q 293 -36 293 -135 q 239 163 293 28 l 11 726 l 187 726 l 385 225 l 564 726 l 739 726 l 421 -117 z "},"ф":{"ha":1107,"x_min":56,"x_max":1051,"o":"m 636 711 q 751 741 692 741 q 974 640 897 741 q 1051 364 1051 540 q 970 84 1051 182 q 764 -14 889 -14 q 636 11 695 -14 l 636 -285 l 473 -285 l 473 14 q 342 -14 409 -14 q 132 84 209 -14 q 56 358 56 182 q 138 639 56 537 q 355 741 220 741 q 473 713 416 741 l 473 997 l 636 1038 l 636 711 m 635 135 q 724 119 683 119 q 888 371 888 119 q 848 549 888 488 q 732 610 808 610 q 635 591 688 610 l 635 135 m 475 136 l 475 590 q 376 610 424 610 q 220 371 220 610 q 383 119 220 119 q 475 136 427 119 z "},"х":{"ha":778,"x_min":14,"x_max":764,"o":"m 557 0 l 386 250 l 211 0 l 14 0 l 300 370 l 33 726 l 229 726 l 390 496 l 551 726 l 742 726 l 476 378 l 764 0 l 557 0 z "},"ц":{"ha":836,"x_min":92,"x_max":800,"o":"m 800 -253 l 652 -253 l 652 0 l 92 0 l 92 726 l 260 726 l 260 139 l 532 139 l 532 726 l 700 726 l 700 139 l 800 139 l 800 -253 z "},"ч":{"ha":787,"x_min":74,"x_max":696,"o":"m 696 0 l 526 0 l 526 273 q 343 249 421 249 q 143 318 212 249 q 74 515 74 387 l 74 726 l 245 726 l 245 530 q 382 390 245 390 q 526 408 450 390 l 526 726 l 696 726 l 696 0 z "},"ш":{"ha":1104,"x_min":92,"x_max":1013,"o":"m 1013 0 l 92 0 l 92 726 l 256 726 l 256 138 l 469 138 l 469 726 l 633 726 l 633 138 l 848 138 l 848 726 l 1013 726 l 1013 0 z "},"щ":{"ha":1141,"x_min":92,"x_max":1105,"o":"m 1105 -253 l 957 -253 l 957 0 l 92 0 l 92 726 l 256 726 l 256 138 l 467 138 l 467 726 l 631 726 l 631 138 l 842 138 l 842 726 l 1006 726 l 1006 138 l 1105 138 l 1105 -253 z "},"ъ":{"ha":904,"x_min":47,"x_max":854,"o":"m 432 467 q 570 472 494 472 q 779 409 704 472 q 854 231 854 347 q 786 62 854 124 q 568 0 718 0 l 265 0 l 265 586 l 47 586 l 47 726 l 432 726 l 432 467 m 432 134 q 551 131 490 131 q 660 164 635 131 q 685 239 685 197 q 652 312 685 283 q 553 342 618 342 q 432 338 511 342 l 432 134 z "},"ы":{"ha":1036,"x_min":92,"x_max":945,"o":"m 257 467 q 386 472 317 472 q 594 409 519 472 q 668 231 668 347 q 385 0 668 0 l 92 0 l 92 726 l 257 726 l 257 467 m 257 132 q 370 129 313 129 q 473 160 446 129 q 500 239 500 191 q 467 313 500 283 q 371 343 434 343 q 257 339 335 343 l 257 132 m 945 0 l 778 0 l 778 726 l 945 726 l 945 0 z "},"ь":{"ha":750,"x_min":92,"x_max":700,"o":"m 260 467 q 408 472 326 472 q 622 409 545 472 q 700 231 700 346 q 630 62 700 125 q 404 0 560 0 l 92 0 l 92 726 l 260 726 l 260 467 m 260 134 q 390 131 328 131 q 529 237 529 131 q 497 312 529 281 q 392 342 465 342 q 260 338 354 342 l 260 134 z "},"э":{"ha":728,"x_min":46,"x_max":681,"o":"m 61 669 q 322 742 168 742 q 584 641 486 742 q 681 370 681 539 q 575 87 681 189 q 289 -16 469 -16 q 46 62 146 -16 l 125 191 q 304 126 201 126 q 445 174 391 126 q 509 310 498 221 l 233 310 l 233 440 l 505 440 q 297 602 479 602 q 132 546 203 602 l 61 669 z "},"ю":{"ha":1061,"x_min":92,"x_max":1011,"o":"m 380 450 q 483 660 401 578 q 693 741 565 741 q 929 637 848 741 q 1011 366 1011 534 q 923 86 1011 186 q 693 -14 835 -14 q 471 73 551 -14 q 376 313 391 159 l 254 313 l 254 0 l 92 0 l 92 726 l 254 726 l 254 450 l 380 450 m 692 125 q 803 186 762 125 q 844 366 844 247 q 692 602 844 602 q 580 535 621 602 q 539 366 539 468 q 692 125 539 125 z "},"я":{"ha":778,"x_min":49,"x_max":686,"o":"m 686 0 l 519 0 l 519 275 l 475 275 q 261 111 284 275 q 118 -8 245 -8 q 49 -4 82 -8 l 49 135 q 78 132 57 132 q 117 172 109 132 q 170 273 129 231 q 271 330 210 315 q 94 519 94 363 q 163 673 94 612 q 387 734 231 734 q 686 724 479 734 l 686 0 m 519 401 l 519 602 q 387 607 465 607 q 296 579 325 607 q 267 509 267 552 q 306 433 267 463 q 412 403 345 404 l 519 401 z "},"ё":{"ha":803,"x_min":46,"x_max":755,"o":"m 742 311 l 222 311 q 282 176 227 224 q 431 127 338 127 q 607 189 545 127 l 672 58 q 406 -14 581 -14 q 143 82 240 -14 q 46 355 46 178 q 153 634 46 528 q 407 741 259 741 q 659 647 562 741 q 755 406 755 553 q 742 311 755 371 m 229 439 l 585 439 q 408 599 568 599 q 229 439 265 599 m 572 1006 q 637 978 610 1006 q 664 913 664 951 q 637 846 664 873 q 572 818 610 818 q 507 846 534 818 q 479 913 479 874 q 506 979 479 952 q 572 1006 533 1006 m 267 1006 q 332 978 305 1006 q 359 913 359 951 q 332 846 359 874 q 267 818 305 818 q 202 846 229 818 q 175 913 175 873 q 201 979 175 952 q 267 1006 227 1006 z "},"ђ":{"ha":832,"x_min":-3,"x_max":739,"o":"m 739 49 q 653 -201 739 -121 q 387 -286 566 -282 l 387 -139 q 525 -93 481 -138 q 570 52 570 -47 l 570 415 q 528 522 570 479 q 416 564 487 564 q 330 541 372 564 q 269 489 288 517 l 269 0 l 100 0 l 100 803 l -3 803 l -3 911 l 100 911 l 100 999 l 269 1039 l 269 911 l 534 911 l 534 803 l 269 803 l 269 643 q 453 703 338 703 q 664 626 589 703 q 739 410 739 550 l 739 49 z "},"ѓ":{"ha":642,"x_min":92,"x_max":596,"o":"m 596 583 l 262 583 l 262 0 l 92 0 l 92 726 l 596 726 l 596 583 m 557 1067 l 406 843 l 271 843 l 385 1067 l 557 1067 z "},"є":{"ha":728,"x_min":47,"x_max":681,"o":"m 681 57 q 410 -16 569 -16 q 144 84 240 -16 q 47 357 47 184 q 145 628 47 514 q 437 742 243 742 q 665 671 568 742 l 585 550 q 419 602 516 602 q 292 558 345 602 q 225 440 239 515 l 494 440 l 494 310 l 218 310 q 286 174 227 222 q 440 126 344 126 q 614 187 541 126 l 681 57 z "},"ѕ":{"ha":606,"x_min":47,"x_max":557,"o":"m 50 47 l 110 182 q 282 121 188 121 q 380 192 380 121 q 353 257 380 230 q 235 322 325 285 q 47 541 47 399 q 120 688 47 636 q 302 741 192 741 q 515 689 416 741 l 467 557 q 313 606 410 606 q 224 534 224 606 q 264 477 224 501 q 378 424 304 452 q 514 335 471 387 q 557 203 557 283 q 482 45 557 103 q 278 -14 407 -14 q 156 1 203 -14 q 50 47 109 15 z "},"і":{"ha":418,"x_min":54,"x_max":325,"o":"m 228 1008 q 296 980 267 1008 q 325 909 325 952 q 296 840 325 868 q 228 811 268 811 q 158 841 186 811 q 129 909 129 870 q 157 979 129 949 q 228 1008 186 1008 m 147 0 l 147 587 l 54 587 l 54 726 l 318 726 l 318 0 l 147 0 z "},"ї":{"ha":418,"x_min":-47,"x_max":441,"o":"m 147 0 l 147 587 l 54 587 l 54 726 l 318 726 l 318 0 l 147 0 m 350 1006 q 415 978 388 1006 q 441 913 441 951 q 415 846 441 873 q 350 818 389 818 q 284 846 312 818 q 257 913 257 874 q 284 979 257 952 q 350 1006 311 1006 m 45 1006 q 110 978 83 1006 q 138 913 138 951 q 110 846 138 874 q 45 818 83 818 q -20 846 7 818 q -47 913 -47 873 q -21 979 -47 952 q 45 1006 5 1006 z "},"ј":{"ha":461,"x_min":-36,"x_max":374,"o":"m 275 1008 q 345 979 315 1008 q 374 909 374 950 q 346 841 374 871 q 275 811 317 811 q 205 840 235 811 q 176 909 176 869 q 207 980 176 952 q 275 1008 237 1008 m -36 -285 l -36 -134 q 147 -102 98 -134 q 196 14 196 -70 l 196 586 l 64 586 l 64 726 l 366 726 l 366 17 q 269 -211 366 -137 q -36 -285 172 -285 z "},"љ":{"ha":1210,"x_min":31,"x_max":1160,"o":"m 741 467 q 875 472 803 472 q 1084 409 1009 472 q 1160 231 1160 347 q 1092 62 1160 124 q 873 0 1023 0 l 575 0 l 575 593 l 396 593 q 362 310 391 441 q 283 108 333 179 q 175 15 233 37 q 31 -8 118 -8 l 31 142 q 143 188 98 142 q 219 371 188 235 q 250 681 250 507 l 250 726 l 741 726 l 741 467 m 741 132 q 857 129 799 129 q 964 160 937 129 q 991 239 991 192 q 958 313 991 283 q 859 343 924 343 q 741 339 819 343 l 741 132 z "},"њ":{"ha":1166,"x_min":92,"x_max":1117,"o":"m 697 467 q 832 472 760 472 q 1042 409 966 472 q 1117 231 1117 347 q 1048 62 1117 124 q 831 0 980 0 l 532 0 l 532 311 l 258 311 l 258 0 l 92 0 l 92 726 l 258 726 l 258 452 l 532 452 l 532 726 l 697 726 l 697 467 m 697 132 q 814 129 756 129 q 921 160 893 129 q 949 239 949 192 q 915 313 949 283 q 815 343 881 343 q 697 339 776 343 l 697 132 z "},"ћ":{"ha":832,"x_min":-3,"x_max":739,"o":"m 739 0 l 570 0 l 570 415 q 528 522 570 479 q 416 564 487 564 q 330 541 372 564 q 269 489 288 517 l 269 0 l 100 0 l 100 803 l -3 803 l -3 911 l 100 911 l 100 999 l 269 1039 l 269 911 l 534 911 l 534 803 l 269 803 l 269 643 q 453 703 338 703 q 664 626 589 703 q 739 410 739 550 l 739 0 z "},"ќ":{"ha":758,"x_min":92,"x_max":708,"o":"m 708 -4 q 629 -8 672 -8 q 482 122 502 -8 q 264 313 454 313 l 260 313 l 260 0 l 92 0 l 92 726 l 260 726 l 260 453 l 268 453 q 476 610 452 453 q 619 734 495 734 q 696 730 638 734 l 696 593 q 664 596 678 596 q 627 554 637 596 q 441 383 594 416 q 639 172 606 339 q 675 132 647 132 q 708 135 700 132 l 708 -4 m 596 1067 l 444 843 l 310 843 l 424 1067 l 596 1067 z "},"ў":{"ha":751,"x_min":11,"x_max":739,"o":"m 421 -117 q 307 -237 394 -189 q 97 -285 219 -285 l 97 -135 q 293 -36 293 -135 q 239 163 293 28 l 11 726 l 187 726 l 385 225 l 564 726 l 739 726 l 421 -117 m 640 1078 q 553 923 621 977 q 387 869 484 869 q 222 922 288 869 q 136 1078 157 975 l 278 1107 q 392 985 294 985 q 503 1105 492 985 l 640 1078 z "},"џ":{"ha":819,"x_min":92,"x_max":720,"o":"m 720 0 l 481 0 l 481 -253 l 330 -253 l 330 0 l 92 0 l 92 726 l 261 726 l 261 142 l 550 142 l 550 726 l 720 726 l 720 0 z "},"Ґ":{"ha":764,"x_min":102,"x_max":720,"o":"m 720 839 l 279 839 l 279 0 l 102 0 l 102 993 l 571 993 l 571 1211 l 720 1211 l 720 839 z "},"ґ":{"ha":637,"x_min":92,"x_max":596,"o":"m 596 585 l 262 585 l 262 0 l 92 0 l 92 726 l 461 726 l 461 909 l 596 909 l 596 585 z "},"Ā":{"ha":880,"x_min":3,"x_max":876,"o":"m 682 0 l 609 201 l 269 201 l 199 0 l 3 0 l 399 1007 l 477 1007 l 876 0 l 682 0 m 438 703 l 319 336 l 557 336 l 438 703 m 679 1198 l 679 1075 l 178 1075 l 178 1198 l 679 1198 z "},"ā":{"ha":740,"x_min":44,"x_max":707,"o":"m 496 73 q 415 11 473 35 q 296 -14 358 -14 q 111 45 178 -14 q 44 212 44 104 q 139 409 44 338 q 408 480 233 480 q 478 470 437 480 q 316 598 478 598 q 156 566 220 598 l 119 698 q 328 740 207 740 q 571 664 494 740 q 648 378 648 589 l 648 222 q 707 40 648 77 q 660 -5 686 3 q 601 -14 634 -14 q 535 14 564 -14 q 496 73 506 41 m 479 342 q 414 351 436 351 q 214 219 214 351 q 327 121 214 121 q 479 274 479 121 l 479 342 m 591 947 l 591 824 l 90 824 l 90 947 l 591 947 z "},"Ĉ":{"ha":850,"x_min":54,"x_max":809,"o":"m 783 941 l 710 795 q 520 854 651 854 q 317 750 396 854 q 237 486 237 646 q 311 233 237 327 q 507 140 385 140 q 727 240 648 140 l 809 98 q 493 -17 701 -17 q 170 120 285 -17 q 54 494 54 257 q 182 862 54 714 q 509 1010 310 1010 q 783 941 680 1010 m 600 1075 l 493 1176 l 399 1075 l 218 1075 l 458 1289 l 531 1289 l 781 1075 l 600 1075 z "},"ĉ":{"ha":711,"x_min":44,"x_max":686,"o":"m 661 669 l 589 542 q 429 598 529 598 q 276 534 332 598 q 220 357 220 470 q 438 128 220 128 q 604 191 532 128 l 667 57 q 537 -1 593 11 q 407 -14 482 -14 q 141 84 239 -14 q 44 357 44 182 q 151 634 44 528 q 441 740 257 740 q 661 669 568 740 m 505 824 l 398 925 l 304 824 l 123 824 l 363 1038 l 436 1038 l 686 824 l 505 824 z "},"Ċ":{"ha":850,"x_min":54,"x_max":809,"o":"m 783 941 l 710 795 q 520 854 651 854 q 317 750 396 854 q 237 486 237 646 q 311 233 237 327 q 507 140 385 140 q 727 240 648 140 l 809 98 q 493 -17 701 -17 q 170 120 285 -17 q 54 494 54 257 q 182 862 54 714 q 509 1010 310 1010 q 783 941 680 1010 m 502 1280 q 574 1250 544 1280 q 604 1177 604 1219 q 574 1105 604 1135 q 502 1075 544 1075 q 429 1105 459 1075 q 399 1177 399 1135 q 429 1250 399 1219 q 502 1280 459 1280 z "},"ċ":{"ha":711,"x_min":44,"x_max":667,"o":"m 661 669 l 589 542 q 429 598 529 598 q 276 534 332 598 q 220 357 220 470 q 438 128 220 128 q 604 191 532 128 l 667 57 q 537 -1 593 11 q 407 -14 482 -14 q 141 84 239 -14 q 44 357 44 182 q 151 634 44 528 q 441 740 257 740 q 661 669 568 740 m 407 1029 q 479 999 449 1029 q 509 926 509 968 q 479 854 509 884 q 407 824 449 824 q 334 854 364 824 q 304 926 304 884 q 334 999 304 968 q 407 1029 364 1029 z "},"Ē":{"ha":790,"x_min":102,"x_max":736,"o":"m 278 837 l 278 604 l 606 604 l 606 454 l 278 454 l 278 157 l 728 157 l 728 0 l 102 0 l 102 994 l 736 994 l 736 837 l 278 837 m 686 1198 l 686 1075 l 185 1075 l 185 1198 l 686 1198 z "},"ē":{"ha":798,"x_min":44,"x_max":754,"o":"m 740 311 l 221 311 q 281 176 226 224 q 429 128 336 128 q 605 189 545 128 l 671 59 q 404 -14 581 -14 q 141 84 237 -14 q 44 355 44 181 q 150 633 44 527 q 405 740 256 740 q 659 646 563 740 q 754 406 754 551 q 740 311 754 374 m 227 439 l 584 439 q 408 598 566 598 q 227 439 262 598 m 659 947 l 659 824 l 158 824 l 158 947 l 659 947 z "},"Ĕ":{"ha":790,"x_min":102,"x_max":736,"o":"m 278 837 l 278 604 l 606 604 l 606 454 l 278 454 l 278 157 l 728 157 l 728 0 l 102 0 l 102 994 l 736 994 l 736 837 l 278 837 m 663 1295 q 598 1138 663 1201 q 430 1075 533 1075 q 272 1135 331 1075 q 214 1295 214 1196 l 309 1295 q 345 1226 309 1252 q 430 1200 380 1200 q 529 1225 491 1200 q 566 1295 566 1251 l 663 1295 z "},"ĕ":{"ha":798,"x_min":44,"x_max":754,"o":"m 740 311 l 221 311 q 281 176 226 224 q 429 128 336 128 q 605 189 545 128 l 671 59 q 404 -14 581 -14 q 141 84 237 -14 q 44 355 44 181 q 150 633 44 527 q 405 740 256 740 q 659 646 563 740 q 754 406 754 551 q 740 311 754 374 m 227 439 l 584 439 q 408 598 566 598 q 227 439 262 598 m 629 1044 q 564 887 629 950 q 396 824 499 824 q 238 884 297 824 q 180 1044 180 945 l 275 1044 q 311 975 275 1001 q 396 949 347 949 q 495 974 457 949 q 532 1044 532 1000 l 629 1044 z "},"Ė":{"ha":790,"x_min":102,"x_max":736,"o":"m 278 837 l 278 604 l 606 604 l 606 454 l 278 454 l 278 157 l 728 157 l 728 0 l 102 0 l 102 994 l 736 994 l 736 837 l 278 837 m 427 1280 q 499 1250 469 1280 q 530 1177 530 1219 q 499 1105 530 1135 q 427 1075 469 1075 q 354 1105 385 1075 q 324 1177 324 1135 q 354 1250 324 1219 q 427 1280 385 1280 z "},"ė":{"ha":798,"x_min":44,"x_max":754,"o":"m 740 311 l 221 311 q 281 176 226 224 q 429 128 336 128 q 605 189 545 128 l 671 59 q 404 -14 581 -14 q 141 84 237 -14 q 44 355 44 181 q 150 633 44 527 q 405 740 256 740 q 659 646 563 740 q 754 406 754 551 q 740 311 754 374 m 227 439 l 584 439 q 408 598 566 598 q 227 439 262 598 m 393 1029 q 466 999 435 1029 q 496 926 496 968 q 466 854 496 884 q 393 824 435 824 q 320 854 351 824 q 290 926 290 884 q 320 999 290 968 q 393 1029 351 1029 z "},"Ĝ":{"ha":932,"x_min":54,"x_max":878,"o":"m 836 913 l 762 771 q 665 826 730 799 q 553 854 600 854 q 322 754 407 854 q 237 488 237 655 q 320 235 237 330 q 547 140 404 140 q 702 191 641 140 l 702 387 l 564 387 l 564 537 l 878 537 l 878 92 q 716 12 815 41 q 518 -17 616 -17 q 179 123 304 -17 q 54 493 54 263 q 191 867 54 723 q 557 1010 327 1010 q 836 913 721 1010 m 611 1075 l 505 1176 l 410 1075 l 229 1075 l 470 1289 l 543 1289 l 792 1075 l 611 1075 z "},"ĝ":{"ha":697,"x_min":28,"x_max":677,"o":"m 37 -186 l 144 -54 q 342 -136 233 -136 q 463 -114 416 -136 q 511 -54 511 -92 q 406 10 511 10 q 321 3 377 10 q 236 -3 264 -3 q 61 122 61 -3 q 90 193 61 158 q 158 243 119 227 q 34 472 34 324 q 119 665 34 589 q 330 741 205 741 q 493 705 427 741 l 559 782 l 677 675 l 596 616 q 638 466 638 553 q 563 268 638 342 q 372 193 487 193 q 323 197 353 193 l 295 201 q 259 186 290 201 q 227 156 227 172 q 274 129 227 129 q 345 139 295 129 q 429 149 394 149 q 677 -50 677 149 q 578 -222 677 -159 q 339 -285 479 -285 q 37 -186 172 -285 m 207 471 q 242 368 207 407 q 338 329 278 329 q 431 367 399 329 q 464 471 464 405 q 429 564 464 526 q 338 602 394 602 q 243 566 280 602 q 207 471 207 529 m 410 824 l 303 925 l 209 824 l 28 824 l 269 1038 l 341 1038 l 591 824 l 410 824 z "},"Ġ":{"ha":932,"x_min":54,"x_max":878,"o":"m 836 913 l 762 771 q 665 826 730 799 q 553 854 600 854 q 322 754 407 854 q 237 488 237 655 q 320 235 237 330 q 547 140 404 140 q 702 191 641 140 l 702 387 l 564 387 l 564 537 l 878 537 l 878 92 q 716 12 815 41 q 518 -17 616 -17 q 179 123 304 -17 q 54 493 54 263 q 191 867 54 723 q 557 1010 327 1010 q 836 913 721 1010 m 502 1280 q 574 1250 544 1280 q 604 1177 604 1219 q 574 1105 604 1135 q 502 1075 544 1075 q 429 1105 459 1075 q 399 1177 399 1135 q 429 1250 399 1219 q 502 1280 459 1280 z "},"ġ":{"ha":697,"x_min":34,"x_max":677,"o":"m 37 -186 l 144 -54 q 342 -136 233 -136 q 463 -114 416 -136 q 511 -54 511 -92 q 406 10 511 10 q 321 3 377 10 q 236 -3 264 -3 q 61 122 61 -3 q 90 193 61 158 q 158 243 119 227 q 34 472 34 324 q 119 665 34 589 q 330 741 205 741 q 493 705 427 741 l 559 782 l 677 675 l 596 616 q 638 466 638 553 q 563 268 638 342 q 372 193 487 193 q 323 197 353 193 l 295 201 q 259 186 290 201 q 227 156 227 172 q 274 129 227 129 q 345 139 295 129 q 429 149 394 149 q 677 -50 677 149 q 578 -222 677 -159 q 339 -285 479 -285 q 37 -186 172 -285 m 207 471 q 242 368 207 407 q 338 329 278 329 q 431 367 399 329 q 464 471 464 405 q 429 564 464 526 q 338 602 394 602 q 243 566 280 602 q 207 471 207 529 m 312 1029 q 384 999 354 1029 q 414 926 414 968 q 384 854 414 884 q 312 824 354 824 q 239 854 269 824 q 209 926 209 884 q 239 999 209 968 q 312 1029 269 1029 z "},"Ģ":{"ha":932,"x_min":54,"x_max":878,"o":"m 836 913 l 762 771 q 665 826 730 799 q 553 854 600 854 q 322 754 407 854 q 237 488 237 655 q 320 235 237 330 q 547 140 404 140 q 702 191 641 140 l 702 387 l 564 387 l 564 537 l 878 537 l 878 92 q 716 12 815 41 q 518 -17 616 -17 q 179 123 304 -17 q 54 493 54 263 q 191 867 54 723 q 557 1010 327 1010 q 836 913 721 1010 m 374 -288 l 347 -202 q 394 -208 370 -208 q 483 -146 483 -208 q 469 -103 483 -124 q 434 -77 455 -82 l 492 -16 q 614 -157 614 -41 q 566 -259 614 -222 q 441 -296 517 -296 q 374 -288 406 -296 z "},"ģ":{"ha":697,"x_min":34,"x_max":677,"o":"m 37 -186 l 144 -54 q 342 -136 233 -136 q 463 -114 416 -136 q 511 -54 511 -92 q 406 10 511 10 q 321 3 377 10 q 236 -3 264 -3 q 61 122 61 -3 q 90 193 61 158 q 158 243 119 227 q 34 472 34 324 q 119 665 34 589 q 330 741 205 741 q 493 705 427 741 l 559 782 l 677 675 l 596 616 q 638 466 638 553 q 563 268 638 342 q 372 193 487 193 q 323 197 353 193 l 295 201 q 259 186 290 201 q 227 156 227 172 q 274 129 227 129 q 345 139 295 129 q 429 149 394 149 q 677 -50 677 149 q 578 -222 677 -159 q 339 -285 479 -285 q 37 -186 172 -285 m 207 471 q 242 368 207 407 q 338 329 278 329 q 431 367 399 329 q 464 471 464 405 q 429 564 464 526 q 338 602 394 602 q 243 566 280 602 q 207 471 207 529 m 370 1165 l 425 1099 q 372 1039 379 1053 q 365 1017 365 1025 q 393 971 365 998 q 422 911 422 945 q 395 848 422 871 q 330 824 369 824 q 243 943 243 824 q 370 1165 243 1067 z "},"Ĥ":{"ha":949,"x_min":102,"x_max":848,"o":"m 673 0 l 673 448 l 278 448 l 278 0 l 102 0 l 102 994 l 278 994 l 278 604 l 673 604 l 673 994 l 848 994 l 848 0 l 673 0 m 581 1075 l 475 1176 l 380 1075 l 199 1075 l 440 1289 l 513 1289 l 762 1075 l 581 1075 z "},"ĥ":{"ha":823,"x_min":92,"x_max":732,"o":"m 562 0 l 562 448 q 519 555 562 515 q 410 596 477 596 q 325 573 368 596 q 264 522 282 551 l 264 0 l 92 0 l 92 997 l 264 1038 l 264 680 q 445 740 330 740 q 656 664 581 740 q 732 448 732 589 l 732 0 l 562 0 m 525 1075 l 418 1176 l 324 1075 l 143 1075 l 384 1289 l 456 1289 l 706 1075 l 525 1075 z "},"Ħ":{"ha":974,"x_min":17,"x_max":957,"o":"m 957 748 l 863 748 l 863 0 l 689 0 l 689 447 l 288 447 l 288 0 l 111 0 l 111 748 l 17 748 l 17 853 l 111 853 l 111 994 l 288 994 l 288 853 l 689 853 l 689 994 l 863 994 l 863 853 l 957 853 l 957 748 m 689 604 l 689 748 l 288 748 l 288 604 l 689 604 z "},"ħ":{"ha":832,"x_min":-3,"x_max":739,"o":"m 739 0 l 570 0 l 570 415 q 527 523 570 482 q 416 564 484 564 q 332 542 372 564 q 269 489 288 519 l 269 0 l 100 0 l 100 803 l -3 803 l -3 911 l 100 911 l 100 999 l 269 1039 l 269 911 l 534 911 l 534 803 l 269 803 l 269 643 q 453 703 338 703 q 664 626 589 703 q 739 410 739 550 l 739 0 z "},"Ĩ":{"ha":387,"x_min":-47,"x_max":434,"o":"m 105 0 l 105 994 l 281 994 l 281 0 l 105 0 m 51 1055 l -47 1055 q 4 1180 -35 1132 q 101 1229 43 1229 q 207 1203 154 1229 q 275 1177 260 1177 q 334 1229 316 1177 l 434 1229 q 371 1091 408 1128 q 277 1055 334 1055 q 181 1081 235 1055 q 111 1107 127 1107 q 51 1055 76 1107 z "},"ĩ":{"ha":414,"x_min":-32,"x_max":450,"o":"m 137 0 l 137 587 l 44 587 l 44 726 l 309 726 l 309 0 l 137 0 m 66 804 l -32 804 q 20 929 -19 881 q 117 978 59 978 q 222 952 170 978 q 290 926 275 926 q 349 978 332 926 l 450 978 q 387 840 424 877 q 293 804 349 804 q 197 830 251 804 q 127 856 143 856 q 66 804 92 856 z "},"Ī":{"ha":387,"x_min":-57,"x_max":444,"o":"m 105 0 l 105 994 l 281 994 l 281 0 l 105 0 m 444 1198 l 444 1075 l -57 1075 l -57 1198 l 444 1198 z "},"ī":{"ha":414,"x_min":-39,"x_max":462,"o":"m 137 0 l 137 587 l 44 587 l 44 726 l 309 726 l 309 0 l 137 0 m 462 947 l 462 824 l -39 824 l -39 947 l 462 947 z "},"Ĭ":{"ha":387,"x_min":-32,"x_max":418,"o":"m 105 0 l 105 994 l 281 994 l 281 0 l 105 0 m 418 1295 q 353 1138 418 1201 q 184 1075 288 1075 q 27 1135 85 1075 q -32 1295 -32 1196 l 64 1295 q 99 1226 64 1252 q 184 1200 135 1200 q 283 1225 245 1200 q 321 1295 321 1251 l 418 1295 z "},"ĭ":{"ha":414,"x_min":-17,"x_max":433,"o":"m 137 0 l 137 587 l 44 587 l 44 726 l 309 726 l 309 0 l 137 0 m 433 1044 q 368 887 433 950 q 199 824 302 824 q 42 884 100 824 q -17 1044 -17 945 l 79 1044 q 114 975 79 1001 q 199 949 150 949 q 298 974 260 949 q 336 1044 336 1000 l 433 1044 z "},"Į":{"ha":387,"x_min":81,"x_max":397,"o":"m 397 -228 q 260 -267 344 -267 q 136 -233 185 -267 q 81 -122 81 -193 q 111 0 81 -52 l 105 0 l 105 994 l 281 994 l 281 0 l 273 0 q 223 -39 243 -9 q 204 -100 204 -68 q 232 -152 204 -132 q 289 -170 257 -170 q 353 -144 324 -170 l 397 -228 z "},"į":{"ha":414,"x_min":44,"x_max":429,"o":"m 321 909 q 293 840 321 868 q 224 811 264 811 q 154 841 182 811 q 125 909 125 871 q 155 979 125 950 q 224 1008 184 1008 q 293 980 264 1008 q 321 909 321 951 m 429 -228 q 292 -267 376 -267 q 168 -233 217 -267 q 113 -122 113 -193 q 142 0 113 -52 l 137 0 l 137 587 l 44 587 l 44 726 l 308 726 l 308 0 l 305 0 q 255 -39 275 -9 q 236 -100 236 -68 q 264 -152 236 -132 q 321 -170 289 -170 q 385 -144 356 -170 l 429 -228 z "},"Ĳ":{"ha":1099,"x_min":105,"x_max":1008,"o":"m 105 0 l 105 994 l 281 994 l 281 0 l 105 0 m 371 230 l 528 230 q 673 143 551 143 q 796 199 760 143 q 831 370 831 256 l 831 994 l 1008 994 l 1008 376 q 924 82 1008 178 q 654 -14 840 -14 q 454 51 530 -14 q 371 230 378 115 z "},"ĳ":{"ha":864,"x_min":44,"x_max":755,"o":"m 224 1008 q 294 979 265 1008 q 323 909 323 950 q 294 840 323 869 q 224 811 265 811 q 155 840 184 811 q 126 909 126 869 q 155 979 126 950 q 224 1008 184 1008 m 137 0 l 137 587 l 44 587 l 44 726 l 309 726 l 309 0 l 137 0 m 657 1008 q 727 979 698 1008 q 755 909 755 950 q 727 840 755 869 q 657 811 698 811 q 588 840 616 811 q 559 909 559 869 q 588 979 559 950 q 657 1008 616 1008 m 347 -285 l 347 -134 q 530 -101 482 -134 q 578 14 578 -69 l 578 587 l 447 587 l 447 726 l 747 726 l 747 17 q 649 -212 747 -139 q 347 -285 551 -285 z "},"Ĵ":{"ha":740,"x_min":12,"x_max":760,"o":"m 12 230 l 169 230 q 314 143 191 143 q 436 199 401 143 q 472 370 472 256 l 472 994 l 648 994 l 648 376 q 564 82 648 178 q 294 -14 480 -14 q 95 51 171 -14 q 12 230 19 115 m 578 1075 l 472 1176 l 378 1075 l 197 1075 l 437 1289 l 510 1289 l 760 1075 l 578 1075 z "},"ĵ":{"ha":509,"x_min":-26,"x_max":536,"o":"m -8 -285 l -8 -134 q 175 -101 127 -134 q 223 14 223 -69 l 223 587 l 92 587 l 92 726 l 393 726 l 393 17 q 295 -212 393 -139 q -8 -285 197 -285 m 355 824 l 249 925 l 155 824 l -26 824 l 214 1038 l 287 1038 l 536 824 l 355 824 z "},"Ķ":{"ha":857,"x_min":102,"x_max":876,"o":"m 665 0 l 389 423 l 278 272 l 278 0 l 102 0 l 102 994 l 278 994 l 278 518 l 616 994 l 817 994 l 505 559 l 876 0 l 665 0 m 306 -288 l 278 -202 q 326 -208 301 -208 q 414 -146 414 -208 q 400 -103 414 -124 q 366 -77 387 -82 l 423 -16 q 545 -157 545 -41 q 497 -259 545 -222 q 372 -296 449 -296 q 306 -288 338 -296 z "},"ķ":{"ha":761,"x_min":92,"x_max":758,"o":"m 556 0 l 342 329 l 261 243 l 261 0 l 92 0 l 92 997 l 261 1038 l 261 448 l 503 726 l 707 726 l 462 451 l 758 0 l 556 0 m 265 -288 l 237 -202 q 285 -208 260 -208 q 374 -146 374 -208 q 360 -103 374 -124 q 325 -77 346 -82 l 382 -16 q 505 -157 505 -41 q 456 -259 505 -222 q 332 -296 408 -296 q 265 -288 297 -296 z "},"ĸ":{"ha":798,"x_min":97,"x_max":785,"o":"m 572 0 l 368 307 l 267 196 l 267 0 l 97 0 l 97 726 l 267 726 l 267 400 l 542 726 l 746 726 l 476 427 l 785 0 l 572 0 z "},"Ļ":{"ha":768,"x_min":102,"x_max":727,"o":"m 102 0 l 102 994 l 278 994 l 278 157 l 727 157 l 727 0 l 102 0 m 306 -288 l 278 -202 q 326 -208 301 -208 q 414 -146 414 -208 q 400 -103 414 -124 q 366 -77 387 -82 l 423 -16 q 545 -157 545 -41 q 497 -259 545 -222 q 372 -296 449 -296 q 306 -288 338 -296 z "},"ļ":{"ha":410,"x_min":91,"x_max":370,"o":"m 121 997 l 290 1038 l 290 221 q 370 61 290 87 q 236 -14 331 -14 q 121 146 121 -14 l 121 997 m 119 -288 l 91 -202 q 138 -208 114 -208 q 227 -146 227 -208 q 213 -103 227 -124 q 178 -77 199 -82 l 236 -16 q 358 -157 358 -41 q 310 -259 358 -222 q 185 -296 262 -296 q 119 -288 151 -296 z "},"Ņ":{"ha":927,"x_min":102,"x_max":825,"o":"m 753 -14 l 271 615 l 271 -1 l 102 -1 l 102 994 l 186 994 l 656 394 l 656 994 l 825 994 l 825 -14 l 753 -14 m 342 -288 l 315 -202 q 362 -208 338 -208 q 451 -146 451 -208 q 437 -103 451 -124 q 402 -77 423 -82 l 460 -16 q 582 -157 582 -41 q 534 -259 582 -222 q 409 -296 486 -296 q 342 -288 374 -296 z "},"ņ":{"ha":820,"x_min":92,"x_max":728,"o":"m 559 0 l 559 420 q 523 555 559 513 q 407 598 488 598 q 327 577 370 598 q 261 525 285 556 l 261 0 l 92 0 l 92 726 l 214 726 l 245 659 q 449 740 314 740 q 653 662 578 740 q 728 446 728 585 l 728 0 l 559 0 m 288 -288 l 260 -202 q 308 -208 283 -208 q 397 -146 397 -208 q 383 -103 397 -124 q 348 -77 369 -82 l 406 -16 q 528 -157 528 -41 q 479 -259 528 -222 q 355 -296 431 -296 q 288 -288 320 -296 z "},"ŉ":{"ha":949,"x_min":0,"x_max":857,"o":"m 43 711 l 0 768 q 55 818 45 802 q 65 852 65 834 q 42 893 65 869 q 18 944 18 916 q 98 1024 18 1024 q 181 930 181 1024 q 43 711 181 797 m 688 0 l 688 420 q 652 555 688 513 q 536 598 616 598 q 456 577 498 598 q 390 525 414 556 l 390 0 l 220 0 l 220 726 l 342 726 l 374 659 q 578 740 443 740 q 782 662 707 740 q 857 446 857 585 l 857 0 l 688 0 z "},"Ŋ":{"ha":947,"x_min":102,"x_max":850,"o":"m 850 273 q 784 57 850 135 q 596 -21 718 -21 q 506 -3 552 -21 q 436 40 460 16 l 504 164 q 583 132 541 132 q 673 254 673 132 l 673 615 q 626 798 673 741 q 472 854 579 854 q 365 826 420 854 q 278 755 309 797 l 278 0 l 102 0 l 102 994 l 220 994 l 254 908 q 511 1011 353 1011 q 758 916 666 1011 q 850 652 850 821 l 850 273 z "},"ŋ":{"ha":820,"x_min":92,"x_max":729,"o":"m 729 50 q 410 -288 729 -284 l 410 -140 q 558 36 558 -140 l 558 419 q 523 556 558 513 q 407 599 488 599 q 328 578 369 599 q 261 525 283 555 l 261 0 l 92 0 l 92 726 l 214 726 l 244 659 q 449 741 313 741 q 656 659 582 741 q 729 446 729 580 l 729 50 z "},"Ō":{"ha":977,"x_min":54,"x_max":922,"o":"m 54 505 q 171 864 54 718 q 481 1011 287 1011 q 809 878 696 1011 q 922 505 922 745 q 804 124 922 265 q 468 -17 686 -17 q 161 123 268 -17 q 54 505 54 262 m 237 505 q 296 235 237 331 q 468 140 355 140 q 670 233 600 140 q 739 505 739 327 q 481 854 739 854 q 300 760 363 854 q 237 505 237 665 m 732 1198 l 732 1075 l 231 1075 l 231 1198 l 732 1198 z "},"ō":{"ha":786,"x_min":44,"x_max":742,"o":"m 44 365 q 140 635 44 531 q 393 740 236 740 q 650 640 559 740 q 742 365 742 539 q 649 89 742 191 q 393 -14 555 -14 q 136 90 228 -14 q 44 365 44 193 m 220 365 q 393 125 220 125 q 519 187 473 125 q 566 365 566 250 q 393 602 566 602 q 267 539 314 602 q 220 365 220 477 m 644 947 l 644 824 l 143 824 l 143 947 l 644 947 z "},"Ŏ":{"ha":977,"x_min":54,"x_max":922,"o":"m 54 505 q 171 864 54 718 q 481 1011 287 1011 q 809 878 696 1011 q 922 505 922 745 q 804 124 922 265 q 468 -17 686 -17 q 161 123 268 -17 q 54 505 54 262 m 237 505 q 296 235 237 331 q 468 140 355 140 q 670 233 600 140 q 739 505 739 327 q 481 854 739 854 q 300 760 363 854 q 237 505 237 665 m 715 1295 q 650 1138 715 1201 q 481 1075 585 1075 q 324 1135 382 1075 q 265 1295 265 1196 l 361 1295 q 396 1226 361 1252 q 481 1200 432 1200 q 580 1225 543 1200 q 618 1295 618 1251 l 715 1295 z "},"ŏ":{"ha":786,"x_min":44,"x_max":742,"o":"m 44 365 q 140 635 44 531 q 393 740 236 740 q 650 640 559 740 q 742 365 742 539 q 649 89 742 191 q 393 -14 555 -14 q 136 90 228 -14 q 44 365 44 193 m 220 365 q 393 125 220 125 q 519 187 473 125 q 566 365 566 250 q 393 602 566 602 q 267 539 314 602 q 220 365 220 477 m 627 1044 q 562 887 627 950 q 393 824 496 824 q 236 884 294 824 q 177 1044 177 945 l 273 1044 q 308 975 273 1001 q 393 949 344 949 q 492 974 454 949 q 530 1044 530 1000 l 627 1044 z "},"Ŗ":{"ha":848,"x_min":102,"x_max":865,"o":"m 662 0 l 397 410 q 285 415 357 411 l 285 0 l 102 0 l 102 994 q 216 999 117 994 q 377 1004 316 1004 q 755 711 755 1004 q 703 550 755 623 q 572 448 651 477 l 865 0 l 662 0 m 285 840 l 285 564 q 359 560 334 560 q 521 591 470 560 q 572 713 572 623 q 517 815 572 786 q 345 844 463 844 q 285 840 316 844 m 306 -288 l 278 -202 q 326 -208 301 -208 q 414 -146 414 -208 q 400 -103 414 -124 q 366 -77 387 -82 l 423 -16 q 545 -157 545 -41 q 497 -259 545 -222 q 372 -296 449 -296 q 306 -288 338 -296 z "},"ŗ":{"ha":593,"x_min":50,"x_max":583,"o":"m 511 568 q 412 598 466 598 q 307 545 353 598 q 261 414 261 491 l 261 0 l 92 0 l 92 726 l 261 726 l 261 660 q 450 740 332 740 q 583 713 537 740 l 511 568 m 78 -288 l 50 -202 q 98 -208 73 -208 q 186 -146 186 -208 q 173 -103 186 -124 q 138 -77 159 -82 l 195 -16 q 317 -157 317 -41 q 269 -259 317 -222 q 144 -296 221 -296 q 78 -288 110 -296 z "},"Ŝ":{"ha":710,"x_min":54,"x_max":656,"o":"m 54 55 l 119 213 q 325 140 224 140 q 480 248 480 140 q 444 345 480 299 q 293 449 407 391 q 139 543 178 506 q 78 631 99 580 q 56 743 56 682 q 141 935 56 859 q 357 1010 225 1010 q 610 946 530 1010 l 557 794 q 361 861 464 861 q 266 828 300 861 q 233 745 233 796 q 422 567 233 659 q 566 477 522 518 q 633 381 610 436 q 656 260 656 327 q 561 61 656 139 q 305 -17 465 -17 q 54 55 166 -17 m 464 1075 l 357 1176 l 263 1075 l 82 1075 l 323 1289 l 395 1289 l 645 1075 l 464 1075 z "},"ŝ":{"ha":598,"x_min":14,"x_max":577,"o":"m 47 47 l 107 182 q 279 121 183 121 q 378 192 378 121 q 348 260 378 233 q 232 322 318 286 q 44 541 44 400 q 116 687 44 635 q 300 740 188 740 q 513 689 413 740 l 464 557 q 309 605 408 605 q 220 534 220 605 q 250 484 220 507 q 374 424 279 462 q 512 333 470 387 q 554 203 554 279 q 479 44 554 102 q 275 -14 404 -14 q 159 -2 203 -14 q 47 47 115 10 m 396 824 l 290 925 l 195 824 l 14 824 l 255 1038 l 328 1038 l 577 824 l 396 824 z "},"Ŧ":{"ha":850,"x_min":14,"x_max":836,"o":"m 836 838 l 505 838 l 505 529 l 721 529 l 721 418 l 505 418 l 505 0 l 329 0 l 329 418 l 114 418 l 114 529 l 329 529 l 329 838 l 14 838 l 14 994 l 836 994 l 836 838 z "},"ŧ":{"ha":551,"x_min":33,"x_max":511,"o":"m 511 7 q 343 -14 452 -14 q 117 222 117 -14 l 117 338 l 33 338 l 33 443 l 117 443 l 117 590 l 33 590 l 33 726 l 117 726 l 117 873 l 288 936 l 288 726 l 486 726 l 486 590 l 288 590 l 288 443 l 452 443 l 452 338 l 288 338 l 288 272 q 311 161 288 192 q 397 129 336 129 q 511 163 456 129 l 511 7 z "},"Ũ":{"ha":941,"x_min":102,"x_max":840,"o":"m 102 994 l 278 994 l 278 320 q 327 190 278 240 q 461 140 376 140 q 610 189 557 140 q 663 323 663 238 l 663 994 l 840 994 l 840 310 q 737 70 840 157 q 463 -17 634 -17 q 196 68 290 -17 q 102 311 102 153 l 102 994 m 328 1055 l 230 1055 q 282 1180 243 1132 q 378 1229 321 1229 q 484 1203 431 1229 q 552 1177 537 1177 q 611 1229 593 1177 l 711 1229 q 648 1091 686 1128 q 555 1055 611 1055 q 459 1081 513 1055 q 389 1107 405 1107 q 328 1055 353 1107 z "},"ũ":{"ha":821,"x_min":92,"x_max":729,"o":"m 559 -1 l 559 60 q 460 8 524 30 q 345 -14 397 -14 q 92 255 92 -14 l 92 726 l 261 726 l 261 268 q 387 128 261 128 q 494 158 444 128 q 559 227 543 188 l 559 726 l 729 726 l 729 -1 l 559 -1 m 269 804 l 170 804 q 222 929 183 881 q 319 978 261 978 q 425 952 372 978 q 492 926 477 926 q 551 978 534 926 l 652 978 q 589 840 626 877 q 495 804 551 804 q 399 830 453 804 q 329 856 345 856 q 269 804 294 856 z "},"Ū":{"ha":941,"x_min":102,"x_max":840,"o":"m 102 994 l 278 994 l 278 320 q 327 190 278 240 q 461 140 376 140 q 610 189 557 140 q 663 323 663 238 l 663 994 l 840 994 l 840 310 q 737 70 840 157 q 463 -17 634 -17 q 196 68 290 -17 q 102 311 102 153 l 102 994 m 721 1198 l 721 1075 l 220 1075 l 220 1198 l 721 1198 z "},"ū":{"ha":821,"x_min":92,"x_max":729,"o":"m 559 -1 l 559 60 q 460 8 524 30 q 345 -14 397 -14 q 92 255 92 -14 l 92 726 l 261 726 l 261 268 q 387 128 261 128 q 494 158 444 128 q 559 227 543 188 l 559 726 l 729 726 l 729 -1 l 559 -1 m 661 947 l 661 824 l 160 824 l 160 947 l 661 947 z "},"Ŭ":{"ha":941,"x_min":102,"x_max":840,"o":"m 102 994 l 278 994 l 278 320 q 327 190 278 240 q 461 140 376 140 q 610 189 557 140 q 663 323 663 238 l 663 994 l 840 994 l 840 310 q 737 70 840 157 q 463 -17 634 -17 q 196 68 290 -17 q 102 311 102 153 l 102 994 m 695 1295 q 630 1138 695 1201 q 462 1075 565 1075 q 304 1135 363 1075 q 245 1295 245 1196 l 341 1295 q 377 1226 341 1252 q 462 1200 412 1200 q 561 1225 523 1200 q 598 1295 598 1251 l 695 1295 z "},"ŭ":{"ha":821,"x_min":92,"x_max":729,"o":"m 559 -1 l 559 60 q 460 8 524 30 q 345 -14 397 -14 q 92 255 92 -14 l 92 726 l 261 726 l 261 268 q 387 128 261 128 q 494 158 444 128 q 559 227 543 188 l 559 726 l 729 726 l 729 -1 l 559 -1 m 635 1044 q 570 887 635 950 q 401 824 505 824 q 244 884 302 824 q 185 1044 185 945 l 281 1044 q 316 975 281 1001 q 401 949 352 949 q 500 974 463 949 q 538 1044 538 1000 l 635 1044 z "},"Ų":{"ha":941,"x_min":102,"x_max":839,"o":"m 839 310 q 737 69 839 155 q 545 -12 661 5 q 499 -100 499 -43 q 527 -152 499 -132 q 584 -170 552 -170 q 648 -144 619 -170 l 692 -228 q 555 -267 639 -267 q 431 -233 480 -267 q 376 -122 376 -193 q 399 -14 376 -61 q 179 84 256 1 q 102 311 102 168 l 102 993 l 278 993 l 278 319 q 328 189 278 237 q 461 140 378 140 q 611 190 557 140 q 664 323 664 240 l 664 993 l 839 993 l 839 310 z "},"ų":{"ha":821,"x_min":92,"x_max":842,"o":"m 842 -228 q 705 -267 789 -267 q 582 -233 631 -267 q 526 -122 526 -193 q 559 0 526 -48 l 559 60 q 460 8 523 29 q 345 -14 398 -14 q 92 256 92 -14 l 92 726 l 261 726 l 261 268 q 386 127 261 127 q 487 155 437 127 q 559 228 541 183 l 559 726 l 729 726 l 729 0 l 719 0 q 669 -39 688 -9 q 650 -100 650 -68 q 677 -152 650 -132 q 734 -170 702 -170 q 798 -144 770 -170 l 842 -228 z "},"Ŵ":{"ha":1227,"x_min":3,"x_max":1224,"o":"m 903 -14 l 830 -14 l 613 613 l 402 -14 l 330 -14 l 3 994 l 187 994 l 374 394 l 575 994 l 652 994 l 854 394 l 1040 994 l 1224 994 l 903 -14 m 720 1075 l 614 1176 l 519 1075 l 338 1075 l 579 1289 l 652 1289 l 901 1075 l 720 1075 z "},"ŵ":{"ha":1088,"x_min":9,"x_max":1080,"o":"m 805 -14 l 743 -14 l 544 433 l 345 -14 l 283 -14 l 9 726 l 187 726 l 333 293 l 511 726 l 572 726 l 755 290 l 913 726 l 1080 726 l 805 -14 m 648 824 l 541 925 l 447 824 l 266 824 l 507 1038 l 579 1038 l 829 824 l 648 824 z "},"Ŷ":{"ha":852,"x_min":3,"x_max":848,"o":"m 515 408 l 515 0 l 338 0 l 338 408 l 3 994 l 191 994 l 426 570 l 662 994 l 848 994 l 515 408 m 526 1075 l 420 1176 l 326 1075 l 144 1075 l 385 1289 l 458 1289 l 707 1075 l 526 1075 z "},"ŷ":{"ha":741,"x_min":3,"x_max":731,"o":"m 413 -117 q 297 -237 386 -189 q 89 -285 208 -285 l 89 -135 q 285 -37 285 -135 q 231 163 285 28 l 3 726 l 179 726 l 377 224 l 555 726 l 731 726 l 413 -117 m 467 824 l 361 925 l 267 824 l 85 824 l 326 1038 l 399 1038 l 648 824 l 467 824 z "},"ſ":{"ha":501,"x_min":104,"x_max":521,"o":"m 521 998 l 475 869 q 385 888 425 888 q 302 851 330 888 q 273 743 273 814 l 273 0 l 104 0 l 104 724 q 173 941 104 861 q 374 1024 244 1024 q 521 998 446 1024 z "},"Ǻ":{"ha":880,"x_min":3,"x_max":876,"o":"m 876 0 l 682 0 l 609 201 l 269 201 l 199 0 l 3 0 l 373 875 q 269 1001 269 909 q 367 1125 269 1090 l 452 1274 l 619 1274 l 500 1129 q 610 1001 610 1099 q 503 875 610 909 l 876 0 m 511 1000 q 439 1059 511 1059 q 391 1044 412 1059 q 367 1000 367 1027 q 439 942 367 942 q 511 1000 511 942 m 557 336 l 438 667 l 319 336 l 557 336 z "},"ǻ":{"ha":740,"x_min":44,"x_max":707,"o":"m 496 73 q 415 11 473 35 q 296 -14 358 -14 q 111 45 178 -14 q 44 212 44 104 q 139 409 44 338 q 408 480 233 480 q 478 470 437 480 q 316 598 478 598 q 156 566 220 598 l 119 698 q 328 740 207 740 q 571 664 494 740 q 648 378 648 589 l 648 222 q 707 40 648 77 q 660 -5 686 3 q 601 -14 634 -14 q 535 14 564 -14 q 496 73 506 41 m 479 342 q 414 351 436 351 q 214 219 214 351 q 327 121 214 121 q 479 274 479 121 l 479 342 m 342 791 q 221 830 271 791 q 172 934 172 869 q 223 1036 172 996 q 342 1077 275 1077 q 463 1037 412 1077 q 513 934 513 997 q 463 831 513 871 q 342 791 412 791 m 342 998 q 291 981 312 998 q 270 933 270 964 q 342 868 270 868 q 414 933 414 868 q 342 998 414 998 m 534 1310 l 380 1111 l 252 1111 l 366 1310 l 534 1310 z "},"Ǽ":{"ha":1299,"x_min":1,"x_max":1258,"o":"m 800 837 l 800 604 l 1128 604 l 1128 454 l 800 454 l 800 157 l 1251 157 l 1251 0 l 624 0 l 624 201 l 321 201 l 197 0 l 1 0 l 604 994 l 1258 994 l 1258 837 l 800 837 m 624 336 l 624 730 l 385 336 l 624 336 m 1015 1274 l 862 1075 l 733 1075 l 848 1274 l 1015 1274 z "},"ǽ":{"ha":1198,"x_min":34,"x_max":1175,"o":"m 469 342 q 404 351 435 351 q 203 219 203 351 q 317 121 203 121 q 469 274 469 121 l 469 342 m 1160 311 l 635 311 q 701 174 640 223 q 849 128 758 128 q 1025 189 964 128 l 1091 59 q 824 -14 1002 -14 q 642 31 695 -14 l 644 0 l 510 0 q 486 71 501 23 q 396 6 459 29 q 286 -14 343 -14 q 106 41 172 -14 q 34 212 34 101 q 150 423 34 353 q 397 480 245 480 q 468 470 432 480 q 306 599 468 599 q 146 566 212 599 l 109 698 q 317 740 197 740 q 581 640 510 740 q 825 740 683 740 q 1075 650 978 740 q 1175 406 1175 557 q 1160 311 1175 372 m 828 598 q 705 554 755 598 q 641 439 657 512 l 1004 439 q 828 598 987 598 m 778 1023 l 625 824 l 496 824 l 610 1023 l 778 1023 z "},"Ǿ":{"ha":949,"x_min":41,"x_max":909,"o":"m 795 1011 l 909 1011 l 804 868 q 909 505 909 736 q 790 124 909 265 q 454 -17 672 -17 q 210 60 308 -17 l 154 -17 l 41 -17 l 145 125 q 41 505 41 264 q 157 864 41 718 q 468 1011 273 1011 q 738 932 632 1011 l 795 1011 m 260 281 l 637 795 q 468 854 575 854 q 287 760 350 854 q 224 505 224 665 q 260 281 224 371 m 692 715 l 312 198 q 454 140 368 140 q 656 233 587 140 q 726 505 726 327 q 692 715 726 635 m 663 1274 l 509 1075 l 380 1075 l 495 1274 l 663 1274 z "},"ǿ":{"ha":786,"x_min":44,"x_max":742,"o":"m 742 740 l 659 630 q 742 365 742 531 q 649 89 742 191 q 393 -14 555 -14 q 205 33 284 -14 l 170 -14 l 44 -14 l 129 98 q 44 365 44 200 q 140 635 44 531 q 393 740 236 740 q 582 694 503 740 l 616 740 l 742 740 m 491 574 q 393 602 452 602 q 267 539 314 602 q 220 365 220 477 q 236 239 220 290 l 491 574 m 295 152 q 393 125 334 125 q 519 187 473 125 q 566 365 566 250 q 550 487 566 437 l 295 152 m 554 1023 l 401 824 l 272 824 l 387 1023 l 554 1023 z "},"Ẁ":{"ha":1227,"x_min":3,"x_max":1224,"o":"m 903 -14 l 830 -14 l 613 613 l 402 -14 l 330 -14 l 3 994 l 187 994 l 374 394 l 575 994 l 652 994 l 854 394 l 1040 994 l 1224 994 l 903 -14 m 575 1075 l 422 1274 l 603 1274 l 718 1075 l 575 1075 z "},"ẁ":{"ha":1088,"x_min":9,"x_max":1080,"o":"m 805 -14 l 743 -14 l 544 433 l 345 -14 l 283 -14 l 9 726 l 187 726 l 333 293 l 511 726 l 572 726 l 755 290 l 913 726 l 1080 726 l 805 -14 m 511 824 l 357 1023 l 538 1023 l 653 824 l 511 824 z "},"Ẃ":{"ha":1227,"x_min":3,"x_max":1224,"o":"m 903 -14 l 830 -14 l 613 613 l 402 -14 l 330 -14 l 3 994 l 187 994 l 374 394 l 575 994 l 652 994 l 854 394 l 1040 994 l 1224 994 l 903 -14 m 806 1274 l 652 1075 l 524 1075 l 638 1274 l 806 1274 z "},"ẃ":{"ha":1088,"x_min":9,"x_max":1080,"o":"m 805 -14 l 743 -14 l 544 433 l 345 -14 l 283 -14 l 9 726 l 187 726 l 333 293 l 511 726 l 572 726 l 755 290 l 913 726 l 1080 726 l 805 -14 m 725 1023 l 572 824 l 443 824 l 557 1023 l 725 1023 z "},"Ẅ":{"ha":1227,"x_min":3,"x_max":1224,"o":"m 903 -14 l 830 -14 l 613 613 l 402 -14 l 330 -14 l 3 994 l 187 994 l 374 394 l 575 994 l 652 994 l 854 394 l 1040 994 l 1224 994 l 903 -14 m 404 1268 q 472 1240 444 1268 q 500 1171 500 1211 q 472 1103 500 1131 q 404 1075 444 1075 q 335 1103 363 1075 q 307 1171 307 1131 q 335 1240 307 1211 q 404 1268 363 1268 m 824 1268 q 892 1240 864 1268 q 920 1171 920 1211 q 892 1103 920 1131 q 824 1075 864 1075 q 755 1103 784 1075 q 727 1171 727 1131 q 755 1240 727 1211 q 824 1268 784 1268 z "},"ẅ":{"ha":1088,"x_min":9,"x_max":1080,"o":"m 805 -14 l 743 -14 l 544 433 l 345 -14 l 283 -14 l 9 726 l 187 726 l 333 293 l 511 726 l 572 726 l 755 290 l 913 726 l 1080 726 l 805 -14 m 331 1017 q 399 989 371 1017 q 427 920 427 960 q 399 852 427 880 q 331 824 371 824 q 262 852 291 824 q 234 920 234 880 q 262 989 234 960 q 331 1017 291 1017 m 751 1017 q 820 989 791 1017 q 848 920 848 960 q 820 852 848 880 q 751 824 791 824 q 683 852 711 824 q 654 920 654 880 q 683 989 654 960 q 751 1017 711 1017 z "},"Ỳ":{"ha":852,"x_min":3,"x_max":848,"o":"m 515 408 l 515 0 l 338 0 l 338 408 l 3 994 l 191 994 l 426 570 l 662 994 l 848 994 l 515 408 m 397 1075 l 243 1274 l 425 1274 l 539 1075 l 397 1075 z "},"ỳ":{"ha":741,"x_min":3,"x_max":731,"o":"m 413 -117 q 297 -237 386 -189 q 89 -285 208 -285 l 89 -135 q 285 -37 285 -135 q 231 163 285 28 l 3 726 l 179 726 l 377 224 l 555 726 l 731 726 l 413 -117 m 320 824 l 167 1023 l 348 1023 l 463 824 l 320 824 z "},"―":{"ha":1020,"x_min":43,"x_max":971,"o":"m 43 340 l 43 477 l 971 477 l 971 340 l 43 340 z "},"‗":{"ha":814,"x_min":-5,"x_max":818,"o":"m -5 -172 l -5 -85 l 818 -85 l 818 -172 l -5 -172 m -5 -342 l -5 -254 l 818 -254 l 818 -342 l -5 -342 z "},"′":{"ha":275,"x_min":31,"x_max":275,"o":"m 162 716 l 31 716 l 110 995 l 275 995 l 162 716 z "},"″":{"ha":519,"x_min":31,"x_max":519,"o":"m 162 716 l 31 716 l 110 995 l 275 995 l 162 716 m 406 716 l 275 716 l 354 995 l 519 995 l 406 716 z "},"‼":{"ha":846,"x_min":148,"x_max":709,"o":"m 289 259 l 218 259 q 165 733 165 598 l 165 1011 l 342 1011 l 342 734 q 289 259 342 598 m 259 209 q 337 176 305 209 q 370 98 370 144 q 337 19 370 52 q 259 -14 305 -14 q 180 19 213 -14 q 148 98 148 52 q 180 176 148 144 q 259 209 213 209 m 628 259 l 557 259 q 505 733 505 598 l 505 1011 l 681 1011 l 681 734 q 628 259 681 598 m 598 209 q 676 176 644 209 q 709 98 709 144 q 676 19 709 52 q 598 -14 644 -14 q 519 19 552 -14 q 487 98 487 52 q 519 176 487 144 q 598 209 552 209 z "},"‾":{"ha":728,"x_min":-4,"x_max":532,"o":"m 532 998 l 532 879 l -4 879 l -4 998 l 532 998 z "},"ⁿ":{"ha":564,"x_min":89,"x_max":486,"o":"m 486 549 l 372 549 l 372 817 q 286 918 372 918 q 203 871 236 918 l 203 549 l 89 549 l 89 1003 l 170 1003 l 186 960 q 311 1011 232 1011 q 441 960 395 1011 q 486 825 486 910 l 486 549 z "},"₤":{"ha":728,"x_min":69,"x_max":720,"o":"m 720 143 q 390 0 635 0 l 69 0 l 69 123 q 131 195 131 144 l 131 349 l 69 349 l 69 446 l 131 446 l 131 547 l 69 547 l 69 644 l 131 644 l 131 673 q 213 923 131 835 q 427 1011 295 1011 q 650 913 574 1011 l 562 793 q 411 863 507 863 q 307 679 307 863 l 307 644 l 515 644 l 515 547 l 307 547 l 307 446 l 515 446 l 515 349 l 307 349 l 307 157 l 437 157 q 591 239 531 157 l 720 143 z "},"₧":{"ha":1614,"x_min":94,"x_max":1569,"o":"m 1569 203 q 1497 45 1569 104 q 1304 -14 1424 -14 q 1125 41 1206 -14 q 972 -14 1060 -14 q 761 222 761 -14 l 761 591 l 672 591 q 339 361 616 361 q 268 366 318 361 l 268 0 l 94 0 l 94 994 q 286 1001 191 1001 q 579 927 479 1001 q 684 725 675 856 l 761 725 l 761 874 l 929 937 l 929 725 l 1047 725 l 1047 591 l 929 591 l 929 262 q 950 158 929 187 q 1023 129 971 129 q 1139 195 1083 129 q 1311 121 1217 121 q 1400 195 1400 121 q 1360 271 1400 241 q 1290 309 1338 286 q 1213 346 1229 337 q 1086 538 1086 416 q 1154 689 1086 637 q 1325 741 1221 741 q 1533 690 1441 741 l 1487 561 q 1337 608 1420 608 q 1254 534 1254 608 q 1282 485 1254 507 q 1360 441 1310 463 q 1440 404 1434 408 q 1569 203 1569 336 m 511 689 q 311 846 511 846 q 268 844 282 846 l 268 519 q 326 515 304 515 q 467 558 420 515 q 511 689 511 599 z "},"℅":{"ha":1092,"x_min":66,"x_max":1026,"o":"m 477 583 q 300 533 402 533 q 128 598 191 533 q 66 777 66 664 q 136 962 66 892 q 318 1031 205 1031 q 473 981 408 1031 l 417 886 q 314 927 369 927 q 220 882 251 927 q 192 778 192 843 q 321 637 192 637 q 428 683 376 637 l 477 583 m 905 1011 l 306 -24 l 192 -24 l 791 1011 l 905 1011 m 1026 212 q 967 34 1026 101 q 799 -37 905 -37 q 630 34 692 -37 q 571 212 571 102 q 635 392 571 322 q 799 460 696 460 q 965 393 905 460 q 1026 212 1026 326 m 900 212 q 799 356 900 356 q 697 212 697 356 q 799 66 697 66 q 873 104 844 66 q 900 212 900 140 z "},"ℓ":{"ha":814,"x_min":120,"x_max":671,"o":"m 671 56 q 586 6 645 27 q 488 -14 531 -14 q 280 81 338 -14 q 233 316 233 155 l 175 281 l 120 408 q 233 475 195 452 l 233 551 q 284 904 233 796 q 465 1011 336 1011 q 609 957 555 1011 q 663 814 663 903 q 403 429 663 654 l 403 302 q 497 123 403 123 q 600 166 559 123 l 671 56 m 511 806 q 471 874 511 874 q 422 848 437 874 q 403 722 403 813 l 403 625 q 511 806 511 732 z "},"№":{"ha":1341,"x_min":102,"x_max":1276,"o":"m 1276 450 q 1222 275 1276 338 q 1068 211 1166 211 q 915 276 972 211 q 857 450 857 341 q 915 621 857 556 q 1068 686 972 686 q 1222 623 1166 686 q 1276 450 1276 561 m 1246 -4 l 890 -4 l 890 111 l 1246 111 l 1246 -4 m 766 -12 l 696 -12 l 264 610 l 264 0 l 102 0 l 102 1006 l 172 1006 l 604 385 l 604 994 l 766 994 l 766 -12 m 1158 450 q 1065 583 1158 583 q 974 452 974 583 q 1068 315 974 315 q 1158 450 1158 315 z "},"℮":{"ha":763,"x_min":41,"x_max":721,"o":"m 721 364 l 169 364 l 169 113 q 378 29 271 29 q 528 60 442 29 q 640 123 613 90 l 672 87 q 380 -14 562 -14 q 137 87 233 -14 q 41 355 41 189 q 141 633 41 527 q 382 740 241 740 q 630 627 538 740 q 721 364 721 514 m 170 601 l 170 410 l 597 410 l 597 601 q 384 697 515 697 q 170 601 258 697 z "},"⅛":{"ha":1131,"x_min":62,"x_max":1082,"o":"m 1082 153 q 1022 9 1082 60 q 872 -37 966 -37 q 665 153 665 -37 q 693 245 665 200 q 772 317 716 283 q 709 380 731 344 q 688 457 688 416 q 740 574 688 532 q 873 616 791 616 q 1005 578 955 616 q 1061 457 1061 536 q 1036 375 1061 415 q 968 313 1010 334 q 1050 245 1021 287 q 1082 153 1082 200 m 888 1011 l 289 -24 l 175 -24 l 775 1011 l 888 1011 m 318 383 l 191 383 l 191 825 l 62 749 l 62 873 q 264 1022 200 943 l 318 1022 l 318 383 m 939 452 q 873 509 939 509 q 808 452 808 509 q 833 401 808 427 q 884 364 858 374 q 922 402 906 376 q 939 452 939 428 m 960 150 q 863 265 960 210 q 789 158 789 223 q 811 97 789 121 q 872 74 834 74 q 960 150 960 74 z "},"⅜":{"ha":1131,"x_min":32,"x_max":1088,"o":"m 1088 153 q 1028 9 1088 60 q 878 -37 972 -37 q 671 153 671 -37 q 699 245 671 200 q 778 317 722 283 q 715 380 736 344 q 693 457 693 416 q 745 574 693 532 q 879 616 797 616 q 1010 578 960 616 q 1067 457 1067 536 q 1041 374 1067 415 q 974 313 1015 334 q 1055 245 1025 288 q 1088 153 1088 199 m 905 1011 l 307 -24 l 193 -24 l 791 1011 l 905 1011 m 416 568 q 357 426 416 475 q 196 376 298 376 q 32 441 101 376 l 93 550 q 197 498 138 498 q 288 575 288 498 q 191 665 288 665 l 163 665 l 163 775 l 187 775 q 268 848 268 775 q 193 908 268 908 q 106 865 144 908 l 47 962 q 200 1031 102 1031 q 341 983 286 1031 q 396 861 396 935 q 329 724 396 776 q 416 568 416 673 m 945 452 q 879 509 945 509 q 814 452 814 509 q 839 401 814 427 q 889 364 863 374 q 928 401 911 375 q 945 452 945 428 m 965 150 q 868 265 965 210 q 794 158 794 223 q 817 97 794 121 q 878 74 840 74 q 965 150 965 74 z "},"⅝":{"ha":1131,"x_min":40,"x_max":1088,"o":"m 1088 153 q 1028 9 1088 60 q 878 -37 972 -37 q 671 153 671 -37 q 699 245 671 200 q 778 317 722 283 q 715 380 736 344 q 693 457 693 416 q 745 574 693 532 q 879 616 797 616 q 1010 578 960 616 q 1067 457 1067 536 q 1041 374 1067 415 q 974 313 1015 334 q 1055 245 1025 288 q 1088 153 1088 199 m 905 1011 l 307 -24 l 193 -24 l 791 1011 l 905 1011 m 432 621 q 374 444 432 508 q 205 376 315 376 q 40 439 116 376 l 97 551 q 208 496 157 496 q 297 610 297 496 q 210 713 297 713 q 117 667 161 713 l 60 701 l 60 1019 l 406 1019 l 406 905 l 184 905 l 184 811 q 239 818 208 818 q 382 764 332 818 q 432 621 432 709 m 945 452 q 879 509 945 509 q 814 452 814 509 q 839 401 814 427 q 889 364 863 374 q 928 401 911 375 q 945 452 945 428 m 965 150 q 868 265 965 210 q 794 158 794 223 q 817 97 794 121 q 878 74 840 74 q 965 150 965 74 z "},"⅞":{"ha":1131,"x_min":85,"x_max":1082,"o":"m 1082 153 q 1022 9 1082 60 q 872 -37 966 -37 q 665 153 665 -37 q 693 245 665 200 q 772 317 716 283 q 709 380 731 344 q 688 457 688 416 q 740 574 688 532 q 873 616 791 616 q 1005 578 955 616 q 1061 457 1061 536 q 1036 375 1061 415 q 968 313 1010 334 q 1050 245 1021 287 q 1082 153 1082 200 m 879 1011 l 281 -24 l 167 -24 l 766 1011 l 879 1011 m 518 960 l 463 854 q 345 608 404 744 q 261 385 286 476 l 118 385 q 354 903 182 606 l 85 903 l 85 1019 l 518 1019 l 518 960 m 939 452 q 873 509 939 509 q 808 452 808 509 q 833 401 808 427 q 884 364 858 374 q 922 402 906 376 q 939 452 939 428 m 960 150 q 863 265 960 210 q 789 158 789 223 q 811 97 789 121 q 872 74 834 74 q 960 150 960 74 z "},"□":{"ha":839,"x_min":99,"x_max":739,"o":"m 99 640 l 739 640 l 739 0 l 99 0 l 99 640 m 151 589 l 151 52 l 688 52 l 688 589 l 151 589 z "},"▪":{"ha":492,"x_min":89,"x_max":403,"o":"m 403 616 l 403 302 l 89 302 l 89 616 l 403 616 z "},"▫":{"ha":492,"x_min":89,"x_max":403,"o":"m 403 616 l 403 302 l 89 302 l 89 616 l 403 616 m 351 564 l 140 564 l 140 353 l 351 353 l 351 564 z "},"●":{"ha":839,"x_min":120,"x_max":718,"o":"m 120 391 q 208 602 120 515 q 419 690 295 690 q 630 602 543 690 q 718 391 718 515 q 630 180 718 267 q 419 92 543 92 q 208 180 295 92 q 120 391 120 267 z "},"◦":{"ha":492,"x_min":76,"x_max":416,"o":"m 246 629 q 367 579 317 629 q 416 459 416 530 q 367 339 416 389 q 246 289 317 289 q 126 339 176 289 q 76 459 76 389 q 125 579 76 530 q 246 629 175 629 m 246 578 q 162 543 197 578 q 127 459 127 508 q 162 375 127 410 q 246 340 197 340 q 330 375 295 340 q 365 459 365 410 q 330 543 365 508 q 246 578 296 578 z "},"‛":{"ha":510,"x_min":121,"x_max":370,"o":"m 370 663 l 314 587 q 121 894 121 707 q 237 1024 121 1024 q 345 914 345 1024 q 312 843 345 880 q 279 783 279 806 q 310 713 279 747 q 370 663 323 699 z "},"Ș":{"ha":710,"x_min":54,"x_max":656,"o":"m 54 55 l 119 213 q 325 140 224 140 q 480 248 480 140 q 444 345 480 299 q 293 449 407 391 q 139 543 178 506 q 78 631 99 580 q 56 743 56 682 q 141 935 56 859 q 357 1010 225 1010 q 610 946 530 1010 l 557 794 q 361 861 464 861 q 266 828 300 861 q 233 745 233 796 q 422 567 233 659 q 566 477 522 518 q 633 381 610 436 q 656 260 656 327 q 561 61 656 139 q 305 -17 465 -17 q 54 55 166 -17 m 282 -374 l 239 -317 q 294 -267 284 -283 q 304 -233 304 -251 q 281 -192 304 -216 q 258 -141 258 -169 q 337 -61 258 -61 q 420 -155 420 -61 q 282 -374 420 -288 z "},"ș":{"ha":598,"x_min":44,"x_max":554,"o":"m 47 47 l 107 182 q 279 121 183 121 q 378 192 378 121 q 348 260 378 233 q 232 322 318 286 q 44 541 44 400 q 116 687 44 635 q 300 740 188 740 q 513 689 413 740 l 464 557 q 309 605 408 605 q 220 534 220 605 q 250 484 220 507 q 374 424 279 462 q 512 333 470 387 q 554 203 554 279 q 479 44 554 102 q 275 -14 404 -14 q 159 -2 203 -14 q 47 47 115 10 m 241 -374 l 199 -317 q 254 -267 243 -283 q 264 -233 264 -251 q 240 -192 264 -216 q 217 -141 217 -169 q 296 -61 217 -61 q 380 -155 380 -61 q 241 -374 380 -288 z "},"Ţ":{"ha":850,"x_min":14,"x_max":836,"o":"m 506 837 l 506 0 l 330 0 l 330 837 l 14 837 l 14 994 l 836 994 l 836 837 l 506 837 m 311 -288 l 283 -202 q 331 -208 307 -208 q 420 -146 420 -208 q 406 -103 420 -124 q 371 -77 392 -82 l 429 -16 q 551 -157 551 -41 q 503 -259 551 -222 q 378 -296 454 -296 q 311 -288 343 -296 z "},"ţ":{"ha":551,"x_min":33,"x_max":511,"o":"m 117 590 l 33 590 l 33 726 l 117 726 l 117 874 l 287 937 l 287 726 l 486 726 l 486 590 l 287 590 l 287 272 q 311 162 287 194 q 397 130 336 130 q 511 163 458 130 l 511 7 q 342 -14 452 -14 q 176 48 234 -14 q 117 222 117 109 l 117 590 m 163 -288 l 136 -202 q 183 -208 159 -208 q 272 -146 272 -208 q 258 -103 272 -124 q 223 -77 244 -82 l 281 -16 q 403 -157 403 -41 q 355 -259 403 -222 q 230 -296 307 -296 q 163 -288 195 -296 z "},"ﬆ":{"ha":1137,"x_min":22,"x_max":1126,"o":"m 22 60 l 87 187 q 275 121 195 121 q 380 197 380 121 q 352 257 380 230 q 233 323 324 284 q 85 419 123 370 q 47 542 47 469 q 120 686 47 632 q 325 741 193 741 q 371 737 342 741 q 339 844 339 789 q 410 1002 339 946 q 616 1057 481 1057 q 828 993 761 1057 q 896 793 896 929 l 896 726 l 1095 726 l 1095 590 l 896 590 l 896 254 q 985 129 896 129 q 1089 151 1035 129 l 1126 18 q 946 -14 1040 -14 q 783 47 840 -14 q 725 222 725 109 l 725 590 l 628 590 l 628 726 l 725 726 l 725 794 q 612 935 725 935 q 523 904 553 935 q 493 827 493 873 q 532 690 493 756 l 484 558 q 315 606 399 606 q 221 545 221 606 q 260 483 221 509 q 376 425 299 458 q 513 334 469 387 q 557 199 557 281 q 482 45 557 104 q 290 -14 407 -14 q 22 60 130 -14 z "},"ﬀ":{"ha":930,"x_min":21,"x_max":1000,"o":"m 968 867 q 864 888 901 888 q 749 737 749 888 l 749 726 l 928 726 l 928 590 l 751 590 l 751 0 l 582 0 l 582 590 l 313 590 l 313 0 l 143 0 l 143 590 l 21 590 l 21 726 l 144 726 q 421 1010 156 1010 q 561 983 488 1010 l 529 852 q 425 873 471 873 q 310 736 310 873 l 310 726 l 583 726 q 860 1023 595 1023 q 1000 997 926 1023 l 968 867 z "},"ﬃ":{"ha":1304,"x_min":21,"x_max":1232,"o":"m 993 997 l 964 867 q 864 888 899 888 q 749 737 749 888 l 749 726 l 1213 726 l 1213 0 l 1042 0 l 1042 590 l 751 590 l 751 0 l 582 0 l 582 590 l 313 590 l 313 0 l 143 0 l 143 590 l 21 590 l 21 726 l 144 726 q 421 1010 156 1010 q 561 983 488 1010 l 529 852 q 425 873 471 873 q 310 736 310 873 l 310 726 l 583 726 q 860 1023 595 1023 q 993 997 922 1023 m 1232 920 q 1202 846 1232 877 q 1129 815 1172 815 q 1055 846 1086 815 q 1025 920 1025 876 q 1055 992 1025 962 q 1129 1023 1086 1023 q 1202 992 1172 1023 q 1232 920 1232 962 z "},"ﬄ":{"ha":1315,"x_min":21,"x_max":1304,"o":"m 1035 888 l 875 888 q 749 737 749 888 l 749 726 l 928 726 l 928 590 l 751 590 l 751 0 l 582 0 l 582 590 l 313 590 l 313 0 l 143 0 l 143 590 l 21 590 l 21 726 l 144 726 q 421 1010 156 1010 q 561 983 488 1010 l 529 852 q 425 873 471 873 q 310 736 310 873 l 310 726 l 583 726 q 860 1023 595 1023 l 1204 1023 l 1204 253 q 1232 163 1204 196 q 1304 131 1259 131 l 1304 -14 q 1035 205 1035 -14 l 1035 888 z "},"⁰":{"ha":555,"x_min":45,"x_max":510,"o":"m 279 1007 q 510 705 510 1007 q 450 477 510 559 q 282 395 389 395 q 106 474 168 395 q 45 708 45 553 q 108 928 45 849 q 279 1007 171 1007 m 279 509 q 347 552 328 509 q 366 711 366 595 q 346 855 366 817 q 277 893 326 893 q 187 713 187 893 q 208 558 187 608 q 279 509 229 509 z "},"⁴":{"ha":555,"x_min":16,"x_max":528,"o":"m 444 529 l 444 404 l 306 404 l 306 529 l 16 529 l 16 625 l 350 1003 l 444 1003 l 444 642 l 528 642 l 528 529 l 444 529 m 306 815 l 151 642 l 306 642 l 306 815 z "},"⁵":{"ha":555,"x_min":45,"x_max":493,"o":"m 82 653 l 82 993 l 458 993 l 458 876 l 215 876 l 215 770 q 309 791 250 791 q 443 742 392 791 q 493 607 493 693 q 430 450 493 505 q 250 395 366 395 q 45 449 119 395 l 106 553 q 244 509 169 509 q 345 596 345 509 q 244 681 345 681 q 123 633 171 681 l 82 653 z "},"⁶":{"ha":555,"x_min":53,"x_max":511,"o":"m 367 1017 l 422 905 q 203 721 219 829 q 334 777 254 777 q 463 727 414 777 q 511 597 511 677 q 452 451 511 507 q 294 395 392 395 q 116 455 180 395 q 53 624 53 516 q 367 1017 53 886 m 286 500 q 366 583 366 500 q 286 672 366 672 q 201 589 201 672 q 224 525 201 550 q 286 500 246 500 z "},"⁷":{"ha":555,"x_min":60,"x_max":519,"o":"m 109 404 q 355 876 174 597 l 60 876 l 60 993 l 519 993 l 519 947 l 473 868 q 261 404 330 621 l 109 404 z "},"⁸":{"ha":555,"x_min":54,"x_max":504,"o":"m 171 729 q 78 859 78 781 q 134 966 78 925 q 279 1007 190 1007 q 425 968 370 1007 q 481 868 481 929 q 392 734 481 789 q 504 575 504 677 q 441 444 504 493 q 277 395 378 395 q 114 441 174 395 q 54 570 54 488 q 171 729 54 676 m 298 778 q 339 848 339 804 q 322 889 339 873 q 279 904 305 904 q 222 848 222 904 q 298 778 222 809 m 267 679 q 199 578 199 643 q 281 498 199 498 q 363 575 363 498 q 267 679 363 632 z "},"⁹":{"ha":555,"x_min":45,"x_max":503,"o":"m 189 383 l 134 494 q 353 679 337 572 q 222 624 301 624 q 93 673 142 624 q 45 803 45 722 q 104 949 45 893 q 261 1006 164 1006 q 439 945 376 1006 q 503 777 503 884 q 189 383 503 515 m 269 900 q 191 817 191 900 q 269 728 191 728 q 354 811 354 728 q 332 875 354 850 q 269 900 309 900 z "},"₀":{"ha":555,"x_min":46,"x_max":511,"o":"m 281 606 q 511 304 511 606 q 451 76 511 159 q 283 -6 391 -6 q 108 73 170 -6 q 46 307 46 153 q 109 527 46 448 q 281 606 172 606 m 281 108 q 348 151 329 108 q 367 311 367 194 q 347 454 367 416 q 278 492 327 492 q 189 312 189 492 q 210 158 189 208 q 281 108 231 108 z "},"₁":{"ha":555,"x_min":96,"x_max":387,"o":"m 250 3 l 250 420 q 96 330 164 353 l 96 446 q 314 602 246 519 l 387 602 l 387 3 l 250 3 z "},"₂":{"ha":555,"x_min":46,"x_max":497,"o":"m 60 2 l 60 41 l 232 256 q 318 430 318 364 q 252 494 318 494 q 127 425 191 494 l 46 512 q 262 606 134 606 q 414 561 361 606 q 467 441 467 515 q 349 209 467 345 l 272 120 l 497 120 l 497 2 l 60 2 z "},"₃":{"ha":555,"x_min":31,"x_max":489,"o":"m 130 439 l 57 527 q 264 606 136 606 q 415 566 363 606 q 468 456 468 526 q 358 315 468 351 q 489 177 489 279 q 425 43 489 93 q 254 -6 360 -6 q 31 56 122 -6 l 93 160 q 245 109 161 109 q 340 180 340 109 q 210 256 340 256 l 168 256 l 168 363 l 207 363 q 322 438 322 363 q 247 494 322 494 q 130 439 186 494 z "},"₄":{"ha":555,"x_min":16,"x_max":528,"o":"m 444 128 l 444 3 l 306 3 l 306 128 l 16 128 l 16 224 l 350 602 l 444 602 l 444 241 l 528 241 l 528 128 l 444 128 m 306 414 l 151 241 l 306 241 l 306 414 z "},"₅":{"ha":555,"x_min":45,"x_max":493,"o":"m 82 252 l 82 592 l 458 592 l 458 475 l 215 475 l 215 369 q 309 391 250 391 q 443 341 392 391 q 493 206 493 292 q 430 49 493 104 q 250 -6 366 -6 q 45 48 119 -6 l 106 152 q 244 108 169 108 q 345 195 345 108 q 244 280 345 280 q 123 233 171 280 l 82 252 z "},"₆":{"ha":555,"x_min":53,"x_max":511,"o":"m 367 616 l 422 505 q 203 320 219 428 q 334 376 254 376 q 463 326 414 376 q 511 197 511 277 q 452 50 511 106 q 294 -6 392 -6 q 116 55 180 -6 q 53 223 53 115 q 367 616 53 485 m 286 99 q 366 182 366 99 q 286 271 366 271 q 201 188 201 271 q 224 124 201 149 q 286 99 246 99 z "},"₇":{"ha":555,"x_min":60,"x_max":519,"o":"m 109 3 q 355 475 174 196 l 60 475 l 60 592 l 519 592 l 519 547 l 473 467 q 261 3 330 220 l 109 3 z "},"₈":{"ha":555,"x_min":54,"x_max":504,"o":"m 171 328 q 78 458 78 380 q 134 565 78 524 q 279 606 190 606 q 425 567 370 606 q 481 467 481 528 q 392 334 481 388 q 504 174 504 276 q 441 43 504 92 q 277 -6 378 -6 q 114 40 174 -6 q 54 169 54 87 q 171 328 54 275 m 298 377 q 339 448 339 404 q 322 488 339 473 q 279 503 305 503 q 222 448 222 503 q 298 377 222 408 m 267 278 q 199 177 199 242 q 281 98 199 98 q 363 174 363 98 q 267 278 363 231 z "},"₉":{"ha":555,"x_min":45,"x_max":503,"o":"m 189 -18 l 134 94 q 353 278 337 171 q 222 223 301 223 q 93 272 142 223 q 45 402 45 321 q 104 549 45 492 q 261 605 164 605 q 439 544 376 605 q 503 376 503 484 q 189 -18 503 114 m 269 499 q 191 416 191 499 q 269 327 191 327 q 354 410 354 327 q 332 474 354 449 q 269 499 309 499 z "},"Ѝ":{"ha":975,"x_min":102,"x_max":872,"o":"m 872 0 l 696 0 l 696 668 l 176 -16 l 102 -16 l 102 993 l 278 993 l 278 325 l 798 1008 l 872 1008 l 872 0 m 472 1027 l 319 1226 l 500 1226 l 614 1027 l 472 1027 z "},"ѝ":{"ha":835,"x_min":92,"x_max":743,"o":"m 743 0 l 574 0 l 574 439 l 138 -17 l 92 -17 l 92 726 l 261 726 l 261 288 l 697 743 l 743 743 l 743 0 m 418 824 l 264 1023 l 446 1023 l 560 824 l 418 824 z "},"Ա":{"ha":968,"x_min":102,"x_max":966,"o":"m 102 994 l 278 994 l 278 310 q 292 235 278 267 q 332 182 307 203 q 395 150 358 161 q 477 140 432 140 q 560 150 523 140 q 623 182 597 161 q 663 235 648 203 q 677 310 677 267 l 677 994 l 853 994 l 853 310 q 827 172 853 233 q 885 139 852 156 q 966 103 919 123 l 875 -46 q 718 44 785 -8 q 611 -2 671 14 q 477 -17 551 -17 q 320 5 390 -17 q 202 70 251 28 q 127 173 153 112 q 102 310 102 233 l 102 994 z "},"Բ":{"ha":941,"x_min":102,"x_max":860,"o":"m 840 570 l 663 570 l 663 684 q 613 812 663 770 q 471 854 564 854 q 328 812 378 854 q 278 684 278 770 l 278 407 l 860 407 l 860 250 l 278 250 l 278 0 l 102 0 l 102 684 q 126 821 102 760 q 198 924 151 882 q 314 988 245 966 q 471 1010 383 1010 q 627 988 558 1010 q 743 924 696 966 q 815 821 790 882 q 840 684 840 760 l 840 570 z "},"Գ":{"ha":963,"x_min":61,"x_max":963,"o":"m 963 250 l 814 250 l 814 0 l 637 0 l 637 250 l 445 250 q 279 276 351 250 q 159 352 208 302 q 86 471 111 401 q 61 631 61 542 q 86 789 61 719 q 159 909 111 860 q 279 984 207 958 q 445 1010 351 1010 q 609 984 539 1010 q 724 912 678 958 q 791 801 769 865 q 814 660 814 736 l 814 407 l 963 407 l 963 250 m 637 407 l 637 660 q 588 806 637 759 q 445 854 538 854 q 361 842 399 854 q 298 804 324 830 q 259 734 273 777 q 245 631 245 692 q 259 526 245 569 q 298 457 273 484 q 361 419 324 431 q 445 407 399 407 l 637 407 z "},"Դ":{"ha":935,"x_min":47,"x_max":935,"o":"m 47 684 q 72 821 47 760 q 144 924 97 882 q 260 988 191 966 q 416 1010 329 1010 q 573 988 504 1010 q 689 924 642 966 q 761 821 736 882 q 785 684 785 760 l 785 407 l 935 407 l 935 250 l 785 250 l 785 0 l 609 0 l 609 684 q 559 812 609 770 q 416 854 509 854 q 274 812 323 854 q 224 684 224 770 l 224 570 l 47 570 l 47 684 z "},"Ե":{"ha":928,"x_min":102,"x_max":860,"o":"m 840 310 q 815 173 840 233 q 743 70 790 112 q 627 5 696 28 q 471 -17 558 -17 q 314 5 383 -17 q 198 70 245 28 q 126 173 151 112 q 102 310 102 233 l 102 994 l 278 994 l 278 726 l 860 726 l 860 570 l 278 570 l 278 310 q 328 182 278 224 q 471 140 378 140 q 613 182 564 140 q 663 310 663 224 l 663 424 l 840 424 l 840 310 z "},"Զ":{"ha":983,"x_min":82,"x_max":915,"o":"m 499 858 q 330 810 392 858 q 258 663 269 762 l 82 693 q 123 825 90 766 q 209 925 155 884 q 336 988 263 966 q 499 1010 410 1010 q 679 982 601 1010 q 809 902 756 953 q 888 781 861 851 q 915 628 915 711 q 890 449 915 529 q 826 310 865 370 q 739 212 787 250 q 644 157 690 173 l 912 157 l 912 0 l 95 0 l 95 291 l 271 291 l 271 157 l 288 157 q 432 183 368 161 q 546 239 496 205 q 631 317 595 273 q 691 409 667 361 q 725 507 714 457 q 736 603 736 556 q 719 721 736 672 q 672 800 703 769 q 597 844 641 830 q 499 858 553 858 z "},"Է":{"ha":812,"x_min":109,"x_max":812,"o":"m 714 0 l 109 0 l 109 994 l 285 994 l 285 726 l 812 726 l 812 570 l 285 570 l 285 157 l 714 157 l 714 0 z "},"Ը":{"ha":941,"x_min":102,"x_max":860,"o":"m 840 570 l 663 570 l 663 684 q 613 812 663 770 q 471 854 564 854 q 328 812 378 854 q 278 684 278 770 l 278 157 l 860 157 l 860 0 l 102 0 l 102 684 q 126 821 102 760 q 198 924 151 882 q 314 988 245 966 q 471 1010 383 1010 q 627 988 558 1010 q 743 924 696 966 q 815 821 790 882 q 840 684 840 760 l 840 570 z "},"Թ":{"ha":1212,"x_min":102,"x_max":1212,"o":"m 887 595 l 887 626 q 873 717 887 675 q 825 789 859 759 q 732 837 791 820 q 585 854 674 854 q 436 837 495 854 q 342 789 377 820 q 293 717 307 759 q 278 626 278 675 l 278 0 l 102 0 l 102 626 q 127 772 102 703 q 209 895 152 842 q 358 979 266 947 q 585 1010 450 1010 q 744 996 674 1010 q 868 956 814 982 q 958 895 921 930 q 1019 817 996 859 q 1053 725 1042 774 q 1063 626 1063 677 l 1063 595 l 1212 595 l 1212 439 l 1063 439 l 1063 294 q 1039 159 1063 218 q 970 62 1014 101 q 867 3 926 23 q 736 -17 807 -17 q 606 2 666 -17 q 501 61 545 22 q 432 158 457 100 q 407 294 407 216 q 432 429 407 372 q 501 523 457 486 q 606 577 545 559 q 736 595 666 595 l 887 595 m 736 136 q 848 174 808 136 q 887 294 887 212 l 887 439 l 736 439 q 672 432 701 439 q 624 408 644 425 q 594 363 604 391 q 583 294 583 336 q 624 174 583 212 q 736 136 664 136 z "},"Ժ":{"ha":963,"x_min":61,"x_max":963,"o":"m 963 570 l 814 570 l 814 334 q 791 193 814 257 q 724 82 769 128 q 609 9 678 35 q 445 -17 539 -17 q 279 8 351 -17 q 159 80 207 33 q 86 197 111 128 q 61 355 61 266 q 86 513 61 444 q 159 629 111 582 q 279 702 208 677 q 445 726 351 726 l 637 726 l 637 994 l 814 994 l 814 726 l 963 726 l 963 570 m 445 140 q 588 187 538 140 q 637 334 637 235 l 637 570 l 445 570 q 361 559 399 570 q 298 524 324 549 q 259 458 273 499 q 245 355 245 416 q 259 252 245 294 q 298 186 273 211 q 361 150 324 161 q 445 140 399 140 z "}}}
